<svg id="_08_usada" data-name="08_usada" xmlns="http://www.w3.org/2000/svg" viewBox="0 0 101.201 150.291">
  <defs>
    <style>
      .cls-1 {
        fill: #fe9da0;
      }
    </style>
  </defs>
  <path id="パス_1212" data-name="パス 1212" class="cls-1" d="M1013.509,3042.3H997.767a4.166,4.166,0,0,0-4.168,4.167,12.02,12.02,0,0,0,3.643,8.623l-.027.027a4.168,4.168,0,0,0,5.9,5.892l2.505-2.505h.027c.12,0,.241,0,.361-.008l2.33,2.33a4.166,4.166,0,1,0,5.892-5.892l-.019-.019a11.994,11.994,0,0,0,3.472-8.452A4.17,4.17,0,0,0,1013.509,3042.3Z" transform="translate(-955.009 -2924.137)"/>
  <path id="パス_1213" data-name="パス 1213" class="cls-1" d="M92.521,71.341V32.319a4.168,4.168,0,0,0-8.335,0V72.65a4.177,4.177,0,0,0,.781,2.431A42.268,42.268,0,1,1,8.335,99.691a41.952,41.952,0,0,1,8.02-24.772,4.16,4.16,0,0,0,.792-2.455L17.02,20.9a12.561,12.561,0,1,1,25.122,0V53.459a4.169,4.169,0,0,0,4.548,4.152,42.309,42.309,0,0,1,7.9.008,4.165,4.165,0,0,0,4.552-4.16L59.064,20.9a12.561,12.561,0,0,1,25.122,0,4.168,4.168,0,0,0,8.335,0,20.9,20.9,0,1,0-41.792.008l.07,28.186h-.326V20.9A20.9,20.9,0,1,0,8.681,20.9l.124,50.255a50.6,50.6,0,1,0,92.4,28.532A50.2,50.2,0,0,0,92.521,71.341Z"/>
</svg>
