<?xml version="1.0" encoding="utf-8"?>
<!-- Generator: Adobe Illustrator 22.1.0, SVG Export Plug-In . SVG Version: 6.00 Build 0)  -->
<svg version="1.1" id="レイヤー_1" xmlns="http://www.w3.org/2000/svg" xmlns:xlink="http://www.w3.org/1999/xlink" x="0px"
	 y="0px" viewBox="0 0 4461.9 5000" style="enable-background:new 0 0 4461.9 5000;" xml:space="preserve">
<style type="text/css">
	.st0{fill:#00395E;}
	.st1{fill:#E6E6E6;}
	.st2{fill:#CCCCCC;}
	.st3{fill:#B3B3B3;}
	.st4{fill:#666666;}
	.st5{fill:#FFFFFF;}
	.st6{fill:#99C6E4;}
	.st7{opacity:0.46;clip-path:url(#SVGID_2_);fill:#FFFFFF;}
	.st8{fill:#0071BC;}
	.st9{clip-path:url(#SVGID_4_);fill:#B3B3B3;}
	.st10{opacity:0.8;clip-path:url(#SVGID_4_);fill:#B3B3B3;}
	.st11{opacity:0.6;clip-path:url(#SVGID_4_);fill:#B3B3B3;}
	.st12{opacity:0.4;clip-path:url(#SVGID_4_);fill:#B3B3B3;}
	.st13{opacity:0.2;clip-path:url(#SVGID_4_);fill:#B3B3B3;}
</style>
<g>
	<polygon class="st0" points="3549.6,4206 721.9,3698.1 799,54 3549.6,635.2 	"/>
	<path class="st1" d="M1225.4,125.8 M3563,531.7"/>
	<polygon class="st0" points="869.7,69.6 793.4,952 125.9,813.4 	"/>
	<path class="st1" d="M948.9,402.3 M3286.6,808.1 M838.6,96.2"/>
	<path class="st2" d="M3259.7,1002.9"/>
	<path class="st1" d="M779.9,571.3 M3117.6,977.1 M669.6,265.2"/>
	<polygon class="st3" points="2793.3,1440.9 2822.7,1452.6 2814.3,4818.4 2510.2,4768.9 	"/>
	<path class="st2" d="M2814.2,1448.4"/>
	<polygon class="st4" points="350.7,785.1 349.3,872.8 620.8,926.5 753.8,794.3 753.8,380.7 	"/>
	<polyline class="st3" points="695.4,369 754.5,380.7 350.4,784.8 349.3,878.5 391.6,927.3 293.4,906.8 292.7,907.4 292.7,771.7 	
		"/>
	<polygon class="st2" points="292.7,772.4 350.7,785.1 349.3,860.1 292.7,847.4 	"/>
	<polyline class="st5" points="2816.4,1446.3 3449.1,813.6 1206.3,331.2 620.8,916.7 	"/>
	<polyline class="st3" points="2814.3,4818.4 2814.3,1448.4 3003.6,1259.1 3259.8,1002.9 3449.1,813.6 3449.1,4183.6 	"/>
	<polyline class="st6" points="869.5,69.6 3552.4,634.4 3552.4,4202.4 3606.9,4148 3606.9,580 852,0 797.6,54.4 	"/>
	<polygon class="st0" points="3548.9,4205.3 3608.3,4151.6 3602.6,583.6 3548.9,637.3 	"/>
	<path class="st5" d="M2497.5,86.2v0.3l373.6,79.3l1585.1,336.5l0.1,42.2c0.9,3.8,1.3,7.7,1.3,11.5v789.8l4.4,2597.2l-1964.4-461
		V1029.6v-851V86.5 M2725.1,695.7c0,32.8-26.6,53.8-59.4,47l0,0c-32.8-6.8-59.4-39-59.4-71.8v0c0-32.8,26.6-53.8,59.4-47l0,0
		C2698.5,630.8,2725.1,662.9,2725.1,695.7L2725.1,695.7z M2725.1,507.6c0,32.8-26.6,53.8-59.4,47l0,0c-32.8-6.8-59.4-39-59.4-71.8v0
		c0-32.8,26.6-53.8,59.4-47l0,0C2698.5,442.7,2725.1,474.8,2725.1,507.6L2725.1,507.6z"/>
	<g>
		<defs>
			<path id="SVGID_1_" d="M2670.4,953.3l239,51.5c26.4,5.7,47.8,31.7,47.8,58.1v0c0,26.4,21.4,52.4,47.8,58.1l585.5-585.5
				c-26.4-5.7-47.8-31.7-47.8-58.1v0c0-26.4-21.4-52.4-47.8-58.1l-239-51.5L2670.4,953.3z"/>
		</defs>
		<use xlink:href="#SVGID_1_"  style="overflow:visible;fill:#FFFFFF;"/>
		<clipPath id="SVGID_2_">
			<use xlink:href="#SVGID_1_"  style="overflow:visible;"/>
		</clipPath>
		<polygon class="st7" points="4025.5,32.7 2491.7,1566.5 2353.9,1566.5 3972.5,-52.1 		"/>
		<polygon class="st7" points="4036.1,32.7 2502.3,1566.5 2364.5,1566.5 3983.1,-52.1 		"/>
		<polygon class="st7" points="4046.7,32.7 2512.9,1566.5 2375.1,1566.5 3993.7,-52.1 		"/>
		<polygon class="st7" points="4057.3,32.7 2523.5,1566.5 2385.7,1566.5 4004.3,-52.1 		"/>
		<polygon class="st7" points="4067.9,32.7 2534.1,1566.5 2396.3,1566.5 4014.9,-52.1 		"/>
	</g>
	<path class="st5" d="M2128.1,1309.1l-77.6,379.3c-5,24.5,10.7,48.5,35.2,53.6l640.6,134.9l0,0v0c20.9,43.6,86.5,28.7,86.5-19.7
		v-97.5v-453.3c0-21.5-15.1-40.1-36.1-44.5l-399.4-84.1c-17.4-3.7-35.4,3.2-46,17.5l-51.6,69.8c-10.2,13.8-27.3,20.7-44.3,17.8
		l-55.1-9.4C2156.2,1269.3,2133,1285.1,2128.1,1309.1z"/>
	<polygon class="st8" points="2754.8,5000 0,4420 0,852 2754.8,1432 	"/>
	<path class="st1" d="M1252.3,613.7 M3589.9,1019.5 M1142,307.6"/>
	<polyline class="st6" points="797.8,54.2 0,852 2754.8,1432 2754.8,5000 2809.3,4945.6 2809.3,1377.6 126.5,812.8 869.6,69.5 	"/>
	<polygon class="st3" points="2814.2,4818.4 2814.2,1448.4 3003.5,1259.1 3003.5,4500.2 	"/>
	<path class="st5" d="M3772.8,404.1l-77.6,379.3c-5,24.5,10.7,48.5,35.2,53.6L4371,971.9l0,0v0c20.9,43.6,86.5,28.7,86.5-19.7v-97.5
		V401.4c0-21.5-15.1-40.1-36.1-44.5L4022,272.8c-17.4-3.7-35.4,3.2-46,17.5l-51.6,69.8c-10.2,13.8-27.3,20.7-44.3,17.8l-55.1-9.4
		C3800.9,364.2,3777.7,380,3772.8,404.1z"/>
	<g>
		<defs>
			<path id="SVGID_3_" d="M2983.5,1706.2L2793,1896.7l-14.2,5.7c19-4.3,35.4-20.2,35.4-44.4v-97.5v-453.3
				c0-21.5-15.1-40.1-36.1-44.5l-399.4-84.1L2568.2,989l399.4,84.1c21.1,4.4,36.1,23,36.1,44.5V1571v97.5
				c0,48.4-65.6,63.3-86.5,19.7v0l0,0"/>
		</defs>
		<clipPath id="SVGID_4_">
			<use xlink:href="#SVGID_3_"  style="overflow:visible;"/>
		</clipPath>
		<polyline class="st9" points="2725.1,1396.1 3003.7,1117.5 3003.7,1947.6 2725.1,2115.9 2725.1,1360.7 		"/>
		<polyline class="st10" points="2725.1,1386.2 3003.7,1107.6 3003.7,1937.7 2725.1,2106 2725.1,1350.8 		"/>
		<polyline class="st11" points="2725.1,1376.3 3003.7,1097.7 3003.7,1927.8 2725.1,2096.1 2725.1,1340.9 		"/>
		<polyline class="st12" points="2725.1,1369.2 3003.7,1090.6 3003.7,1920.7 2725.1,2089 2725.1,1333.8 		"/>
		<polyline class="st13" points="2725.1,1362.1 3003.7,1083.5 3003.7,1913.7 2725.1,2081.9 2725.1,1326.8 		"/>
	</g>
	<polygon class="st0" points="2814.2,4945.7 2754.8,4999.4 2754.8,1431.4 2810,1377.7 	"/>
	<polygon class="st5" points="2337.4,1188.6 2536.4,989.6 2580.9,1120.3 2462.1,1209.4 	"/>
</g>
</svg>
