<?xml version="1.0" encoding="utf-8"?>
<!-- Generator: Adobe Illustrator 22.1.0, SVG Export Plug-In . SVG Version: 6.00 Build 0)  -->
<svg version="1.1" id="レイヤー_1" xmlns="http://www.w3.org/2000/svg" xmlns:xlink="http://www.w3.org/1999/xlink" x="0px"
	 y="0px" viewBox="0 0 3294.5 5000" style="enable-background:new 0 0 3294.5 5000;" xml:space="preserve">
<style type="text/css">
	.st0{fill:#E6E6E6;}
	.st1{fill:#B3B3B3;}
	.st2{fill:none;stroke:#B3B3B3;stroke-width:11;stroke-miterlimit:10;}
	.st3{opacity:0.3;}
	.st4{opacity:0.2;fill:#999999;}
	.st5{opacity:0.23;fill:#808080;}
	.st6{fill:#F2F2F2;}
	.st7{fill:#999999;}
</style>
<g>
	<polygon class="st0" points="3209.7,4264.5 1348.7,3870.2 1348.7,1380.2 3209.7,1774.5 	"/>
	<polygon class="st1" points="3066.7,2067.2 1460.7,1726.9 1460.7,1671.9 3066.7,2012.2 	"/>
	<polygon class="st1" points="3066.7,2825.2 2279.7,2658.5 2279.7,2006.5 3066.7,2173.2 	"/>
	<polygon class="st1" points="2538.7,3462.3 1460.7,3233.9 1460.7,2581.9 2538.7,2810.3 	"/>
	<polygon class="st1" points="2169.7,2026.1 1460.7,1875.9 1460.7,1832.9 2169.7,1983.1 	"/>
	<polygon class="st1" points="2169.7,2102.1 1460.7,1951.9 1460.7,1940.9 2169.7,2091.1 	"/>
	<polygon class="st1" points="2169.7,2143.1 1460.7,1992.9 1460.7,1981.9 2169.7,2132.1 	"/>
	<polygon class="st1" points="2169.7,2184.1 1460.7,2033.9 1460.7,2022.9 2169.7,2173.1 	"/>
	<polygon class="st1" points="2169.7,2225.1 1460.7,2074.9 1460.7,2063.9 2169.7,2214.1 	"/>
	<polygon class="st1" points="2169.7,2225.1 1460.7,2074.9 1460.7,2063.9 2169.7,2214.1 	"/>
	<polygon class="st1" points="2169.7,2266.1 1460.7,2115.9 1460.7,2104.9 2169.7,2255.1 	"/>
	<polygon class="st1" points="2169.7,2307.1 1460.7,2156.9 1460.7,2145.9 2169.7,2296.1 	"/>
	<polygon class="st1" points="2169.7,2348.1 1460.7,2197.9 1460.7,2186.9 2169.7,2337.1 	"/>
	<polygon class="st1" points="2169.7,2348.1 1460.7,2197.9 1460.7,2186.9 2169.7,2337.1 	"/>
	<polygon class="st1" points="2169.7,2389.1 1460.7,2238.9 1460.7,2227.9 2169.7,2378.1 	"/>
	<polygon class="st1" points="2169.7,2430.1 1460.7,2279.9 1460.7,2268.9 2169.7,2419.1 	"/>
	<polygon class="st1" points="2169.7,2471.1 1460.7,2320.9 1460.7,2309.9 2169.7,2460.1 	"/>
	<polygon class="st1" points="2169.7,2471.1 1460.7,2320.9 1460.7,2309.9 2169.7,2460.1 	"/>
	<polygon class="st1" points="2169.7,2512.1 1460.7,2361.9 1460.7,2350.9 2169.7,2501.1 	"/>
	<polygon class="st1" points="2169.7,2553.1 1460.7,2402.9 1460.7,2391.9 2169.7,2542.1 	"/>
	<polygon class="st1" points="2169.7,2594.1 1460.7,2443.9 1460.7,2432.9 2169.7,2583.1 	"/>
	<polygon class="st1" points="3055.7,3571.9 3055.7,2919.9 3066.7,2922.2 3066.7,3574.2 	"/>
	<polygon class="st1" points="3014.7,3563.2 3014.7,2911.2 3025.7,2913.5 3025.7,3565.5 	"/>
	<polygon class="st1" points="2973.7,3554.5 2973.7,2902.5 2984.7,2904.8 2984.7,3556.8 	"/>
	<polygon class="st1" points="2932.7,3545.8 2932.7,2893.8 2943.7,2896.1 2943.7,3548.1 	"/>
	<polygon class="st1" points="2932.7,3545.8 2932.7,2893.8 2943.7,2896.1 2943.7,3548.1 	"/>
	<polygon class="st1" points="2891.7,3537.1 2891.7,2885.1 2902.7,2887.5 2902.7,3539.5 	"/>
	<polygon class="st1" points="2850.7,3528.4 2850.7,2876.4 2861.7,2878.8 2861.7,3530.8 	"/>
	<polygon class="st1" points="2809.7,3519.7 2809.7,2867.7 2820.7,2870.1 2820.7,3522.1 	"/>
	<polygon class="st1" points="2809.7,3519.7 2809.7,2867.7 2820.7,2870.1 2820.7,3522.1 	"/>
	<polygon class="st1" points="2768.7,3511.1 2768.7,2859.1 2779.7,2861.4 2779.7,3513.4 	"/>
	<polygon class="st1" points="2727.7,3502.4 2727.7,2850.4 2738.7,2852.7 2738.7,3504.7 	"/>
	<polygon class="st1" points="2686.7,3493.7 2686.7,2841.7 2697.7,2844 2697.7,3496 	"/>
	<polygon class="st1" points="2686.7,3493.7 2686.7,2841.7 2697.7,2844 2697.7,3496 	"/>
	<polygon class="st1" points="2645.7,3485 2645.7,2833 2656.7,2835.3 2656.7,3487.3 	"/>
	<polygon class="st1" points="2604.7,3476.3 2604.7,2824.3 2615.7,2826.6 2615.7,3478.6 	"/>
	<polygon class="st1" points="1524.7,1658.5 1460.7,1644.9 1460.7,1489.9 1524.7,1503.5 	"/>
	<polygon class="st1" points="1610.7,1676.7 1546.7,1663.1 1546.7,1508.1 1610.7,1521.7 	"/>
	<polygon class="st1" points="1698.7,1695.4 1634.7,1681.8 1634.7,1526.8 1698.7,1540.4 	"/>
	<polygon class="st1" points="1784.7,1713.6 1720.7,1700 1720.7,1545 1784.7,1558.6 	"/>
	<polygon class="st1" points="1872.7,1732.2 1808.7,1718.7 1808.7,1563.7 1872.7,1577.2 	"/>
	<polygon class="st1" points="1958.7,1750.4 1894.7,1736.9 1894.7,1581.9 1958.7,1595.4 	"/>
	<polygon class="st1" points="2046.7,1769.1 1982.7,1755.5 1982.7,1600.5 2046.7,1614.1 	"/>
	<polygon class="st1" points="2132.7,1787.3 2068.7,1773.7 2068.7,1618.7 2132.7,1632.3 	"/>
	<polygon class="st1" points="2220.7,1806 2156.7,1792.4 2156.7,1637.4 2220.7,1651 	"/>
	<polygon class="st1" points="2720,1910.7 2688.2,1904 2688.2,1865 2720,1871.7 	"/>
	<polygon class="st1" points="2762.7,1919.8 2730.9,1913 2730.9,1874 2762.7,1880.8 	"/>
	<polygon class="st1" points="2806.4,1929 2774.6,1922.3 2774.6,1883.3 2806.4,1890 	"/>
	<polygon class="st1" points="2849.1,1938.1 2817.3,1931.4 2817.3,1892.4 2849.1,1899.1 	"/>
	<polygon class="st1" points="2892.9,1947.4 2861.1,1940.6 2861.1,1901.6 2892.9,1908.4 	"/>
	<polygon class="st1" points="2935.6,1956.4 2903.8,1949.7 2903.8,1910.7 2935.6,1917.4 	"/>
	<polygon class="st1" points="2979.3,1965.7 2947.5,1958.9 2947.5,1919.9 2979.3,1926.7 	"/>
	<polygon class="st1" points="3022,1974.7 2990.2,1968 2990.2,1929 3022,1935.7 	"/>
	<polygon class="st1" points="3065.7,1984 3033.9,1977.3 3033.9,1938.3 3065.7,1945 	"/>
	<polygon class="st2" points="3066.7,4088.7 1460.7,3748.4 1460.7,3301.9 3066.7,3642.2 	"/>
	<path class="st1" d="M1753.7,3726L1753.7,3726c-76.2-16.1-138-91-138-167.2v0c0-76.2,61.8-124.9,138-108.8h0
		c76.2,16.1,138,91,138,167.2v0C1891.7,3693.5,1829.9,3742.2,1753.7,3726z"/>
	<polygon class="st1" points="2100.7,3523.5 1940.5,3767.1 2260.9,3835 	"/>
</g>
<g class="st3">
	<polygon points="3209.7,4260.5 1348.7,3866.2 1348.7,1376.2 3209.7,1770.5 	"/>
	<polygon points="3066.7,2063.2 1460.7,1722.9 1460.7,1667.9 3066.7,2008.2 	"/>
	<polygon points="3066.7,2821.2 2279.7,2654.5 2279.7,2002.5 3066.7,2169.2 	"/>
	<polygon points="2538.7,3458.3 1460.7,3229.9 1460.7,2577.9 2538.7,2806.3 	"/>
	<polygon points="2169.7,2022.1 1460.7,1871.9 1460.7,1828.9 2169.7,1979.1 	"/>
	<polygon points="2169.7,2098.1 1460.7,1947.9 1460.7,1936.9 2169.7,2087.1 	"/>
	<polygon points="2169.7,2139.1 1460.7,1988.9 1460.7,1977.9 2169.7,2128.1 	"/>
	<polygon points="2169.7,2180.1 1460.7,2029.9 1460.7,2018.9 2169.7,2169.1 	"/>
	<polygon points="2169.7,2221.1 1460.7,2070.9 1460.7,2059.9 2169.7,2210.1 	"/>
	<polygon points="2169.7,2221.1 1460.7,2070.9 1460.7,2059.9 2169.7,2210.1 	"/>
	<polygon points="2169.7,2262.1 1460.7,2111.9 1460.7,2100.9 2169.7,2251.1 	"/>
	<polygon points="2169.7,2303.1 1460.7,2152.9 1460.7,2141.9 2169.7,2292.1 	"/>
	<polygon points="2169.7,2344.1 1460.7,2193.9 1460.7,2182.9 2169.7,2333.1 	"/>
	<polygon points="2169.7,2344.1 1460.7,2193.9 1460.7,2182.9 2169.7,2333.1 	"/>
	<polygon points="2169.7,2385.1 1460.7,2234.9 1460.7,2223.9 2169.7,2374.1 	"/>
	<polygon points="2169.7,2426.1 1460.7,2275.9 1460.7,2264.9 2169.7,2415.1 	"/>
	<polygon points="2169.7,2467.1 1460.7,2316.9 1460.7,2305.9 2169.7,2456.1 	"/>
	<polygon points="2169.7,2467.1 1460.7,2316.9 1460.7,2305.9 2169.7,2456.1 	"/>
	<polygon points="2169.7,2508.1 1460.7,2357.9 1460.7,2346.9 2169.7,2497.1 	"/>
	<polygon points="2169.7,2549.1 1460.7,2398.9 1460.7,2387.9 2169.7,2538.1 	"/>
	<polygon points="2169.7,2590.1 1460.7,2439.9 1460.7,2428.9 2169.7,2579.1 	"/>
	<polygon points="3055.7,3567.9 3055.7,2915.9 3066.7,2918.2 3066.7,3570.2 	"/>
	<polygon points="3014.7,3559.2 3014.7,2907.2 3025.7,2909.5 3025.7,3561.5 	"/>
	<polygon points="2973.7,3550.5 2973.7,2898.5 2984.7,2900.8 2984.7,3552.8 	"/>
	<polygon points="2932.7,3541.8 2932.7,2889.8 2943.7,2892.1 2943.7,3544.1 	"/>
	<polygon points="2932.7,3541.8 2932.7,2889.8 2943.7,2892.1 2943.7,3544.1 	"/>
	<polygon points="2891.7,3533.1 2891.7,2881.1 2902.7,2883.5 2902.7,3535.5 	"/>
	<polygon points="2850.7,3524.4 2850.7,2872.4 2861.7,2874.8 2861.7,3526.8 	"/>
	<polygon points="2809.7,3515.7 2809.7,2863.7 2820.7,2866.1 2820.7,3518.1 	"/>
	<polygon points="2809.7,3515.7 2809.7,2863.7 2820.7,2866.1 2820.7,3518.1 	"/>
	<polygon points="2768.7,3507.1 2768.7,2855.1 2779.7,2857.4 2779.7,3509.4 	"/>
	<polygon points="2727.7,3498.4 2727.7,2846.4 2738.7,2848.7 2738.7,3500.7 	"/>
	<polygon points="2686.7,3489.7 2686.7,2837.7 2697.7,2840 2697.7,3492 	"/>
	<polygon points="2686.7,3489.7 2686.7,2837.7 2697.7,2840 2697.7,3492 	"/>
	<polygon points="2645.7,3481 2645.7,2829 2656.7,2831.3 2656.7,3483.3 	"/>
	<polygon points="2604.7,3472.3 2604.7,2820.3 2615.7,2822.6 2615.7,3474.6 	"/>
	<polygon points="1524.7,1654.5 1460.7,1640.9 1460.7,1485.9 1524.7,1499.5 	"/>
	<polygon points="1610.7,1672.7 1546.7,1659.1 1546.7,1504.1 1610.7,1517.7 	"/>
	<polygon points="1698.7,1691.4 1634.7,1677.8 1634.7,1522.8 1698.7,1536.4 	"/>
	<polygon points="1784.7,1709.6 1720.7,1696 1720.7,1541 1784.7,1554.6 	"/>
	<polygon points="1872.7,1728.2 1808.7,1714.7 1808.7,1559.7 1872.7,1573.2 	"/>
	<polygon points="1958.7,1746.4 1894.7,1732.9 1894.7,1577.9 1958.7,1591.4 	"/>
	<polygon points="2046.7,1765.1 1982.7,1751.5 1982.7,1596.5 2046.7,1610.1 	"/>
	<polygon points="2132.7,1783.3 2068.7,1769.7 2068.7,1614.7 2132.7,1628.3 	"/>
	<polygon points="2220.7,1802 2156.7,1788.4 2156.7,1633.4 2220.7,1647 	"/>
	<polygon points="2720,1906.7 2688.2,1900 2688.2,1861 2720,1867.7 	"/>
	<polygon points="2762.7,1915.8 2730.9,1909 2730.9,1870 2762.7,1876.8 	"/>
	<polygon points="2806.4,1925 2774.6,1918.3 2774.6,1879.3 2806.4,1886 	"/>
	<polygon points="2849.1,1934.1 2817.3,1927.4 2817.3,1888.4 2849.1,1895.1 	"/>
	<polygon points="2892.9,1943.4 2861.1,1936.6 2861.1,1897.6 2892.9,1904.4 	"/>
	<polygon points="2935.6,1952.4 2903.8,1945.7 2903.8,1906.7 2935.6,1913.4 	"/>
	<polygon points="2979.3,1961.7 2947.5,1954.9 2947.5,1915.9 2979.3,1922.7 	"/>
	<polygon points="3022,1970.7 2990.2,1964 2990.2,1925 3022,1931.7 	"/>
	<polygon points="3065.7,1980 3033.9,1973.3 3033.9,1934.3 3065.7,1941 	"/>
	<polygon points="3066.7,4084.7 1460.7,3744.4 1460.7,3297.9 3066.7,3638.2 	"/>
	<path d="M1753.7,3722L1753.7,3722c-76.2-16.1-138-91-138-167.2v0c0-76.2,61.8-124.9,138-108.8h0c76.2,16.1,138,91,138,167.2v0
		C1891.7,3689.5,1829.9,3738.2,1753.7,3722z"/>
	<polygon points="2100.7,3519.5 1940.5,3763.1 2260.9,3831 	"/>
</g>
<g>
	<polygon class="st4" points="444.1,3567.2 2725.4,4050.6 2725.4,2469.2 444.1,1985.9 	"/>
	<polygon class="st4" points="444.1,3573.3 2725.4,4056.7 2725.4,2475.4 444.1,1992 	"/>
	<polygon class="st4" points="444.1,3579.5 2725.4,4062.8 2725.4,2481.5 444.1,1998.1 	"/>
	<polygon class="st4" points="444.1,3585.6 2725.4,4069 2725.4,2487.6 444.1,2004.3 	"/>
	<polygon class="st4" points="444.1,3591.7 2725.4,4075.1 2725.4,2493.8 444.1,2010.4 	"/>
	<g>
		<polygon class="st0" points="3294.2,3535.7 1012.9,3052.4 1012.9,0 3294.2,483.4 		"/>
		<polygon class="st1" points="3118.9,842.2 1150.2,425 1150.2,357.6 3118.9,774.7 		"/>
		<polygon class="st1" points="3118.9,1771.4 2154.2,1567 2154.2,767.7 3118.9,972.1 		"/>
		<polygon class="st1" points="2471.7,2552.4 1150.2,2272.4 1150.2,1473.1 2471.7,1753.1 		"/>
		<polygon class="st1" points="2019.4,791.8 1150.2,607.7 1150.2,555 2019.4,739.1 		"/>
		<polygon class="st1" points="2019.4,885 1150.2,700.9 1150.2,687.4 2019.4,871.5 		"/>
		<polygon class="st1" points="2019.4,935.3 1150.2,751.1 1150.2,737.6 2019.4,921.8 		"/>
		<polygon class="st1" points="2019.4,985.5 1150.2,801.4 1150.2,787.9 2019.4,972 		"/>
		<polygon class="st1" points="2019.4,1035.8 1150.2,851.6 1150.2,838.2 2019.4,1022.3 		"/>
		<polygon class="st1" points="2019.4,1035.8 1150.2,851.6 1150.2,838.2 2019.4,1022.3 		"/>
		<polygon class="st1" points="2019.4,1086 1150.2,901.9 1150.2,888.4 2019.4,1072.6 		"/>
		<polygon class="st1" points="2019.4,1136.3 1150.2,952.2 1150.2,938.7 2019.4,1122.8 		"/>
		<polygon class="st1" points="2019.4,1186.6 1150.2,1002.4 1150.2,988.9 2019.4,1173.1 		"/>
		<polygon class="st1" points="2019.4,1186.6 1150.2,1002.4 1150.2,988.9 2019.4,1173.1 		"/>
		<polygon class="st1" points="2019.4,1236.8 1150.2,1052.7 1150.2,1039.2 2019.4,1223.3 		"/>
		<polygon class="st1" points="2019.4,1287.1 1150.2,1102.9 1150.2,1089.4 2019.4,1273.6 		"/>
		<polygon class="st1" points="2019.4,1337.3 1150.2,1153.2 1150.2,1139.7 2019.4,1323.9 		"/>
		<polygon class="st1" points="2019.4,1337.3 1150.2,1153.2 1150.2,1139.7 2019.4,1323.9 		"/>
		<polygon class="st1" points="2019.4,1387.6 1150.2,1203.5 1150.2,1190 2019.4,1374.1 		"/>
		<polygon class="st1" points="2019.4,1437.9 1150.2,1253.7 1150.2,1240.2 2019.4,1424.4 		"/>
		<polygon class="st1" points="2019.4,1488.1 1150.2,1304 1150.2,1290.5 2019.4,1474.6 		"/>
		<polygon class="st1" points="3105.5,2686.7 3105.5,1887.4 3118.9,1890.3 3118.9,2689.5 		"/>
		<polygon class="st1" points="3055.2,2676 3055.2,1876.8 3068.7,1879.6 3068.7,2678.9 		"/>
		<polygon class="st1" points="3004.9,2665.4 3004.9,1866.1 3018.4,1869 3018.4,2668.2 		"/>
		<polygon class="st1" points="2954.7,2654.7 2954.7,1855.5 2968.2,1858.3 2968.2,2657.6 		"/>
		<polygon class="st1" points="2954.7,2654.7 2954.7,1855.5 2968.2,1858.3 2968.2,2657.6 		"/>
		<polygon class="st1" points="2904.4,2644.1 2904.4,1844.8 2917.9,1847.7 2917.9,2646.9 		"/>
		<polygon class="st1" points="2854.2,2633.4 2854.2,1834.2 2867.6,1837 2867.6,2636.3 		"/>
		<polygon class="st1" points="2803.9,2622.8 2803.9,1823.5 2817.4,1826.4 2817.4,2625.6 		"/>
		<polygon class="st1" points="2803.9,2622.8 2803.9,1823.5 2817.4,1826.4 2817.4,2625.6 		"/>
		<polygon class="st1" points="2753.6,2612.1 2753.6,1812.9 2767.1,1815.7 2767.1,2615 		"/>
		<polygon class="st1" points="2703.4,2601.5 2703.4,1802.2 2716.9,1805.1 2716.9,2604.3 		"/>
		<polygon class="st1" points="2653.1,2590.8 2653.1,1791.6 2666.6,1794.4 2666.6,2593.7 		"/>
		<polygon class="st1" points="2653.1,2590.8 2653.1,1791.6 2666.6,1794.4 2666.6,2593.7 		"/>
		<polygon class="st1" points="2602.9,2580.2 2602.9,1780.9 2616.3,1783.8 2616.3,2583 		"/>
		<polygon class="st1" points="2552.6,2569.5 2552.6,1770.3 2566.1,1773.1 2566.1,2572.4 		"/>
		<polygon class="st1" points="1228.7,341.1 1150.2,324.5 1150.2,134.5 1228.7,151.1 		"/>
		<polygon class="st1" points="1334.1,363.5 1255.6,346.9 1255.6,156.8 1334.1,173.5 		"/>
		<polygon class="st1" points="1442,386.3 1363.5,369.7 1363.5,179.7 1442,196.3 		"/>
		<polygon class="st1" points="1547.4,408.7 1468.9,392 1468.9,202 1547.4,218.7 		"/>
		<polygon class="st1" points="1655.3,431.5 1576.8,414.9 1576.8,224.9 1655.3,241.5 		"/>
		<polygon class="st1" points="1760.7,453.9 1682.2,437.2 1682.2,247.2 1760.7,263.9 		"/>
		<polygon class="st1" points="1868.6,476.7 1790.1,460.1 1790.1,270.1 1868.6,286.7 		"/>
		<polygon class="st1" points="1974,499.1 1895.5,482.4 1895.5,292.4 1974,309.1 		"/>
		<polygon class="st1" points="2081.9,521.9 2003.4,505.3 2003.4,315.3 2081.9,331.9 		"/>
		<polygon class="st1" points="2693.9,650.4 2654.9,642.1 2654.9,594.3 2693.9,602.6 		"/>
		<polygon class="st1" points="2746.2,661.5 2707.3,653.2 2707.3,605.4 2746.2,613.6 		"/>
		<polygon class="st1" points="2799.8,672.8 2760.9,664.6 2760.9,616.7 2799.8,625 		"/>
		<polygon class="st1" points="2852.2,683.9 2813.2,675.6 2813.2,627.8 2852.2,636.1 		"/>
		<polygon class="st1" points="2905.8,695.3 2866.8,687 2866.8,639.2 2905.8,647.5 		"/>
		<polygon class="st1" points="2958.2,706.4 2919.2,698.1 2919.2,650.3 2958.2,658.5 		"/>
		<polygon class="st1" points="3011.8,717.7 2972.8,709.5 2972.8,661.6 3011.8,669.9 		"/>
		<polygon class="st1" points="3064.1,728.8 3025.1,720.6 3025.1,672.7 3064.1,681 		"/>
		<polygon class="st1" points="3117.7,740.2 3078.7,731.9 3078.7,684.1 3117.7,692.4 		"/>
		<path class="st1" d="M3125.7,3328.5l-8.1-1.7l-1974.1-418.3v-561.1l8.1,1.7l1974.1,418.3V3328.5z M1157,2897.6l1955.2,414.3
			v-533.6L1157,2364.1V2897.6z"/>
		<path class="st1" d="M1509.4,2875.6L1509.4,2875.6c-93.4-19.8-169.2-111.6-169.2-205v0c0-93.4,75.7-153.1,169.2-133.3h0
			c93.4,19.8,169.2,111.6,169.2,205v0C1678.6,2835.7,1602.8,2895.4,1509.4,2875.6z"/>
		<polygon class="st1" points="1934.8,2627.4 1738.4,2926 2131.2,3009.2 		"/>
	</g>
	<polyline class="st5" points="2515.8,3522 2515.2,2273.7 2368.1,2243.1 2368.1,3486.1 	"/>
	<polyline class="st5" points="2526.9,3524.4 2526.2,2276.2 2379.1,2245.5 2379.1,3485.4 	"/>
	<polyline class="st5" points="2539.1,3526.9 2538.5,2278.6 2391.4,2248 2391.4,3490.6 	"/>
	<polyline class="st5" points="2548.9,3530.5 2548.3,2281.1 2401.2,2250.4 2401.2,3496.8 	"/>
	<polyline class="st5" points="2560,3530.5 2559.3,2283.5 2412.2,2252.9 2412.2,3500 	"/>
	<polygon class="st5" points="2355.8,2436.8 2208.7,2406.1 2208.7,4805.1 2357.1,4837 	"/>
	<polygon class="st5" points="2366.9,2439.2 2219.8,2408.6 2219.8,4807.5 2368.1,4839.4 	"/>
	<polygon class="st5" points="2379.1,2441.7 2232,2411 2232,4810 2380.4,4841.9 	"/>
	<polygon class="st5" points="2388.9,2444.1 2241.8,2413.5 2241.8,4812.4 2390.2,4844.3 	"/>
	<polygon class="st4" points="515.2,2946.9 2796.5,3430.3 2796.5,1849 515.2,1365.6 	"/>
	<polygon class="st4" points="521.4,2948.2 2802.7,3431.5 2802.7,1850.2 521.4,1366.8 	"/>
	<polygon class="st4" points="528.7,2949.4 2810,3432.8 2810,1851.4 528.7,1368 	"/>
	<polygon class="st4" points="536.1,2950.6 2817.4,3434 2817.4,1852.6 536.1,1369.3 	"/>
	<polygon class="st4" points="543.4,2951.8 2824.7,3435.2 2824.7,1853.9 543.4,1370.5 	"/>
	<polygon class="st5" points="2400,2446.6 2252.9,2415.9 2252.9,4814.9 2401.2,4846.8 	"/>
	<g>
		<polygon class="st0" points="2281.1,5000 -0.2,4516.6 -0.2,1464.3 2281.1,1947.6 		"/>
		<polygon class="st1" points="2105.8,2306.4 137.1,1889.3 137.1,1821.9 2105.8,2239 		"/>
		<polygon class="st1" points="2105.8,3235.6 1141,3031.2 1141,2232 2105.8,2436.4 		"/>
		<polygon class="st1" points="1458.5,4016.7 137.1,3736.7 137.1,2937.4 1458.5,3217.4 		"/>
		<polygon class="st1" points="1006.2,2256.1 137.1,2072 137.1,2019.3 1006.2,2203.4 		"/>
		<polygon class="st1" points="1006.2,2349.3 137.1,2165.1 137.1,2151.6 1006.2,2335.8 		"/>
		<polygon class="st1" points="1006.2,2399.5 137.1,2215.4 137.1,2201.9 1006.2,2386.1 		"/>
		<polygon class="st1" points="1006.2,2449.8 137.1,2265.7 137.1,2252.2 1006.2,2436.3 		"/>
		<polygon class="st1" points="1006.2,2500.1 137.1,2315.9 137.1,2302.4 1006.2,2486.6 		"/>
		<polygon class="st1" points="1006.2,2500.1 137.1,2315.9 137.1,2302.4 1006.2,2486.6 		"/>
		<polygon class="st1" points="1006.2,2550.3 137.1,2366.2 137.1,2352.7 1006.2,2536.8 		"/>
		<polygon class="st1" points="1006.2,2600.6 137.1,2416.4 137.1,2402.9 1006.2,2587.1 		"/>
		<polygon class="st1" points="1006.2,2650.8 137.1,2466.7 137.1,2453.2 1006.2,2637.4 		"/>
		<polygon class="st1" points="1006.2,2650.8 137.1,2466.7 137.1,2453.2 1006.2,2637.4 		"/>
		<polygon class="st1" points="1006.2,2701.1 137.1,2516.9 137.1,2503.5 1006.2,2687.6 		"/>
		<polygon class="st1" points="1006.2,2751.4 137.1,2567.2 137.1,2553.7 1006.2,2737.9 		"/>
		<polygon class="st1" points="1006.2,2801.6 137.1,2617.5 137.1,2604 1006.2,2788.1 		"/>
		<polygon class="st1" points="1006.2,2801.6 137.1,2617.5 137.1,2604 1006.2,2788.1 		"/>
		<polygon class="st1" points="1006.2,2851.9 137.1,2667.7 137.1,2654.2 1006.2,2838.4 		"/>
		<polygon class="st1" points="1006.2,2902.1 137.1,2718 137.1,2704.5 1006.2,2888.7 		"/>
		<polygon class="st1" points="1006.2,2952.4 137.1,2768.2 137.1,2754.8 1006.2,2938.9 		"/>
		<polygon class="st1" points="2092.3,4150.9 2092.3,3351.7 2105.8,3354.5 2105.8,4153.8 		"/>
		<polygon class="st1" points="2042,4140.3 2042,3341 2055.5,3343.9 2055.5,4143.1 		"/>
		<polygon class="st1" points="1991.8,4129.6 1991.8,3330.4 2005.3,3333.2 2005.3,4132.5 		"/>
		<polygon class="st1" points="1941.5,4119 1941.5,3319.7 1955,3322.6 1955,4121.9 		"/>
		<polygon class="st1" points="1941.5,4119 1941.5,3319.7 1955,3322.6 1955,4121.9 		"/>
		<polygon class="st1" points="1891.3,4108.3 1891.3,3309.1 1904.7,3311.9 1904.7,4111.2 		"/>
		<polygon class="st1" points="1841,4097.7 1841,3298.4 1854.5,3301.3 1854.5,4100.6 		"/>
		<polygon class="st1" points="1790.7,4087 1790.7,3287.8 1804.2,3290.7 1804.2,4089.9 		"/>
		<polygon class="st1" points="1790.7,4087 1790.7,3287.8 1804.2,3290.7 1804.2,4089.9 		"/>
		<polygon class="st1" points="1740.5,4076.4 1740.5,3277.1 1754,3280 1754,4079.3 		"/>
		<polygon class="st1" points="1690.2,4065.7 1690.2,3266.5 1703.7,3269.4 1703.7,4068.6 		"/>
		<polygon class="st1" points="1640,4055.1 1640,3255.8 1653.4,3258.7 1653.4,4058 		"/>
		<polygon class="st1" points="1640,4055.1 1640,3255.8 1653.4,3258.7 1653.4,4058 		"/>
		<polygon class="st1" points="1589.7,4044.5 1589.7,3245.2 1603.2,3248.1 1603.2,4047.3 		"/>
		<polygon class="st1" points="1539.4,4033.8 1539.4,3234.5 1552.9,3237.4 1552.9,4036.7 		"/>
		<polygon class="st1" points="215.5,1805.4 137.1,1788.8 137.1,1598.8 215.5,1615.4 		"/>
		<polygon class="st1" points="320.9,1827.8 242.5,1811.1 242.5,1621.1 320.9,1637.7 		"/>
		<polygon class="st1" points="428.8,1850.6 350.4,1834 350.4,1644 428.8,1660.6 		"/>
		<polygon class="st1" points="534.2,1872.9 455.8,1856.3 455.8,1666.3 534.2,1682.9 		"/>
		<polygon class="st1" points="642.1,1895.8 563.7,1879.2 563.7,1689.2 642.1,1705.8 		"/>
		<polygon class="st1" points="747.5,1918.1 669.1,1901.5 669.1,1711.5 747.5,1728.1 		"/>
		<polygon class="st1" points="855.4,1941 777,1924.4 777,1734.4 855.4,1751 		"/>
		<polygon class="st1" points="960.8,1963.3 882.4,1946.7 882.4,1756.7 960.8,1773.3 		"/>
		<polygon class="st1" points="1068.7,1986.2 990.3,1969.6 990.3,1779.6 1068.7,1796.2 		"/>
		<polygon class="st1" points="1680.7,2114.6 1641.7,2106.4 1641.7,2058.6 1680.7,2066.8 		"/>
		<polygon class="st1" points="1733.1,2125.7 1694.1,2117.5 1694.1,2069.7 1733.1,2077.9 		"/>
		<polygon class="st1" points="1786.7,2137.1 1747.7,2128.8 1747.7,2081 1786.7,2089.3 		"/>
		<polygon class="st1" points="1839,2148.2 1800.1,2139.9 1800.1,2092.1 1839,2100.4 		"/>
		<polygon class="st1" points="1892.6,2159.5 1853.7,2151.3 1853.7,2103.5 1892.6,2111.7 		"/>
		<polygon class="st1" points="1945,2170.6 1906,2162.4 1906,2114.6 1945,2122.8 		"/>
		<polygon class="st1" points="1998.6,2182 1959.6,2173.7 1959.6,2125.9 1998.6,2134.2 		"/>
		<polygon class="st1" points="2051,2193.1 2012,2184.8 2012,2137 2051,2145.3 		"/>
		<polygon class="st1" points="2104.5,2204.4 2065.6,2196.2 2065.6,2148.4 2104.5,2156.6 		"/>
		<path class="st1" d="M2112.5,4792.8l-8.1-1.7L130.3,4372.8v-561.1l8.1,1.7l1974.1,418.3V4792.8z M143.8,4361.9L2099,4776.2v-533.6
			L143.8,3828.3V4361.9z"/>
		<path class="st1" d="M496.2,4339.9L496.2,4339.9c-93.4-19.8-169.2-111.6-169.2-205v0c0-93.4,75.7-153.1,169.2-133.3h0
			c93.4,19.8,169.2,111.6,169.2,205l0,0C665.4,4300,589.7,4359.7,496.2,4339.9z"/>
		<polygon class="st1" points="921.6,4091.7 725.2,4390.2 1118,4473.5 		"/>
	</g>
	<polyline class="st6" points="2575.9,1650.4 2281.1,1953.8 2576.5,1651 291.7,1172.7 -0.2,1464.7 2281.1,1953.8 	"/>
	<polygon class="st7" points="2281.1,5000 2576.5,4704.6 2574.7,1649.1 2281.1,1953.8 	"/>
	<path class="st7" d="M2577.1,1651.6"/>
</g>
</svg>
