<?xml version="1.0" encoding="utf-8"?>
<!-- Generator: Adobe Illustrator 22.1.0, SVG Export Plug-In . SVG Version: 6.00 Build 0)  -->
<svg version="1.1" id="レイヤー_1" xmlns="http://www.w3.org/2000/svg" xmlns:xlink="http://www.w3.org/1999/xlink" x="0px"
	 y="0px" viewBox="0 0 2906.7 5000" style="enable-background:new 0 0 2906.7 5000;" xml:space="preserve">
<style type="text/css">
	.st0{fill:#228BAF;}
	.st1{fill:#FFFFFF;}
	.st2{fill:#F2F2F2;}
	.st3{fill:#E6E6E6;}
	.st4{fill:#CCCCCC;}
	.st5{fill:#29ABE2;}
	.st6{fill:#B3B3B3;}
	.st7{fill:#33CAFF;}
	.st8{clip-path:url(#SVGID_2_);}
</style>
<g>
	<g>
		<path class="st0" d="M541.6,2.1v361.2c0,55.2,44.8,108.9,100,119.8L2806.4,911c55.2,10.9,100-25,100-80.2V469.5L541.6,2.1z"/>
	</g>
	<g>
		<polygon class="st1" points="2869.8,3354.2 505,2886.8 505,53.4 2869.8,520.7 		"/>
	</g>
	<g>
		<polygon class="st1" points="2547.7,3610.4 182.8,3143.1 182.8,309.6 2547.7,777 		"/>
	</g>
	<g>
		<path class="st2" d="M2547.7,1254.4c-18.1,14.5-43.1,20.8-70.7,15.3L312.1,841.9c-55.2-10.9-100-64.5-100-119.8V323.6
			l2335.6,468.6"/>
	</g>
	<g>
		<path class="st3" d="M2547.7,1247.1c-18.1,14.5-43.1,20.8-70.7,15.3L312.1,834.6c-55.2-10.9-100-64.5-100-119.8V316.3
			l2335.6,468.6"/>
	</g>
	<g>
		<path class="st4" d="M2547.7,1239.7c-18.1,14.5-43.1,20.8-70.7,15.3L312.1,827.2c-55.2-10.9-100-64.5-100-119.8V309l2335.6,468.6"
			/>
	</g>
	<polygon class="st5" points="2181.6,2955.3 629.4,2648.6 629.4,2604.6 2181.6,2911.4 	"/>
	<polygon class="st6" points="2869.8,520.7 2547.7,777.6 2492.6,770.3 2848.7,516.5 	"/>
	<g>
		<g>
			<path class="st5" d="M1676.4,2595.9l-668.9-132.2l265.5-301.8c30.2-34.3,55.6-65.3,76.1-92.9c20.5-27.6,36.7-52.4,48.5-74.4
				c23.1-41.2,34.6-85.9,34.6-134.1c0-26.4-5.5-48.5-16.4-66.2c-10.9-17.7-25.8-28.4-44.7-32.1c-42-8.3-62.9,27-62.9,105.9
				c0,4.2,0.1,9.3,0.3,15.2c0.2,5.9,0.5,12.9,0.9,20.9l-254.8-50.4l-1.3-35.5c0-97.7,30.2-171.9,90.6-222.5
				c60.8-50.9,138.6-67,233.4-48.3c91.4,18.1,166.1,62.6,224,133.6c58.3,69.8,87.5,151.7,87.5,245.7c0,75.5-19.9,145-59.8,208.4
				c-20.1,31.7-46.2,64-78.3,96.8c-32.1,32.9-71,66.4-116.7,100.6c39.4,4.9,79.2,10.6,119.2,17.3c40.1,6.7,81.1,14.1,123,22.4
				V2595.9z"/>
		</g>
	</g>
	<polygon class="st7" points="2533,770.3 2906.4,470.1 541.6,1.5 168.2,301.7 	"/>
	<g>
		<path class="st5" d="M2533,769.6v361.2c0,55.2-44.8,91.2-100,80.2L268.2,783.3c-55.2-10.9-100-64.5-100-119.8V302.3L2533,769.6z"
			/>
	</g>
	<g>
		<defs>
			<polygon id="SVGID_1_" points="2547.7,3610.4 182.8,3143.1 182.8,309.6 2547.7,777 			"/>
		</defs>
		<clipPath id="SVGID_2_">
			<use xlink:href="#SVGID_1_"  style="overflow:visible;"/>
		</clipPath>
		<g class="st8">
			<polyline class="st2" points="2547.7,5273.9 212.1,4812.4 212.1,1978.9 2547.7,2440.5 			"/>
		</g>
		<g class="st8">
			<polygon class="st3" points="2503.7,5265.1 138.9,4797.7 138.9,1964.3 2503.7,2431.6 			"/>
		</g>
		<g class="st8">
			<polyline class="st4" points="2467.1,3614.7 2467.1,5257.8 102.3,4790.4 102.3,1957 2467.1,2424.3 2467.1,3614.7 			"/>
		</g>
	</g>
	<g>
		<polygon class="st1" points="2364.6,5001.5 -0.2,4534.2 -0.2,1700.7 2364.6,2168.1 		"/>
	</g>
	<g>
		<polyline class="st4" points="2547.7,3611 2869.8,3354.8 2869.8,520.7 2547.7,777.6 2547.7,3611 		"/>
	</g>
	<g>
		<g>
			<path class="st5" d="M1332.2,3927l-262.4-51.9V3132l-105.1-20.8v-228.4l367.5,72.6V3927z"/>
		</g>
	</g>
	<polygon class="st5" points="1976.6,4302.5 424.4,3995.7 424.4,3951.8 1976.6,4258.6 	"/>
</g>
</svg>
