<?xml version="1.0" encoding="utf-8"?>
<!-- Generator: Adobe Illustrator 22.1.0, SVG Export Plug-In . SVG Version: 6.00 Build 0)  -->
<svg version="1.1" id="レイヤー_1" xmlns="http://www.w3.org/2000/svg" xmlns:xlink="http://www.w3.org/1999/xlink" x="0px"
	 y="0px" viewBox="0 0 5000 1160.9" style="enable-background:new 0 0 5000 1160.9;" xml:space="preserve">
<style type="text/css">
	.st0{fill:#FFFFFF;}
</style>
<g>
	<g>
		<path class="st0" d="M1572.8,538c0,37-32.2,65.6-69,61.5c-4.7-0.5-9.5-0.8-14.2-0.8c-15.2,0-29.3,2.6-42.5,7.9
			s-24.7,12.7-34.6,22.3c-9.9,9.6-17.7,21-23.2,34.2c-5.6,13.1-8.3,27.9-8.3,44.2c0,15.8,2.8,30.2,8.3,43.4
			c5.5,13.1,13.1,24.5,22.8,34.2c9.6,9.6,21.2,17.1,34.6,22.3c13.4,5.3,27.7,7.9,42.9,7.9c4.7,0,9.3-0.3,13.9-0.8
			c36.9-4.1,69.3,24.3,69.3,61.4v0c0,27.7-18.4,52.2-45.1,59.6c-22.8,6.3-44.8,9.4-66.1,9.4c-32.7,0-63.8-5.6-93.3-16.6
			c-29.5-11.1-55.5-27-77.9-47.7c-22.5-20.7-40.4-45.5-53.9-74.4c-13.4-28.9-20.1-61.2-20.1-96.8c0-35.6,6.4-68.2,19.3-97.6
			c12.8-29.5,30.4-54.9,52.5-76.2c22.2-21.3,48.6-37.9,79.3-49.9c30.7-12,63.5-18,98.5-18c21,0,41.1,2.4,60.3,7.3
			c27.4,6.9,46.5,31.7,46.5,59.9V538z"/>
		<path class="st0" d="M2001.7,481.3h132.1c7.5,0,13.7,6.1,13.7,13.7v421.9c0,7.5-6.1,13.7-13.7,13.7h-132.1
			c-7.5,0-13.7-6.1-13.7-13.7v-2.2c0-11.8-13.8-18-22.7-10.2c-30.8,26.7-69,40.1-114.8,40.1c-32.7,0-62.8-6-90.2-18
			c-27.4-12-51.4-28.7-71.8-50.4c-20.4-21.6-36.3-47-47.7-76.2c-11.4-29.2-17.1-61-17.1-95.5c0-32.1,5.5-62.6,16.6-91.5
			c11.1-28.9,26.6-54.1,46.4-75.8c19.8-21.6,43.5-38.7,70.9-51.2c27.4-12.5,57.8-18.8,91.1-18.8c45.4,0,84.5,12.8,117.2,38.5
			c8.9,7,22,0.5,22-10.8v0C1988,487.4,1994.2,481.3,2001.7,481.3z M1788.4,704.6c0,14.6,2.6,28.2,7.9,40.7
			c5.3,12.6,12.4,23.5,21.5,32.8c9,9.3,19.8,16.6,32.4,21.9c12.5,5.3,26.1,7.9,40.7,7.9c14,0,27.3-2.6,39.8-7.9
			c12.5-5.3,23.3-12.5,32.4-21.9c9-9.3,16.3-20.1,21.9-32.4c5.5-12.3,8.3-25.4,8.3-39.4c0-14-2.8-27.3-8.3-39.8
			c-5.6-12.5-12.8-23.5-21.9-32.8c-9.1-9.3-19.9-16.6-32.4-21.9c-12.6-5.3-25.8-7.9-39.8-7.9c-14.6,0-28.2,2.6-40.7,7.9
			c-12.6,5.3-23.4,12.6-32.4,21.9c-9.1,9.3-16.2,20-21.5,32C1791,677.6,1788.4,690.6,1788.4,704.6z"/>
		<path class="st0" d="M2254.3,481.3h124.2c9.5,0,17.1,7.7,17.1,17.1v7.7c0,15.2,18.3,22.9,29.1,12.3c10.1-9.9,21.1-18.3,33.1-25.3
			c24.5-14.3,53.1-21.5,85.8-21.5c4.1,0,8.6,0,13.6,0c0,0,0.1,0,0.1,0c9.4,0,16.9,7.8,16.9,17.1v110.8c0,11.5-11.2,19.8-22.1,16.4
			c-14.6-4.6-30-6.8-46.2-6.8c-36.8,0-64.4,10.9-82.8,32.8c-18.4,21.9-27.6,53.9-27.6,95.9v175.5c0,9.5-7.7,17.1-17.1,17.1h-124.2
			c-9.5,0-17.1-7.7-17.1-17.1v-415C2237.1,489,2244.8,481.3,2254.3,481.3z"/>
		<path class="st0" d="M2787.5,487.1l95.1,204.9c3.6,7.8,14.6,7.8,18.3,0.1l96.7-205.1c1.7-3.5,5.2-5.8,9.1-5.8h153.9
			c7.6,0,12.4,8,8.9,14.7l-223.3,429.1c-1.7,3.3-5.2,5.4-8.9,5.4h-93.7c-3.8,0-7.2-2.1-9-5.5L2613.7,496c-3.5-6.7,1.4-14.7,9-14.7
			h155.7C2782.3,481.3,2785.9,483.6,2787.5,487.1z"/>
		<path class="st0" d="M3561.1,481.3h132.1c7.5,0,13.7,6.1,13.7,13.7v421.9c0,7.5-6.1,13.7-13.7,13.7h-132.1
			c-7.5,0-13.7-6.1-13.7-13.7v-2.2c0-11.8-13.8-18-22.7-10.2c-30.8,26.7-69,40.1-114.8,40.1c-32.7,0-62.8-6-90.2-18
			c-27.5-12-51.4-28.7-71.8-50.4c-20.4-21.6-36.3-47-47.7-76.2c-11.4-29.2-17.1-61-17.1-95.5c0-32.1,5.5-62.6,16.6-91.5
			c11.1-28.9,26.6-54.1,46.4-75.8c19.8-21.6,43.5-38.7,70.9-51.2c27.4-12.5,57.8-18.8,91.1-18.8c45.4,0,84.5,12.8,117.2,38.5
			c8.9,7,22,0.5,22-10.8v0C3547.4,487.4,3553.6,481.3,3561.1,481.3z M3347.8,704.6c0,14.6,2.6,28.2,7.9,40.7
			c5.3,12.6,12.4,23.5,21.5,32.8c9,9.3,19.8,16.6,32.4,21.9c12.5,5.3,26.1,7.9,40.7,7.9c14,0,27.3-2.6,39.8-7.9
			c12.5-5.3,23.3-12.5,32.4-21.9c9-9.3,16.3-20.1,21.9-32.4c5.5-12.3,8.3-25.4,8.3-39.4c0-14-2.8-27.3-8.3-39.8
			c-5.6-12.5-12.8-23.5-21.9-32.8c-9.1-9.3-19.9-16.6-32.4-21.9c-12.6-5.3-25.8-7.9-39.8-7.9c-14.6,0-28.2,2.6-40.7,7.9
			c-12.6,5.3-23.4,12.6-32.4,21.9c-9.1,9.3-16.2,20-21.5,32C3350.4,677.6,3347.8,690.6,3347.8,704.6z"/>
		<path class="st0" d="M3839.5,481.3h125.8c9,0,16.3,7.3,16.3,16.3v0c0,14.1,16.5,21.5,27.1,12.3c12.8-11.2,25.6-19.4,38.6-24.7
			c22.2-9,48.2-13.6,77.9-13.6c31.5,0,58.5,5.1,81,15.3c22.5,10.2,41.6,24.7,57.4,43.4c12.8,15.2,21.6,32.1,26.3,50.8
			c4.7,18.7,7,40,7,63.9v269.2c0,9-7.3,16.3-16.3,16.3h-125.8c-9,0-16.3-7.3-16.3-16.3V703.7c0-22.2-1.6-40.1-4.8-53.9
			c-3.2-13.7-8.9-24.7-17.1-32.8c-7-7-14.9-12-23.6-14.9c-8.8-2.9-18.1-4.4-28-4.4c-26.9,0-47.4,8-61.7,24.1
			c-14.3,16.1-21.5,39-21.5,68.7v223.6c0,9-7.3,16.3-16.3,16.3h-125.8c-9,0-16.3-7.3-16.3-16.3V497.6
			C3823.2,488.6,3830.5,481.3,3839.5,481.3z"/>
		<path class="st0" d="M4725.8,538c0,37-32.2,65.6-69,61.5c-4.7-0.5-9.5-0.8-14.2-0.8c-15.2,0-29.3,2.6-42.5,7.9
			s-24.7,12.7-34.6,22.3c-9.9,9.6-17.7,21-23.2,34.2c-5.6,13.1-8.3,27.9-8.3,44.2c0,15.8,2.8,30.2,8.3,43.4
			c5.5,13.1,13.1,24.5,22.8,34.2s21.2,17.1,34.6,22.3c13.4,5.3,27.7,7.9,42.9,7.9c4.7,0,9.3-0.3,13.9-0.8
			c36.9-4.1,69.3,24.3,69.3,61.4v0c0,27.7-18.4,52.2-45.1,59.6c-22.8,6.3-44.8,9.4-66.1,9.4c-32.7,0-63.8-5.6-93.3-16.6
			c-29.5-11.1-55.5-27-77.9-47.7c-22.5-20.7-40.4-45.5-53.9-74.4c-13.4-28.9-20.1-61.2-20.1-96.8c0-35.6,6.4-68.2,19.3-97.6
			c12.8-29.5,30.3-54.9,52.5-76.2c22.2-21.3,48.6-37.9,79.3-49.9c30.7-12,63.5-18,98.5-18c21,0,41.1,2.4,60.3,7.3
			c27.4,6.9,46.5,31.7,46.5,59.9V538z"/>
		<path class="st0" d="M4898.1,203.7c37.2,0,67.3,30.1,67.3,67.3v440.1c0,54.7,0.9,60.3,24.8,60.9c2.8,0.1,6,0.1,9.5,0.1l0.3,91.1
			c0,37.2-30.2,67.4-67.4,67.3l0,0c-126,1.7-126.9-76.5-125.7-158.4V271c0-37.2,30.1-67.3,67.3-67.3H4898.1z"/>
		<path class="st0" d="M716.8,38.5L625.1,166c-11-13.6-22.5-27.2-29.7-35.4C339.8-137.6,0,51.4,0,297.9
			c0,172.7,50.8,216.7,625.9,862.9L1392.4,36.9L716.8,38.5z"/>
	</g>
</g>
</svg>
