<?xml version="1.0" encoding="utf-8"?>
<!-- Generator: Adobe Illustrator 22.1.0, SVG Export Plug-In . SVG Version: 6.00 Build 0)  -->
<svg version="1.1" id="レイヤー_1" xmlns="http://www.w3.org/2000/svg" xmlns:xlink="http://www.w3.org/1999/xlink" x="0px"
	 y="0px" viewBox="0 0 2798.8 5000" style="enable-background:new 0 0 2798.8 5000;" xml:space="preserve">
<style type="text/css">
	.st0{fill:#2E3163;}
	.st1{fill:#2E3192;}
	.st2{fill:#FAECB2;}
	.st3{opacity:0.8;fill:#FAECB2;}
	.st4{opacity:0.6;fill:#FAECB2;}
	.st5{opacity:0.4;fill:#FAECB2;}
	.st6{opacity:0.2;fill:#FAECB2;}
</style>
<g>
	<path class="st0" d="M1363.2,4132.7L805.9,4690c-0.1,0-0.1-521.4-0.1-521.4c0-172.5,141.2-283.4,313.7-246.2l-0.2,0
		c98.2,21.1,186.2,85.8,243.9,169.4C1363.2,4091.7,1363.2,4132.7,1363.2,4132.7z"/>
	<path class="st0" d="M1193.3,159.9c106.9-128.3,283.1-189.2,482.4-146.3l-0.2,0c326,70.1,590.2,391.2,590.2,717.2l0,1.8L2794,846.2
		v483.1v3111.4L2236.7,4998V1886.6v-483.1l-528.3-113.6l0-1.8c0-326-264.3-647.1-590.2-717.2l0.2,0
		c-326-70.1-590.2,137.3-590.2,463.3l0.1,1.8L0,922.4l557.3-557.3l354.1,76.2"/>
	<path class="st1" d="M2236.8,1403.9l-528.3-113.6l0-1.8c0-326-264.3-647.1-590.2-717.2l0.2,0c-326-70.1-590.2,137.3-590.2,463.3
		l0.1,1.8L0.1,922.7v3594.5l804.8,173.1c-0.1,0-0.1-521.4-0.1-521.4c0-172.5,141.2-283.4,313.7-246.2l-0.2,0
		c172.5,37.1,313.7,208.7,313.7,381.2c0,0,0,521.4,0,521.4l804.7,173.1V1887V1403.9z"/>
	<path class="st2" d="M940.7,2794.2c-75.6-16.3-136.8-90.7-136.8-166.3v-133.5c0-75.6,61.3-123.7,136.8-107.4
		c75.6,16.3,136.8,90.7,136.8,166.3v133.5C1077.6,2762.4,1016.3,2810.4,940.7,2794.2z"/>
	<path class="st0" d="M1298.8,2871.2c-75.6-16.3-136.8-90.7-136.8-166.3v-133.5c0-75.6,61.3-123.7,136.8-107.4
		s136.8,90.7,136.8,166.3v133.5C1435.7,2839.4,1374.4,2887.5,1298.8,2871.2z"/>
	<path class="st0" d="M1657,2948.3c-75.6-16.3-136.8-90.7-136.8-166.3v-133.5c0-75.6,61.3-123.7,136.8-107.4
		c75.6,16.3,136.8,90.7,136.8,166.3v133.5C1793.8,2916.4,1732.5,2964.5,1657,2948.3z"/>
	<path class="st2" d="M575.1,2715.5c-75.6-16.3-136.8-90.7-136.8-166.3v-133.5c0-75.6,61.3-123.7,136.8-107.4
		c75.6,16.3,136.8,90.7,136.8,166.3v133.5C712,2683.7,650.7,2731.8,575.1,2715.5z"/>
	<path class="st2" d="M576.9,2715.9c-75.6-16.3-136.8-90.7-136.8-166.3v-133.5c0-75.6,61.3-123.7,136.8-107.4
		c75.6,16.3,136.8,90.7,136.8,166.3v133.5C713.8,2684.1,652.5,2732.2,576.9,2715.9z"/>
	<path class="st0" d="M940.7,2120.4c-75.6-16.3-136.8-90.7-136.8-166.3v-133.5c0-75.6,61.3-123.7,136.8-107.4
		s136.8,90.7,136.8,166.3V2013C1077.6,2088.5,1016.3,2136.6,940.7,2120.4z"/>
	<path class="st2" d="M1298.8,2197.4c-75.6-16.3-136.8-90.7-136.8-166.3v-133.5c0-75.6,61.3-123.7,136.8-107.4
		s136.8,90.7,136.8,166.3V2090C1435.7,2165.6,1374.4,2213.7,1298.8,2197.4z"/>
	<g>
		<path class="st2" d="M1657,2274.4c-75.6-16.3-136.8-90.7-136.8-166.3v-133.5c0-75.6,61.3-123.7,136.8-107.4
			c75.6,16.3,136.8,90.7,136.8,166.3V2167C1793.8,2242.6,1732.5,2290.7,1657,2274.4z"/>
		<path class="st3" d="M1647.3,2284.1c-75.6-16.3-136.8-90.7-136.8-166.3v-133.5c0-75.6,61.3-123.7,136.8-107.4
			c75.6,16.3,136.8,90.7,136.8,166.3v133.5C1784.1,2252.3,1722.9,2300.4,1647.3,2284.1z"/>
		<path class="st4" d="M1632.8,2298.6c-75.6-16.3-136.8-90.7-136.8-166.3v-133.5c0-75.6,61.3-123.7,136.8-107.4
			c75.6,16.3,136.8,90.7,136.8,166.3v133.5C1769.6,2266.8,1708.4,2314.9,1632.8,2298.6z"/>
		<path class="st5" d="M1618.3,2313.1c-75.6-16.3-136.8-90.7-136.8-166.3v-133.5c0-75.6,61.3-123.7,136.8-107.4
			c75.6,16.3,136.8,90.7,136.8,166.3v133.5C1755.1,2281.3,1693.9,2329.4,1618.3,2313.1z"/>
		<path class="st6" d="M1603.8,2327.6c-75.6-16.3-136.8-90.7-136.8-166.3v-133.5c0-75.6,61.3-123.7,136.8-107.4
			c75.6,16.3,136.8,90.7,136.8,166.3v133.5C1740.6,2295.8,1679.3,2343.9,1603.8,2327.6z"/>
	</g>
	<g>
		<path class="st2" d="M1298.8,2197.4c-75.6-16.3-136.8-90.7-136.8-166.3v-133.5c0-75.6,61.3-123.7,136.8-107.4
			s136.8,90.7,136.8,166.3V2090C1435.7,2165.6,1374.4,2213.7,1298.8,2197.4z"/>
		<path class="st3" d="M1289.2,2207.1c-75.6-16.3-136.8-90.7-136.8-166.3v-133.5c0-75.6,61.3-123.7,136.8-107.4
			s136.8,90.7,136.8,166.3v133.5C1426,2175.2,1364.7,2223.3,1289.2,2207.1z"/>
		<path class="st4" d="M1274.7,2221.6c-75.6-16.3-136.8-90.7-136.8-166.3v-133.5c0-75.6,61.3-123.7,136.8-107.4
			s136.8,90.7,136.8,166.3v133.5C1411.5,2189.7,1350.2,2237.8,1274.7,2221.6z"/>
		<path class="st5" d="M1260.2,2236.1c-75.6-16.3-136.8-90.7-136.8-166.3v-133.5c0-75.6,61.3-123.7,136.8-107.4
			s136.8,90.7,136.8,166.3v133.5C1397,2204.3,1335.7,2252.3,1260.2,2236.1z"/>
		<path class="st6" d="M1245.6,2250.6c-75.6-16.3-136.8-90.7-136.8-166.3v-133.5c0-75.6,61.3-123.7,136.8-107.4
			c75.6,16.3,136.8,90.7,136.8,166.3v133.5C1382.5,2218.8,1321.2,2266.8,1245.6,2250.6z"/>
	</g>
	<path class="st2" d="M575.1,2041.7c-75.6-16.3-136.8-90.7-136.8-166.3v-133.5c0-75.6,61.3-123.7,136.8-107.4S712,1725.2,712,1800.8
		v133.5C712,2009.9,650.7,2058,575.1,2041.7z"/>
	<path class="st2" d="M940.7,3468c-75.6-16.3-136.8-90.7-136.8-166.3v-133.5c0-75.6,61.3-123.7,136.8-107.4
		c75.6,16.3,136.8,90.7,136.8,166.3v133.5C1077.6,3436.2,1016.3,3484.3,940.7,3468z"/>
	<path class="st0" d="M1298.8,3545c-75.6-16.3-136.8-90.7-136.8-166.3v-133.5c0-75.6,61.3-123.7,136.8-107.4
		c75.6,16.3,136.8,90.7,136.8,166.3v133.5C1435.7,3513.2,1374.4,3561.3,1298.8,3545z"/>
	<path class="st2" d="M1657,3622.1c-75.6-16.3-136.8-90.7-136.8-166.3v-133.5c0-75.6,61.3-123.7,136.8-107.4
		c75.6,16.3,136.8,90.7,136.8,166.3v133.5C1793.8,3590.2,1732.5,3638.3,1657,3622.1z"/>
	<path class="st2" d="M575.1,3389.4c-75.6-16.3-136.8-90.7-136.8-166.3v-133.5c0-75.6,61.3-123.7,136.8-107.4
		c75.6,16.3,136.8,90.7,136.8,166.3V3282C712,3357.5,650.7,3405.6,575.1,3389.4z"/>
	<path class="st2" d="M576.9,3389.8c-75.6-16.3-136.8-90.7-136.8-166.3V3090c0-75.6,61.3-123.7,136.8-107.4
		c75.6,16.3,136.8,90.7,136.8,166.3v133.5C713.8,3357.9,652.5,3406,576.9,3389.8z"/>
	<polygon class="st0" points="2237.9,1403.9 2797.2,844.5 2798.8,4440.7 2239.5,5000 	"/>
	<g>
		<path class="st2" d="M575.1,2041.1c-75.6-16.3-136.8-90.7-136.8-166.3v-133.5c0-75.6,61.3-123.7,136.8-107.4
			S712,1724.6,712,1800.1v133.5C712,2009.2,650.7,2057.3,575.1,2041.1z"/>
		<path class="st3" d="M565.5,2050.7c-75.6-16.3-136.8-90.7-136.8-166.3V1751c0-75.6,61.3-123.7,136.8-107.4s136.8,90.7,136.8,166.3
			v133.5C702.3,2018.9,641,2067,565.5,2050.7z"/>
		<path class="st4" d="M550.9,2065.3c-75.6-16.3-136.8-90.7-136.8-166.3v-133.5c0-75.6,61.3-123.7,136.8-107.4
			s136.8,90.7,136.8,166.3v133.5C687.8,2033.4,626.5,2081.5,550.9,2065.3z"/>
		<path class="st5" d="M536.4,2079.8c-75.6-16.3-136.8-90.7-136.8-166.3V1780c0-75.6,61.3-123.7,136.8-107.4s136.8,90.7,136.8,166.3
			v133.5C673.3,2047.9,612,2096,536.4,2079.8z"/>
		<path class="st6" d="M521.9,2094.3c-75.6-16.3-136.8-90.7-136.8-166.3v-133.5c0-75.6,61.3-123.7,136.8-107.4
			c75.6,16.3,136.8,90.7,136.8,166.3v133.5C658.8,2062.4,597.5,2110.5,521.9,2094.3z"/>
	</g>
	<g>
		<path class="st2" d="M940.7,2794.2c-75.6-16.3-136.8-90.7-136.8-166.3v-133.5c0-75.6,61.3-123.7,136.8-107.4
			c75.6,16.3,136.8,90.7,136.8,166.3v133.5C1077.6,2762.4,1016.3,2810.4,940.7,2794.2z"/>
		<path class="st3" d="M931,2803.9c-75.6-16.3-136.8-90.7-136.8-166.3v-133.5c0-75.6,61.3-123.7,136.8-107.4
			c75.6,16.3,136.8,90.7,136.8,166.3v133.5C1067.9,2772,1006.6,2820.1,931,2803.9z"/>
		<path class="st4" d="M916.5,2818.4c-75.6-16.3-136.8-90.7-136.8-166.3v-133.5c0-75.6,61.3-123.7,136.8-107.4
			c75.6,16.3,136.8,90.7,136.8,166.3V2711C1053.4,2786.5,992.1,2834.6,916.5,2818.4z"/>
		<path class="st5" d="M902,2832.9c-75.6-16.3-136.8-90.7-136.8-166.3v-133.5c0-75.6,61.3-123.7,136.8-107.4
			c75.6,16.3,136.8,90.7,136.8,166.3v133.5C1038.9,2801.1,977.6,2849.1,902,2832.9z"/>
		<path class="st6" d="M887.5,2847.4c-75.6-16.3-136.8-90.7-136.8-166.3v-133.5c0-75.6,61.3-123.7,136.8-107.4
			c75.6,16.3,136.8,90.7,136.8,166.3V2740C1024.4,2815.6,963.1,2863.6,887.5,2847.4z"/>
	</g>
	<g>
		<path class="st2" d="M577.5,2715.2c-75.6-16.3-136.8-90.7-136.8-166.3v-133.5c0-75.6,61.3-123.7,136.8-107.4
			c75.6,16.3,136.8,90.7,136.8,166.3v133.5C714.4,2683.4,653.1,2731.5,577.5,2715.2z"/>
		<path class="st3" d="M567.9,2724.9c-75.6-16.3-136.8-90.7-136.8-166.3v-133.5c0-75.6,61.3-123.7,136.8-107.4
			c75.6,16.3,136.8,90.7,136.8,166.3v133.5C704.7,2693.1,643.4,2741.1,567.9,2724.9z"/>
		<path class="st4" d="M553.4,2739.4c-75.6-16.3-136.8-90.7-136.8-166.3v-133.5c0-75.6,61.3-123.7,136.8-107.4
			c75.6,16.3,136.8,90.7,136.8,166.3V2632C690.2,2707.6,628.9,2755.7,553.4,2739.4z"/>
		<path class="st5" d="M538.9,2753.9c-75.6-16.3-136.8-90.7-136.8-166.3v-133.5c0-75.6,61.3-123.7,136.8-107.4
			c75.6,16.3,136.8,90.7,136.8,166.3v133.5C675.7,2722.1,614.4,2770.2,538.9,2753.9z"/>
		<path class="st6" d="M524.3,2768.4c-75.6-16.3-136.8-90.7-136.8-166.3v-133.5c0-75.6,61.3-123.7,136.8-107.4
			c75.6,16.3,136.8,90.7,136.8,166.3V2661C661.2,2736.6,599.9,2784.7,524.3,2768.4z"/>
	</g>
	<g>
		<path class="st2" d="M1657,3622.1c-75.6-16.3-136.8-90.7-136.8-166.3v-133.5c0-75.6,61.3-123.7,136.8-107.4
			c75.6,16.3,136.8,90.7,136.8,166.3v133.5C1793.8,3590.2,1732.5,3638.3,1657,3622.1z"/>
		<path class="st3" d="M1647.3,3631.7c-75.6-16.3-136.8-90.7-136.8-166.3V3332c0-75.6,61.3-123.7,136.8-107.4
			c75.6,16.3,136.8,90.7,136.8,166.3v133.5C1784.1,3599.9,1722.9,3648,1647.3,3631.7z"/>
		<path class="st4" d="M1632.8,3646.3c-75.6-16.3-136.8-90.7-136.8-166.3v-133.5c0-75.6,61.3-123.7,136.8-107.4
			c75.6,16.3,136.8,90.7,136.8,166.3v133.5C1769.6,3614.4,1708.4,3662.5,1632.8,3646.3z"/>
		<path class="st5" d="M1618.3,3660.8c-75.6-16.3-136.8-90.7-136.8-166.3V3361c0-75.6,61.3-123.7,136.8-107.4
			c75.6,16.3,136.8,90.7,136.8,166.3v133.5C1755.1,3628.9,1693.9,3677,1618.3,3660.8z"/>
		<path class="st6" d="M1603.8,3675.3c-75.6-16.3-136.8-90.7-136.8-166.3v-133.5c0-75.6,61.3-123.7,136.8-107.4
			c75.6,16.3,136.8,90.7,136.8,166.3v133.5C1740.6,3643.4,1679.3,3691.5,1603.8,3675.3z"/>
	</g>
	<g>
		<path class="st2" d="M943.1,3468c-75.6-16.3-136.8-90.7-136.8-166.3v-133.5c0-75.6,61.3-123.7,136.8-107.4
			c75.6,16.3,136.8,90.7,136.8,166.3v133.5C1080,3436.2,1018.7,3484.3,943.1,3468z"/>
		<path class="st3" d="M933.5,3477.7c-75.6-16.3-136.8-90.7-136.8-166.3v-133.5c0-75.6,61.3-123.7,136.8-107.4
			s136.8,90.7,136.8,166.3v133.5C1070.3,3445.9,1009,3493.9,933.5,3477.7z"/>
		<path class="st4" d="M919,3492.2c-75.6-16.3-136.8-90.7-136.8-166.3v-133.5c0-75.6,61.3-123.7,136.8-107.4
			c75.6,16.3,136.8,90.7,136.8,166.3v133.5C1055.8,3460.4,994.5,3508.5,919,3492.2z"/>
		<path class="st5" d="M904.4,3506.7c-75.6-16.3-136.8-90.7-136.8-166.3v-133.5c0-75.6,61.3-123.7,136.8-107.4
			c75.6,16.3,136.8,90.7,136.8,166.3v133.5C1041.3,3474.9,980,3523,904.4,3506.7z"/>
		<path class="st6" d="M889.9,3521.2c-75.6-16.3-136.8-90.7-136.8-166.3v-133.5c0-75.6,61.3-123.7,136.8-107.4
			c75.6,16.3,136.8,90.7,136.8,166.3v133.5C1026.8,3489.4,965.5,3537.5,889.9,3521.2z"/>
	</g>
	<g>
		<path class="st2" d="M577.5,3388.7c-75.6-16.3-136.8-90.7-136.8-166.3v-133.5c0-75.6,61.3-123.7,136.8-107.4
			c75.6,16.3,136.8,90.7,136.8,166.3v133.5C714.4,3356.9,653.1,3405,577.5,3388.7z"/>
		<path class="st3" d="M567.9,3398.4c-75.6-16.3-136.8-90.7-136.8-166.3v-133.5c0-75.6,61.3-123.7,136.8-107.4
			c75.6,16.3,136.8,90.7,136.8,166.3V3291C704.7,3366.6,643.4,3414.6,567.9,3398.4z"/>
		<path class="st4" d="M553.4,3412.9c-75.6-16.3-136.8-90.7-136.8-166.3v-133.5c0-75.6,61.3-123.7,136.8-107.4
			s136.8,90.7,136.8,166.3v133.5C690.2,3381.1,628.9,3429.2,553.4,3412.9z"/>
		<path class="st5" d="M538.9,3427.4c-75.6-16.3-136.8-90.7-136.8-166.3v-133.5c0-75.6,61.3-123.7,136.8-107.4
			s136.8,90.7,136.8,166.3V3320C675.7,3395.6,614.4,3443.7,538.9,3427.4z"/>
		<path class="st6" d="M524.3,3441.9c-75.6-16.3-136.8-90.7-136.8-166.3v-133.5c0-75.6,61.3-123.7,136.8-107.4
			s136.8,90.7,136.8,166.3v133.5C661.2,3410.1,599.9,3458.2,524.3,3441.9z"/>
	</g>
</g>
</svg>
