<svg xmlns="http://www.w3.org/2000/svg" viewBox="0 0 408.867 194.8">
  <defs>
    <style>
      .cls-1, .cls-3, .cls-4 {
        fill: #faecb2;
      }

      .cls-2 {
        fill: none;
      }

      .cls-3, .cls-4 {
        font-size: 38px;
      }

      .cls-3 {
        font-family: Futura-Bold, Futura;
        font-weight: 700;
      }

      .cls-4 {
        font-family: HiraginoSans-W3, Hiragino Sans;
      }
    </style>
  </defs>
  <g id="_07" data-name="07" transform="translate(0 85.542)">
    <path id="パス_1231" data-name="パス 1231" class="cls-1" d="M398.6,1186.342H10.271A10.273,10.273,0,0,1,0,1176.071H0A10.267,10.267,0,0,1,10.271,1165.8H398.6a10.267,10.267,0,0,1,10.271,10.271h0A10.273,10.273,0,0,1,398.6,1186.342Z" transform="translate(0 -1144.424)"/>
    <rect id="長方形_1365" data-name="長方形 1365" class="cls-2" width="408.867" height="24.45" transform="translate(0 62.459)"/>
    <text id="Company" class="cls-3" transform="translate(0 -46.542)"><tspan x="0" y="0">Company</tspan></text>
    <text id="設立の思い" class="cls-4" transform="translate(0 0.071)"><tspan x="0" y="0">設立の思い</tspan></text>
    <path id="パス_1232" data-name="パス 1232" class="cls-1" d="M100.753,1738.6H43.692a5.5,5.5,0,1,1,0-10.99h57.061a11.358,11.358,0,0,0,0-22.717h-78.4a11.358,11.358,0,0,0,0,22.717h7.695a5.5,5.5,0,1,1,0,10.99H22.349a22.349,22.349,0,1,1,0-44.7h78.4a22.349,22.349,0,1,1,0,44.7Z" transform="translate(0 -1629.34)"/>
    <path id="パス_1233" data-name="パス 1233" class="cls-1" d="M726.46,1906.634,717.8,1901v11.268Z" transform="translate(-659.103 -1819.505)"/>
  </g>
</svg>
