<?xml version="1.0" encoding="utf-8"?>
<!-- Generator: Adobe Illustrator 22.1.0, SVG Export Plug-In . SVG Version: 6.00 Build 0)  -->
<svg version="1.1" id="レイヤー_1" xmlns="http://www.w3.org/2000/svg" xmlns:xlink="http://www.w3.org/1999/xlink" x="0px"
	 y="0px" viewBox="0 0 5000 4364" style="enable-background:new 0 0 5000 4364;" xml:space="preserve">
<style type="text/css">
	.st0{fill:#FFFFFF;}
	.st1{fill:#FFFFFF;stroke:#999999;stroke-width:21;stroke-linecap:round;stroke-linejoin:round;stroke-miterlimit:10;}
	.st2{opacity:0.2;fill:#808080;}
	.st3{fill:#E6E6E6;}
	
		.st4{clip-path:url(#SVGID_2_);fill:#FFFFFF;stroke:#999999;stroke-width:21;stroke-linecap:round;stroke-linejoin:round;stroke-miterlimit:10;}
	.st5{clip-path:url(#SVGID_2_);fill:#FFFFFF;}
	.st6{clip-path:url(#SVGID_2_);fill:#E6E6E6;}
	.st7{opacity:0.2;clip-path:url(#SVGID_2_);fill:#808080;}
</style>
<path class="st0" d="M957.5,7543.2"/>
<g>
	<g>
		<path class="st0" d="M400.6,653.8V202.5C400.6,64,512.9-24.1,651.5,5.8l4096.3,884.5c138.6,29.9,250.9,166.5,250.9,305v451.2v1663
			v451.2c0,138.6-112.3,226.6-250.9,196.7L651.5,3073c-138.6-29.9-250.9-166.5-250.9-305v-451.2V653.8z"/>
		<path class="st1" d="M2697.6,2719.7"/>
		<line class="st0" x1="402" y1="655.4" x2="5000" y2="1648.3"/>
		<polyline class="st2" points="4998.6,1435.5 4998.6,1773.3 2696.9,2457.4 400.6,780.4 400.6,435.6 		"/>
		<polyline class="st2" points="4998.6,1435.5 4998.6,1817.4 2696.9,2501.5 400.6,824.5 400.6,435.6 		"/>
		<polyline class="st2" points="4998.6,1435.5 4998.6,1853.1 2696.9,2537.3 400.6,860.3 400.6,435.6 		"/>
		<polyline class="st2" points="4998.6,1435.5 4998.6,1888.9 2696.9,2573.1 400.6,896 400.6,435.6 		"/>
		<polyline class="st0" points="4998.6,1418.9 4998.6,1630.1 2696.9,2314.3 400.6,637.2 400.6,419.1 		"/>
	</g>
	<g>
		<path class="st0" d="M0,1054.4V603.1c0-138.6,112.3-226.6,250.9-196.7L4347.1,1291c138.6,29.9,250.9,166.5,250.9,305v451.2v1663
			v451.2c0,138.6-112.3,226.6-250.9,196.7L250.9,3473.6C112.3,3443.7,0,3307.1,0,3168.6v-451.2V1054.4z"/>
		<path class="st1" d="M2297,3120.3"/>
		<line class="st0" x1="1.4" y1="1056" x2="4599.4" y2="2048.9"/>
		<polyline class="st2" points="4598,1836.1 4598,2173.9 2296.3,2858 0,1181 0,836.2 		"/>
		<polyline class="st2" points="4598,1836.1 4598,2218 2296.3,2902.1 0,1225.1 0,836.2 		"/>
		<polyline class="st2" points="4598,1836.1 4598,2253.8 2296.3,2937.9 0,1260.9 0,836.2 		"/>
		<polyline class="st2" points="4598,1836.1 4598,2289.5 2296.3,2973.7 0,1296.7 0,836.2 		"/>
		<polyline class="st0" points="4598,1819.5 4598,2030.7 2296.3,2714.9 0,1037.8 0,819.7 		"/>
	</g>
	<path class="st3" d="M4943,3906.3l-397.9,397.8l10.1-11.7c27.1-34.2,42.8-79.1,42.8-131v-451.2v-1663V1596
		c0-138.6-112.3-275.1-250.9-305L250.9,406.4c-78.3-16.9-148.3,3.9-194.3,50.2l-0.1-0.1L453.8,59.6l-10.3,11.9
		c45.1-57,121.4-84.4,208-65.7l4096.3,884.5c138.6,29.9,250.9,166.5,250.9,305v451.2v1663v451.2c0,52-15.8,96.8-42.8,131
		L4943,3906.3z"/>
	<g>
		<defs>
			<path id="SVGID_1_" d="M4943,3906.3l-397.9,397.8l10.1-11.7c27.1-34.2,42.8-79.1,42.8-131v-451.2v-1663V1596
				c0-138.6-112.3-275.1-250.9-305L250.9,406.4c-78.3-16.9-148.3,3.9-194.3,50.2l-0.1-0.1L453.8,59.6l-10.3,11.9
				c45.1-57,121.4-84.4,208-65.7l4096.3,884.5c138.6,29.9,250.9,166.5,250.9,305v451.2v1663v451.2c0,52-15.8,96.8-42.8,131
				L4943,3906.3z"/>
		</defs>
		<clipPath id="SVGID_2_">
			<use xlink:href="#SVGID_1_"  style="overflow:visible;"/>
		</clipPath>
		<path class="st4" d="M723.5,2637.1"/>
		<path class="st5" d="M3025.9,1565.7"/>
		<path class="st4" d="M322.9,3037.7"/>
		<path class="st6" d="M4599.4,1596.4"/>
		<polygon class="st7" points="4464.5,1517.9 5089.5,892.9 5089.5,3986.3 4493.4,4582.3 		"/>
		<polygon class="st7" points="4464.5,1553.7 5089.5,928.7 5089.5,4022 4493.4,4618.1 		"/>
		<polygon class="st7" points="4464.5,1589.5 5089.5,964.5 5089.5,4057.8 4493.4,4653.9 		"/>
		<polygon class="st7" points="4464.5,1625.3 5089.5,1000.3 5089.5,4093.6 4493.4,4689.7 		"/>
		<polygon class="st7" points="4464.5,1663.8 5089.5,1038.8 5089.5,4132.2 4493.4,4728.3 		"/>
	</g>
</g>
</svg>
