<?xml version="1.0" encoding="utf-8"?>
<!-- Generator: Adobe Illustrator 22.1.0, SVG Export Plug-In . SVG Version: 6.00 Build 0)  -->
<svg version="1.1" id="レイヤー_1" xmlns="http://www.w3.org/2000/svg" xmlns:xlink="http://www.w3.org/1999/xlink" x="0px"
	 y="0px" viewBox="0 0 4197.8 1475.4" style="enable-background:new 0 0 4197.8 1475.4;" xml:space="preserve">
<style type="text/css">
	.st0{opacity:0.5;}
	.st1{fill:#FF7155;}
	.st2{fill:#FFFF00;}
	.st3{fill:#FFFFFF;}
	.st4{fill:#999999;}
	.st5{font-family:'Futura-MediumItalic';}
	.st6{font-size:72.7347px;}
	.st7{fill:#29ABE2;}
	.st8{opacity:0.5;clip-path:url(#SVGID_2_);}
	.st9{fill:#FF7BAC;}
	.st10{fill:#2E313D;}
</style>
<g>
	<g class="st0">
		<polygon class="st1" points="1949.4,767.2 1745.9,767.2 1184.4,767.2 905.4,1249.2 1466.9,1249.2 1670.4,1249.2 2235.4,1249.2 
			2514.4,767.2 		"/>
		<path class="st1" d="M2241.5,1259.7H887.2l291.2-503h1354.3L2241.5,1259.7z M923.6,1238.7h1305.7l266.8-461H1190.5L923.6,1238.7z"
			/>
	</g>
	<g class="st0">
		<polygon class="st2" points="2544.4,767.2 3552.7,767.2 3684.4,767.2 3405.4,1249.2 3273.2,1248.9 2265.4,1248.9 		"/>
		<path class="st2" d="M3411.4,1259.7l-138.3-0.3h-1026l291.2-502.7h1164.3L3411.4,1259.7z M2283.6,1238.4h989.6l126.1,0.2
			l266.8-461H2550.4L2283.6,1238.4z"/>
	</g>
	<g>
		<path class="st3" d="M1945.9,1330.2h52.9h231l73.5-33l-9.5,33h76.5c34.1,0,62,27.9,62,62s-27.9,62-62,62h-565
			c-34.1,0-62-27.9-62-62s27.9-62,62-62h76.5H1945.9z"/>
		<path class="st4" d="M2370.4,1464.7h-565c-40,0-72.5-32.5-72.5-72.5s32.5-72.5,72.5-72.5h422.2l71.5-32.1c3.7-1.7,8.1-1,11.2,1.7
			c3.1,2.7,4.3,6.9,3.2,10.8l-5.7,19.6h62.6c40,0,72.5,32.5,72.5,72.5S2410.4,1464.7,2370.4,1464.7z M1805.4,1340.7
			c-28.4,0-51.5,23.1-51.5,51.5s23.1,51.5,51.5,51.5h565c28.4,0,51.5-23.1,51.5-51.5s-23.1-51.5-51.5-51.5h-76.5
			c-3.3,0-6.4-1.6-8.4-4.2c-2-2.6-2.6-6.1-1.7-9.2l3.2-11.2l-52.9,23.7c-1.4,0.6-2.8,0.9-4.3,0.9H1805.4z"/>
	</g>
	<g>
		<g>
			<circle class="st3" cx="3832.2" cy="608.9" r="29.2"/>
			<path class="st3" d="M3832.2,579.7c16.1,0,29.2,13.1,29.2,29.2c0,16.1-13.1,29.2-29.2,29.2c-16.1,0-29.2-13.1-29.2-29.2
				C3803,592.8,3816.1,579.7,3832.2,579.7 M3832.2,547.7c-33.8,0-61.2,27.5-61.2,61.2s27.5,61.2,61.2,61.2s61.2-27.5,61.2-61.2
				S3866,547.7,3832.2,547.7L3832.2,547.7z"/>
		</g>
		<g>
			<path class="st3" d="M3897.8,731.7c0-36.2-29.4-65.6-65.6-65.6c-36.2,0-65.6,29.4-65.6,65.6"/>
			<path class="st3" d="M3918.8,731.7h-42c0-24.6-20-44.6-44.6-44.6s-44.6,20-44.6,44.6h-42c0-47.8,38.9-86.6,86.6-86.6
				S3918.8,683.9,3918.8,731.7z"/>
		</g>
	</g>
	<g>
		<path class="st3" d="M1945.9,1330.2h52.9h231l73.5-33l-9.5,33h76.5c34.1,0,62,27.9,62,62s-27.9,62-62,62h-565
			c-34.1,0-62-27.9-62-62s27.9-62,62-62h76.5H1945.9z"/>
		<path class="st4" d="M2303.4,1297.2l-9.5,33h76.5c34.1,0,62,27.9,62,62c0,34.1-27.9,62-62,62h-565c-34.1,0-62-27.9-62-62
			c0-34.1,27.9-62,62-62h76.5h64h52.9h231L2303.4,1297.2 M2303.4,1276.2c-2.9,0-5.8,0.6-8.6,1.8l-69.4,31.2h-226.5h-52.9h-64h-76.5
			c-45.8,0-83,37.2-83,83c0,45.8,37.2,83,83,83h565c45.8,0,83-37.2,83-83c0-45.8-37.2-83-83-83h-48.6l1.8-6.2
			c2.3-7.9-0.2-16.3-6.4-21.7C2313.3,1277.9,2308.4,1276.2,2303.4,1276.2L2303.4,1276.2z"/>
	</g>
	<g>
		<path class="st3" d="M2888.4,400.2h-565c-34.1,0-62,27.9-62,62l0,0c0,34.1,27.9,62,62,62h371.5l-9.5,33l73.5-33h129.5
			c34.1,0,62-27.9,62-62l0,0C2950.4,428.1,2922.5,400.2,2888.4,400.2z"/>
		<path class="st4" d="M2888.4,400.2c34.1,0,62,27.9,62,62s-27.9,62-62,62h-129.5l-73.5,33l9.5-33h-371.5c-34.1,0-62-27.9-62-62
			s27.9-62,62-62H2888.4 M2888.4,379.2h-565c-45.8,0-83,37.2-83,83s37.2,83,83,83H2667l-1.8,6.2c-2.3,7.9,0.2,16.3,6.4,21.7
			c3.9,3.4,8.8,5.1,13.8,5.1c2.9,0,5.8-0.6,8.6-1.8l69.4-31.2h125c45.8,0,83-37.2,83-83S2934.2,379.2,2888.4,379.2L2888.4,379.2z"/>
	</g>
	<g>
		<line class="st3" x1="2413.2" y1="1040.1" x2="2566.2" y2="775.1"/>
		<rect x="2336.7" y="897.1" transform="matrix(0.5 -0.866 0.866 0.5 458.8765 2609.9729)" class="st4" width="306" height="21"/>
	</g>
	<g>
		<line class="st3" x1="3736.2" y1="775.1" x2="3583.2" y2="1040.1"/>
		<rect x="3506.7" y="897.1" transform="matrix(0.5 -0.866 0.866 0.5 1043.8762 3623.2224)" class="st4" width="306" height="21"/>
	</g>
	<g>
		<path class="st3" d="M4114.4,400.2h-565c-34.1,0-62,27.9-62,62l0,0c0,34.1,27.9,62,62,62h371.5l-9.5,33l73.5-33h129.5
			c34.1,0,62-27.9,62-62l0,0C4176.4,428.1,4148.5,400.2,4114.4,400.2z"/>
		<path class="st4" d="M4114.4,400.2c34.1,0,62,27.9,62,62s-27.9,62-62,62h-129.5l-73.5,33l9.5-33h-371.5c-34.1,0-62-27.9-62-62
			s27.9-62,62-62H4114.4 M4114.4,379.2h-565c-45.8,0-83,37.2-83,83s37.2,83,83,83H3893l-1.8,6.2c-2.3,7.9,0.2,16.3,6.4,21.7
			c3.9,3.4,8.8,5.1,13.8,5.1c2.9,0,5.8-0.6,8.6-1.8l69.4-31.2h125c45.8,0,83-37.2,83-83S4160.2,379.2,4114.4,379.2L4114.4,379.2z"/>
	</g>
	<g>
		<g>
			<circle class="st3" cx="3832.3" cy="609.4" r="29.2"/>
			<path class="st4" d="M3832.3,580.1c16.1,0,29.2,13.1,29.2,29.2s-13.1,29.2-29.2,29.2c-16.1,0-29.2-13.1-29.2-29.2
				S3816.1,580.1,3832.3,580.1 M3832.3,559.1c-27.7,0-50.2,22.5-50.2,50.2s22.5,50.2,50.2,50.2s50.2-22.5,50.2-50.2
				S3860,559.1,3832.3,559.1L3832.3,559.1z"/>
		</g>
		<g>
			<path class="st3" d="M3766.7,732.2c0-36.2,29.4-65.6,65.6-65.6c36.2,0,65.6,29.4,65.6,65.6"/>
			<path class="st4" d="M3908.4,732.2h-21c0-30.4-24.7-55.1-55.1-55.1s-55.1,24.7-55.1,55.1h-21c0-42,34.1-76.1,76.1-76.1
				S3908.4,690.2,3908.4,732.2z"/>
		</g>
	</g>
	<g>
		<path class="st3" d="M2427.5,1200.8h-9.2l0.2-112.2l-0.3-8.4c0-3.9-3.2-7.1-7.1-7.1h-13.4c-3.9,0-7.1,3.2-7.1,7.1v120.6h-19
			c0.1-0.5,0.2-1,0.2-1.6v-44.1v-8.4c0-3.9-3.2-7.1-7.1-7.1h-13.4c-3.9,0-7.1,3.2-7.1,7.1v52.5c0,0.6,0.1,1.1,0.2,1.6h-19.5v-12.6
			v-8.4c0-3.9-3.2-7.1-7.1-7.1h-13.4c-3.9,0-7.1,3.2-7.1,7.1v21h-9c-2.8,0-5,2.3-5,5c0,2.8,2.3,5,5,5h139.1c2.8,0,5-2.3,5-5
			C2432.6,1203.1,2430.3,1200.8,2427.5,1200.8z"/>
		<path class="st3" d="M2427.5,1231.9h-139.1c-14.4,0-26-11.7-26-26c0-10,5.7-18.8,14.1-23.1v-2.9c0-15.5,12.6-28.1,28.1-28.1h13.4
			c1.8,0,3.6,0.2,5.3,0.5v-5.5c0-15.5,12.6-28.1,28.1-28.1h13.4c1.7,0,3.3,0.1,4.9,0.4v-38.9c0-15.5,12.6-28.1,28.1-28.1h13.4
			c15.3,0,27.8,12.4,28.1,27.6l0.3,8.1c0,0.2,0,0.5,0,0.7l-0.1,94c8.4,4.3,14.2,13.1,14.2,23.2
			C2453.6,1220.2,2441.9,1231.9,2427.5,1231.9z"/>
	</g>
	<g>
		<polyline class="st3" points="3582.9,907.4 3071,907.4 3070.9,907.4 2559,907.4 		"/>
		<rect x="2559" y="896.9" class="st4" width="1023.9" height="21"/>
	</g>
	<g>
		<line class="st3" x1="1286" y1="660.4" x2="2502.4" y2="660.4"/>
		<rect x="1286" y="649.9" class="st4" width="1216.4" height="21"/>
	</g>
	<g>
		<line class="st3" x1="779.9" y1="1142.4" x2="2227.9" y2="1142.4"/>
		<rect x="779.9" y="1131.9" class="st4" width="1448" height="21"/>
	</g>
	<g>
		<path class="st3" d="M2427.5,1200.8h-9.2l0.2-112.2l-0.3-8.4c0-3.9-3.2-7.1-7.1-7.1h-13.4c-3.9,0-7.1,3.2-7.1,7.1v120.6h-19
			c0.1-0.5,0.2-1,0.2-1.6v-44.1v-8.4c0-3.9-3.2-7.1-7.1-7.1h-13.4c-3.9,0-7.1,3.2-7.1,7.1v52.5c0,0.6,0.1,1.1,0.2,1.6h-19.5v-12.6
			v-8.4c0-3.9-3.2-7.1-7.1-7.1h-13.4c-3.9,0-7.1,3.2-7.1,7.1v21h-9c-2.8,0-5,2.3-5,5c0,2.8,2.3,5,5,5h139.1c2.8,0,5-2.3,5-5
			C2432.6,1203.1,2430.3,1200.8,2427.5,1200.8z"/>
		<path class="st4" d="M2411.2,1073.2c3.9,0,7.1,3.2,7.1,7.1l0.3,8.4l-0.2,112.2h9.2c2.8,0,5,2.3,5,5c0,2.8-2.3,5-5,5h-139.1
			c-2.8,0-5-2.3-5-5c0-2.8,2.3-5,5-5h9v-21c0-3.9,3.2-7.1,7.1-7.1h13.4c3.9,0,7.1,3.2,7.1,7.1v8.4v12.6h19.5c-0.1-0.5-0.2-1-0.2-1.6
			v-52.5c0-3.9,3.2-7.1,7.1-7.1h13.4c3.9,0,7.1,3.2,7.1,7.1v8.4v44.1c0,0.6-0.1,1.1-0.2,1.6h19v-120.6c0-3.9,3.2-7.1,7.1-7.1H2411.2
			 M2411.2,1058.2h-13.4c-12.2,0-22.1,9.9-22.1,22.1v47.3c-3.2-1.8-6.9-2.9-10.9-2.9h-13.4c-12.2,0-22.1,9.9-22.1,22.1v14.1
			c-3.3-2-7.2-3.1-11.3-3.1h-13.4c-12.2,0-22.1,9.9-22.1,22.1v6.9c-8.1,2.5-14.1,10.2-14.1,19.1c0,11,9,20,20,20h139.1
			c11,0,20-9,20-20c0-9-6-16.7-14.2-19.2l0.2-98c0-0.2,0-0.3,0-0.5l-0.3-8.2C2433.1,1067.9,2423.2,1058.2,2411.2,1058.2
			L2411.2,1058.2z"/>
	</g>
	<g>
		<path class="st3" d="M3118.9,1330.2h52.9h231l73.5-33l-9.5,33h76.5c34.1,0,62,27.9,62,62s-27.9,62-62,62h-565
			c-34.1,0-62-27.9-62-62s27.9-62,62-62h76.5H3118.9z"/>
		<path class="st4" d="M3543.4,1464.7h-565c-40,0-72.5-32.5-72.5-72.5s32.5-72.5,72.5-72.5h422.2l71.5-32.1c3.7-1.7,8.1-1,11.2,1.7
			c3.1,2.7,4.3,6.9,3.2,10.8l-5.7,19.6h62.6c40,0,72.5,32.5,72.5,72.5S3583.4,1464.7,3543.4,1464.7z M2978.4,1340.7
			c-28.4,0-51.5,23.1-51.5,51.5s23.1,51.5,51.5,51.5h565c28.4,0,51.5-23.1,51.5-51.5s-23.1-51.5-51.5-51.5h-76.5
			c-3.3,0-6.4-1.6-8.4-4.2c-2-2.6-2.6-6.1-1.7-9.2l3.2-11.2l-52.9,23.7c-1.4,0.6-2.8,0.9-4.3,0.9H2978.4z"/>
	</g>
	<g>
		<path class="st3" d="M3118.9,1330.2h52.9h231l73.5-33l-9.5,33h76.5c34.1,0,62,27.9,62,62s-27.9,62-62,62h-565
			c-34.1,0-62-27.9-62-62s27.9-62,62-62h76.5H3118.9z"/>
		<path class="st4" d="M3476.4,1297.2l-9.5,33h76.5c34.1,0,62,27.9,62,62c0,34.1-27.9,62-62,62h-565c-34.1,0-62-27.9-62-62
			c0-34.1,27.9-62,62-62h76.5h64h52.9h231L3476.4,1297.2 M3476.4,1276.2c-2.9,0-5.8,0.6-8.6,1.8l-69.4,31.2h-226.5h-52.9h-64h-76.5
			c-45.8,0-83,37.2-83,83c0,45.8,37.2,83,83,83h565c45.8,0,83-37.2,83-83c0-45.8-37.2-83-83-83h-48.6l1.8-6.2
			c2.3-7.9-0.2-16.3-6.4-21.7C3486.3,1277.9,3481.4,1276.2,3476.4,1276.2L3476.4,1276.2z"/>
	</g>
	<g>
		<circle class="st3" cx="3938.1" cy="649.9" r="29.2"/>
		<path class="st3" d="M3938.1,700.2c-11.6,0-21-9.4-21-21c0-4.5-3.7-8.2-8.2-8.2c-11.6,0-21-9.4-21-21s9.4-21,21-21
			c4.5,0,8.2-3.7,8.2-8.2c0-11.6,9.4-21,21-21s21,9.4,21,21c0,4.5,3.7,8.2,8.2,8.2c11.6,0,21,9.4,21,21s-9.4,21-21,21
			c-4.5,0-8.2,3.7-8.2,8.2C3959.1,690.8,3949.7,700.2,3938.1,700.2z"/>
	</g>
	<g>
		<circle class="st3" cx="3987.1" cy="698.9" r="17.8"/>
		<path class="st3" d="M3987.1,737.7c-10.6,0-19.3-7.8-20.8-18c-10.2-1.5-18-10.2-18-20.8s7.8-19.3,18-20.8
			c1.5-10.2,10.2-18,20.8-18s19.3,7.8,20.8,18c10.2,1.5,18,10.2,18,20.8s-7.8,19.3-18,20.8C4006.5,729.9,3997.7,737.7,3987.1,737.7z
			"/>
	</g>
	<g>
		<path class="st3" d="M1987.8,629.7c134.5-134.5,134.5-352.5,0-487l0,0c-134.5-134.5-352.5-134.5-487,0l0,0
			c-134.5,134.5-134.5,352.5,0,487l0,0c59.1,59.1,134.3,92.2,211.4,99.4l29.6,110.7l29.5-110.3
			C1850.3,723.3,1927.5,690,1987.8,629.7L1987.8,629.7z"/>
		<path class="st3" d="M1744.4,41.8c88.1,0,176.3,33.6,243.5,100.9l0,0c134.5,134.5,134.5,352.5,0,487l0,0
			c-60.4,60.4-137.6,93.6-216.5,99.8l-29.5,110.3L1712.3,729c-77.2-7.2-152.3-40.3-211.4-99.4l0,0c-134.5-134.5-134.5-352.5,0-487
			l0,0C1568.1,75.4,1656.2,41.8,1744.4,41.8 M1744.4-0.2c-50.2,0-99.1,9.5-145.4,28.3c-48,19.4-91,48-127.8,84.9
			c-36.9,36.9-65.4,79.9-84.9,127.8c-18.8,46.3-28.3,95.2-28.3,145.4c0,50.2,9.5,99.1,28.3,145.4c19.4,48,48,91,84.9,127.8
			c32.4,32.4,69.7,58.5,111,77.6c30.9,14.3,63.3,24.3,96.8,30l22.3,83.6c4.9,18.4,21.6,31.2,40.6,31.2s35.7-12.8,40.6-31.2
			l22.1-82.8c34.3-5.4,67.6-15.3,99.3-29.7c42.3-19.2,80.6-45.7,113.7-78.8c36.9-36.9,65.4-79.9,84.9-127.8
			c18.8-46.3,28.3-95.2,28.3-145.4c0-50.2-9.5-99.1-28.3-145.4c-19.4-48-48-91-84.9-127.8c-36.9-36.9-79.9-65.4-127.8-84.9
			C1843.4,9.3,1794.5-0.2,1744.4-0.2L1744.4-0.2z"/>
	</g>
	<g>
		<path class="st3" d="M2690.3,707.4l-25.4-25.4c-0.8-0.8-2.2-0.8-3,0l0,0c-0.8,0.8-2.2,0.8-3,0l-2.9-2.9
			c6.5-8.7,10.3-19.5,10.3-31.2c0-28.9-23.4-52.4-52.4-52.4c-4.6,0-9.1,0.6-13.3,1.7c-22.6,5.8-39.2,26.2-39.2,50.6
			c0,18.1,9.2,34,23.2,43.4c8.4,5.7,18.5,9,29.4,9c11.7,0,22.5-3.8,31.2-10.3l2.9,2.9c0.8,0.8,0.8,2.2,0,3c-0.8,0.8-0.8,2.2,0,3
			l25.4,25.4c0.8,0.8,2.2,0.8,3,0l13.9-13.9C2691.1,709.6,2691.1,708.3,2690.3,707.4z"/>
		<path class="st3" d="M2674.8,746c-6.2,0-12-2.4-16.4-6.8l-21.6-21.6c-7.3,2.4-15.1,3.7-23,3.7c-14.7,0-29-4.4-41.1-12.6
			c-20.3-13.6-32.4-36.4-32.4-60.8c0-33.5,22.6-62.6,55-70.9c6.1-1.6,12.3-2.4,18.6-2.4c40.4,0,73.4,32.9,73.4,73.4
			c0,7.9-1.2,15.7-3.7,23l21.6,21.6c0,0,0,0,0,0c9,9,9,23.7,0,32.7l-13.9,13.9C2686.8,743.6,2681,746,2674.8,746z M2633.1,681.2
			C2633.1,681.2,2633.1,681.2,2633.1,681.2C2633.1,681.2,2633.1,681.2,2633.1,681.2z M2633.1,681.1
			C2633.1,681.1,2633.1,681.2,2633.1,681.1C2633.1,681.2,2633.1,681.1,2633.1,681.1z M2613.8,616.6c-2.7,0-5.4,0.3-8,1
			c0,0-0.1,0-0.1,0c-13.8,3.5-23.4,15.9-23.4,30.2c0,10.4,5.2,20.1,13.9,25.9c0,0,0.1,0.1,0.1,0.1c5.2,3.5,11.3,5.4,17.6,5.4
			c6.8,0,13.2-2.1,18.7-6.2c1.3-1,2.7-1.8,4.1-2.4c0.6-1.4,1.4-2.8,2.4-4.1c4-5.4,6.2-11.9,6.2-18.7
			C2645.2,630.7,2631.1,616.6,2613.8,616.6z M2647.1,667.1c0,0-0.1,0.1-0.1,0.1C2647,667.2,2647.1,667.2,2647.1,667.1z"/>
	</g>
	<g>
		<g>
			<path class="st3" d="M2690.3,707.4l-25.4-25.4c-0.8-0.8-2.2-0.8-3,0l0,0c-0.8,0.8-2.2,0.8-3,0l-2.9-2.9
				c6.5-8.7,10.3-19.5,10.3-31.2c0-28.9-23.4-52.4-52.4-52.4c-4.6,0-9.1,0.6-13.3,1.7c-22.6,5.8-39.2,26.2-39.2,50.6
				c0,18.1,9.2,34,23.2,43.4c8.4,5.7,18.5,9,29.4,9c11.7,0,22.5-3.8,31.2-10.3l2.9,2.9c0.8,0.8,0.8,2.2,0,3c-0.8,0.8-0.8,2.2,0,3
				l25.4,25.4c0.8,0.8,2.2,0.8,3,0l13.9-13.9C2691.1,709.6,2691.1,708.3,2690.3,707.4z"/>
			<path class="st3" d="M2613.8,637.6c5.7,0,10.4,4.6,10.4,10.4c0,2.3-0.7,4.3-2,6.1c-0.3,0.4-0.6,0.8-0.9,1.3
				c-0.4,0.3-0.9,0.6-1.3,0.9c-1.8,1.3-3.9,2-6.1,2c-2.1,0-4.1-0.6-5.8-1.8c-0.1-0.1-0.2-0.1-0.2-0.2c-1.4-0.9-4.6-3.6-4.6-8.5
				c0-5.4,4-8.9,7.6-9.9c0.1,0,0.2,0,0.3-0.1C2612,637.7,2612.9,637.6,2613.8,637.6 M2613.8,595.6c-4.6,0-9.1,0.6-13.3,1.7
				c-22.6,5.8-39.2,26.2-39.2,50.6c0,18.1,9.2,34,23.2,43.4c8.4,5.7,18.5,9,29.4,9c11.7,0,22.5-3.8,31.2-10.3l2.9,2.9
				c0.8,0.8,0.8,2.2,0,3c-0.8,0.8-0.8,2.2,0,3l25.4,25.4c0.4,0.4,1,0.6,1.5,0.6c0.6,0,1.1-0.2,1.5-0.6l13.9-13.9
				c0.8-0.8,0.8-2.2,0-3l-25.4-25.4c-0.4-0.4-1-0.6-1.5-0.6s-1.1,0.2-1.5,0.6l0,0c-0.4,0.4-1,0.6-1.5,0.6s-1.1-0.2-1.5-0.6l-2.9-2.9
				c6.5-8.7,10.3-19.5,10.3-31.2C2666.2,619,2642.7,595.6,2613.8,595.6L2613.8,595.6z"/>
		</g>
		<g>
			<circle class="st4" cx="2613.9" cy="648.4" r="31.1"/>
			<path class="st4" d="M2613.9,617.3c17.2,0,31.1,13.9,31.1,31.1s-13.9,31.1-31.1,31.1s-31.1-13.9-31.1-31.1
				S2596.8,617.3,2613.9,617.3 M2613.9,602.3c-25.4,0-46.1,20.7-46.1,46.1s20.7,46.1,46.1,46.1c25.4,0,46.1-20.7,46.1-46.1
				S2639.4,602.3,2613.9,602.3L2613.9,602.3z"/>
		</g>
		<g>
			<g>
				<path class="st3" d="M2690.3,707.4l-25.4-25.4c-0.8-0.8-2.2-0.8-3,0l0,0c-0.8,0.8-2.2,0.8-3,0l-2.9-2.9
					c6.5-8.7,10.3-19.5,10.3-31.2c0-28.9-23.4-52.4-52.4-52.4c-28.9,0-52.4,23.4-52.4,52.4c0,28.9,23.4,52.4,52.4,52.4
					c11.7,0,22.5-3.8,31.2-10.3l2.9,2.9c0.8,0.8,0.8,2.2,0,3c-0.8,0.8-0.8,2.2,0,3l25.4,25.4c0.8,0.8,2.2,0.8,3,0l13.9-13.9
					C2691.1,709.6,2691.1,708.3,2690.3,707.4z M2613.8,684.3c-20.1,0-36.3-16.3-36.3-36.3c0-20.1,16.3-36.3,36.3-36.3
					c20.1,0,36.3,16.3,36.3,36.3C2650.1,668,2633.9,684.3,2613.8,684.3z"/>
				<path class="st4" d="M2613.8,595.6c28.9,0,52.4,23.4,52.4,52.4c0,11.7-3.8,22.5-10.3,31.2l2.9,2.9c0.4,0.4,1,0.6,1.5,0.6
					s1.1-0.2,1.5-0.6l0,0c0.4-0.4,1-0.6,1.5-0.6s1.1,0.2,1.5,0.6l25.4,25.4c0.8,0.8,0.8,2.2,0,3l-13.9,13.9c-0.4,0.4-1,0.6-1.5,0.6
					c-0.6,0-1.1-0.2-1.5-0.6l-25.4-25.4c-0.8-0.8-0.8-2.2,0-3c0.8-0.8,0.8-2.2,0-3l-2.9-2.9c-8.7,6.5-19.5,10.3-31.2,10.3
					c-28.9,0-52.4-23.4-52.4-52.4C2561.4,619,2584.9,595.6,2613.8,595.6 M2613.8,684.3c20.1,0,36.3-16.3,36.3-36.3
					s-16.3-36.3-36.3-36.3s-36.3,16.3-36.3,36.3S2593.7,684.3,2613.8,684.3 M2613.8,580.6c-37.1,0-67.4,30.2-67.4,67.4
					c0,37.1,30.2,67.4,67.4,67.4c8.5,0,16.8-1.6,24.6-4.6l24.3,24.3c3.2,3.2,7.5,5,12.1,5c4.6,0,8.9-1.8,12.1-5l13.9-13.9
					c6.7-6.7,6.7-17.6,0-24.3l-24.3-24.3c3-7.8,4.6-16,4.6-24.6C2681.2,610.8,2650.9,580.6,2613.8,580.6L2613.8,580.6z
					 M2613.8,669.3c-11.8,0-21.3-9.6-21.3-21.3c0-11.8,9.6-21.3,21.3-21.3c11.8,0,21.3,9.6,21.3,21.3
					C2635.1,659.7,2625.6,669.3,2613.8,669.3L2613.8,669.3z"/>
			</g>
			<path class="st4" d="M2613.4,595.7c28.8,0,52.2,23.4,52.2,52.2s-23.4,52.2-52.2,52.2s-52.2-23.4-52.2-52.2
				S2584.6,595.7,2613.4,595.7 M2613.4,594.7c-29.3,0-53.2,23.9-53.2,53.2c0,29.3,23.9,53.2,53.2,53.2s53.2-23.9,53.2-53.2
				C2666.6,618.5,2642.7,594.7,2613.4,594.7L2613.4,594.7z"/>
		</g>
		<g>
			<circle class="st3" cx="2613.4" cy="648.2" r="36.5"/>
			<path class="st4" d="M2613.4,612.7c19.6,0,35.5,15.9,35.5,35.5s-15.9,35.5-35.5,35.5s-35.5-15.9-35.5-35.5
				S2593.8,612.7,2613.4,612.7 M2613.4,611.7c-20.2,0-36.5,16.3-36.5,36.5s16.3,36.5,36.5,36.5s36.5-16.3,36.5-36.5
				S2633.6,611.7,2613.4,611.7L2613.4,611.7z"/>
		</g>
	</g>
	<path class="st4" d="M1744.4,41.8c88.1,0,176.3,33.6,243.5,100.9l0,0c134.5,134.5,134.5,352.5,0,487l0,0
		c-60.4,60.4-137.6,93.6-216.5,99.8l-29.5,110.3L1712.3,729c-77.2-7.2-152.3-40.3-211.4-99.4l0,0c-134.5-134.5-134.5-352.5,0-487
		l0,0C1568.1,75.4,1656.2,41.8,1744.4,41.8 M1744.4,11.8c-48.6,0-96,9.2-140.9,27.4c-46.5,18.8-88.1,46.5-123.9,82.2
		c-35.7,35.7-63.4,77.4-82.2,123.9c-18.2,44.9-27.4,92.2-27.4,140.9c0,48.6,9.2,96,27.4,140.9c18.8,46.5,46.5,88.1,82.2,123.9
		c31.4,31.4,67.6,56.7,107.6,75.2c32.2,14.9,66.2,25.1,101.3,30.3l24.4,91.1c3.5,13.1,15.4,22.3,29,22.3s25.5-9.1,29-22.3l24.2-90.4
		c36-4.9,70.8-14.9,103.9-29.9c41-18.6,78-44.2,110.1-76.3c35.7-35.7,63.4-77.4,82.2-123.9c18.2-44.9,27.4-92.2,27.4-140.9
		s-9.2-96-27.4-140.9c-18.8-46.5-46.5-88.1-82.2-123.9c-35.7-35.7-77.4-63.4-123.9-82.2C1840.3,21,1793,11.8,1744.4,11.8
		L1744.4,11.8z"/>
	<g>
		<g>
			<path class="st4" d="M1572.8,180.7h17.4c6.6,0,11.7,0.3,15.2,1c3.6,0.6,6.9,1.8,10,3.6c5.6,3.2,10,8.1,13.3,14.6
				c3.2,6.5,4.9,13.7,4.9,21.7c0,8.5-1.8,16.3-5.5,23.6c-1.8,3.6-3.9,6.7-6.4,9.4c-2.4,2.7-5.2,5-8.3,6.9c-3.6,2.1-7.5,3.5-11.4,4.3
				c-2.1,0.4-4.7,0.7-7.6,0.8c-2.9,0.2-6.4,0.3-10.3,0.3h-21.8L1572.8,180.7z M1584,192.5l-7.6,62.4h9.7c7.1,0,12.7-0.7,16.7-2.1
				c3.9-1.4,7.3-3.9,10.2-7.7c5.1-6.4,7.6-14.4,7.6-24.1c0-6-1.1-11.2-3.4-15.7c-2.3-4.6-5.4-7.9-9.4-9.9c-3.8-1.9-9.3-2.8-16.7-2.8
				H1584z"/>
			<path class="st4" d="M1654.9,245c0,3.9,1.3,7.1,4,9.5c2.7,2.5,6.2,3.7,10.4,3.7c5.8,0,10.2-2.2,13.3-6.5l9.2,5.1
				c-3.2,4.3-6.5,7.3-9.9,9c-3.4,1.7-7.7,2.6-12.8,2.6c-8.2,0-14.6-2.4-19.5-7.2c-4.8-4.8-7.3-11.2-7.3-19.3c0-8.4,2.7-15.4,8-21.1
				c5.3-5.6,12-8.4,20-8.4c7.8,0,14,2.5,18.5,7.6c4.6,5.1,6.9,11.9,6.9,20.5c0,0.9-0.1,2.3-0.2,4.4H1654.9z M1683.2,235
				c-1.3-8.1-5.8-12.2-13.5-12.2c-7.3,0-12,4.1-14.2,12.2H1683.2z"/>
			<path class="st4" d="M1744.3,220.1l-7,7c-3.3-2.9-6.3-4.4-9.1-4.4c-1.9,0-3.5,0.5-4.7,1.6c-1.2,1.1-1.9,2.4-1.9,3.9
				c0,1.5,0.5,2.8,1.6,3.9c1,1.1,3.2,2.5,6.5,4.4c4.7,2.6,7.9,5.1,9.5,7.3c1.7,2.2,2.6,5,2.6,8.4c0,5-1.7,9-5.2,12
				c-3.5,3-8.1,4.5-13.8,4.5c-7.7,0-14.1-3.5-19.1-10.4l8.1-5.6c3.3,4,6.8,6,10.6,6c2.1,0,3.8-0.6,5.1-1.7c1.3-1.1,1.9-2.6,1.9-4.4
				c0-1.6-0.5-2.8-1.6-3.8c-0.5-0.5-1.4-1.2-2.7-2c-1.3-0.9-3.1-1.9-5.3-3.1c-3.9-2.2-6.7-4.3-8.2-6.4c-1.5-2.2-2.3-4.9-2.3-8
				c0-4.8,1.7-8.7,5.2-11.8c3.5-3.1,7.9-4.7,13.3-4.7C1733.8,212.5,1739.2,215,1744.3,220.1z"/>
			<path class="st4" d="M1771.4,214.3l-6.5,52.6h-12.3l6.5-52.6H1771.4z M1775.3,189.3c0,1.8-0.7,3.3-2,4.6c-1.3,1.3-2.9,2-4.7,2
				s-3.4-0.7-4.7-2c-1.3-1.4-2-3-2-4.9c0-1.8,0.6-3.4,1.9-4.6c1.3-1.3,2.8-2,4.6-2c1.8,0,3.4,0.7,4.7,2.1
				C1774.6,185.8,1775.3,187.4,1775.3,189.3z"/>
			<path class="st4" d="M1841.5,214.3l-6.5,53c-0.4,3.2-0.9,5.9-1.4,8.3c-0.5,2.3-1.1,4.3-1.7,5.9c-1.3,3.3-3.2,6.1-5.8,8.4
				c-5,4.5-11.5,6.7-19.4,6.7c-8.2,0-14.9-2.2-20-6.5c-2.6-2.2-4.4-4.6-5.5-7.4c-1-2.5-1.6-6.1-1.6-10.7h11.9
				c0.3,4.9,1.6,8.6,3.8,10.8c2.2,2.3,5.7,3.4,10.4,3.4c5.1,0,8.9-1.3,11.6-4c2.6-2.7,4.3-7,5-12.9l0.9-7.2c-5.2,4-10.7,6-16.4,6
				c-7.1,0-13-2.4-17.7-7.3c-4.7-5-7-11.2-7-18.6c0-8.4,2.7-15.3,8.1-20.8c5.4-5.5,12.2-8.3,20.4-8.3c3.9,0,7.1,0.6,9.5,1.7
				c2.6,1.1,5.4,3.1,8.2,6.1l0.8-6.5H1841.5z M1827.3,239.2c0-4.8-1.5-8.6-4.4-11.5c-2.9-2.9-6.7-4.4-11.4-4.4
				c-4.9,0-8.9,1.8-12.2,5.4c-3.2,3.5-4.8,8-4.8,13.3c0,4.7,1.4,8.5,4.1,11.5c2.8,2.9,6.5,4.3,11.1,4.3c5.1,0,9.3-1.7,12.6-5.2
				C1825.6,249,1827.3,244.6,1827.3,239.2z"/>
			<path class="st4" d="M1871.1,214.3l-0.6,4.9c4.9-4.1,9.8-6.1,14.8-6.1c5.1,0,9.2,1.4,12.3,4.3c3,2.9,4.5,6.8,4.5,11.7
				c0,2.7-0.2,5.9-0.7,9.6l-3.5,28.3h-12.3l3.8-30.9c0.1-1.2,0.3-2.2,0.3-3.1c0.1-0.9,0.1-1.7,0.1-2.4c0-4.8-2.6-7.1-7.7-7.1
				c-3.2,0-5.9,1-8.2,2.9c-1.9,1.5-3.2,3.4-4.1,5.6c-0.5,1.1-0.9,2.5-1.2,4.1c-0.3,1.6-0.6,3.5-0.9,5.6l-3.1,25.3h-12.3l6.5-52.6
				H1871.1z"/>
			<path class="st4" d="M1649.8,325.8l7.1,94.4h-12.2l-3.9-54.9l-33.4,61l-18.5-61l-17.2,54.9h-13.1l29.8-92.3l21.8,70.5
				L1649.8,325.8z"/>
			<path class="st4" d="M1729.6,367.5l-6.5,52.6h-12.3l0.7-5.7c-5.3,4.6-10.8,6.9-16.4,6.9c-7,0-12.6-2.4-17-7.1
				c-4.4-4.7-6.6-10.8-6.6-18.4c0-8.7,2.5-15.8,7.5-21.3c5.1-5.5,11.6-8.3,19.6-8.3c3.8,0,7,0.6,9.6,1.8c2.7,1.2,5.4,3.4,8.2,6.4
				l0.8-6.9H1729.6z M1714.6,392.3c0-4.7-1.3-8.4-4-11.3c-2.7-2.9-6.1-4.4-10.4-4.4c-4.6,0-8.5,1.8-11.6,5.4
				c-3.1,3.6-4.7,8.1-4.7,13.4c0,4.6,1.3,8.4,3.9,11.3c2.6,2.9,6,4.4,10,4.4c4.5,0,8.5-1.8,11.8-5.5
				C1713,401.9,1714.6,397.4,1714.6,392.3z"/>
			<path class="st4" d="M1759.2,367.5l-0.6,4.5c4.2-3.9,8.4-5.9,12.6-5.9c3.7,0,7.1,1.4,10.2,4.1l-7.9,10.2
				c-2.3-1.9-4.5-2.9-6.8-2.9c-1.6,0-2.9,0.3-4.1,0.9c-1.2,0.6-2.2,1.6-3.1,2.9c-0.9,1.3-1.6,3-2.2,5.1c-0.6,2.1-1,4.6-1.4,7.5
				l-3.2,26.2h-12.3l6.5-52.6H1759.2z"/>
			<path class="st4" d="M1808.1,325.8l-7.6,62.1l22.1-20.4h16.5l-27.6,24l22.2,28.6h-14.9l-19.1-25l-3.1,25h-12.3l11.6-94.3H1808.1z
				"/>
			<path class="st4" d="M1855.7,398.3c0,3.9,1.3,7.1,4,9.5c2.7,2.5,6.2,3.7,10.4,3.7c5.8,0,10.2-2.2,13.3-6.5l9.2,5.1
				c-3.2,4.3-6.5,7.3-9.9,9c-3.4,1.7-7.7,2.6-12.8,2.6c-8.2,0-14.6-2.4-19.5-7.2c-4.8-4.8-7.3-11.2-7.3-19.3c0-8.4,2.7-15.4,8-21.1
				c5.3-5.6,12-8.4,20-8.4c7.8,0,14,2.5,18.5,7.6c4.6,5.1,6.9,11.9,6.9,20.5c0,0.9-0.1,2.3-0.2,4.4H1855.7z M1884,388.3
				c-1.3-8.1-5.8-12.2-13.5-12.2c-7.3,0-12,4.1-14.2,12.2H1884z"/>
			<path class="st4" d="M1925.5,379l-5.1,41.1h-12.3l5.1-41.1h-7l1.4-11.4h7l3-24.4h12.3l-3,24.4h11.4l-1.4,11.4H1925.5z"/>
			<path class="st4" d="M1615.4,487.2l-1.5,11.9h-29.8l-2.7,22.2h29.8l-1.3,11.1H1580l-5,41h-12.8l10.7-86.2H1615.4z"/>
			<path class="st4" d="M1635.6,520.8l-6.5,52.6h-12.3l6.5-52.6H1635.6z M1639.5,495.8c0,1.8-0.7,3.3-2,4.6c-1.3,1.3-2.9,2-4.7,2
				c-1.8,0-3.4-0.7-4.7-2c-1.3-1.4-2-3-2-4.9c0-1.8,0.6-3.4,1.9-4.6c1.3-1.3,2.8-2,4.6-2c1.8,0,3.4,0.7,4.7,2.1
				C1638.8,492.4,1639.5,494,1639.5,495.8z"/>
			<path class="st4" d="M1664.7,532.3l-5.1,41.1h-12.3l5.1-41.1h-7l1.4-11.4h7l3-24.4h12.3l-3,24.4h11.4l-1.4,11.4H1664.7z"/>
			<path class="st4" d="M1719.7,567.3c0,2.1-0.7,3.8-2.1,5.2c-1.4,1.4-3.2,2.1-5.2,2.1c-2.1,0-3.9-0.7-5.4-2.2
				c-1.5-1.5-2.2-3.3-2.2-5.6c0-2,0.7-3.8,2.1-5.2c1.5-1.4,3.3-2.1,5.4-2.1c1,0,2,0.2,2.9,0.6c0.9,0.4,1.7,0.9,2.4,1.6
				c0.7,0.7,1.2,1.5,1.6,2.5C1719.5,565.1,1719.7,566.2,1719.7,567.3z M1727.9,487.2l-7.8,63.6h-12.2l7.8-63.6H1727.9z"/>
		</g>
		<g>
			<line class="st3" x1="1555.3" y1="290.1" x2="1767.9" y2="290.1"/>
			<rect x="1555.3" y="279.6" class="st4" width="212.6" height="21"/>
		</g>
		<g>
			<line class="st3" x1="1555.3" y1="594.7" x2="1767.9" y2="594.7"/>
			<rect x="1555.3" y="584.2" class="st4" width="212.6" height="21"/>
		</g>
		<g>
			<line class="st3" x1="1555.3" y1="443.3" x2="1943.6" y2="443.3"/>
			<rect x="1555.3" y="432.8" class="st4" width="388.3" height="21"/>
		</g>
		<g>
			<line class="st3" x1="1840" y1="290.1" x2="1910.3" y2="290.1"/>
			<rect x="1840" y="279.6" class="st4" width="70.3" height="21"/>
		</g>
	</g>
	<g>
		<g>
			<rect x="3489.8" y="1073.7" class="st3" width="75.9" height="137"/>
			<path class="st3" d="M3565.6,1231.7h-75.9c-11.6,0-21-9.4-21-21v-137c0-11.6,9.4-21,21-21h75.9c11.6,0,21,9.4,21,21v137
				C3586.6,1222.3,3577.2,1231.7,3565.6,1231.7z M3510.8,1189.7h33.9v-95h-33.9V1189.7z"/>
		</g>
		<g>
			<rect x="3502.2" y="1088.1" class="st3" width="51" height="90.3"/>
			<path class="st3" d="M3553.2,1199.4h-51c-11.6,0-21-9.4-21-21v-90.3c0-11.6,9.4-21,21-21h51c11.6,0,21,9.4,21,21v90.3
				C3574.2,1190,3564.8,1199.4,3553.2,1199.4z M3523.2,1157.4h9v-48.3h-9V1157.4z"/>
		</g>
		<g>
			<circle class="st3" cx="3527.7" cy="1195.1" r="8.1"/>
			<path class="st3" d="M3527.7,1224.2c-16,0-29.1-13-29.1-29.1c0-16,13-29.1,29.1-29.1s29.1,13,29.1,29.1
				C3556.8,1211.2,3543.7,1224.2,3527.7,1224.2z M3527.7,1182.2c-7.1,0-12.9,5.8-12.9,12.9s5.8,12.9,12.9,12.9s12.9-5.8,12.9-12.9
				S3534.8,1182.2,3527.7,1182.2z"/>
		</g>
		<g>
			<polyline class="st3" points="3530,1133.2 3521.9,1111.9 3513.7,1133.2 3502.2,1133.2 			"/>
			<path class="st3" d="M3513.7,1154.2h-11.5v-25.4l-8.1-3.1l8.2-21.3c3.1-8.1,10.9-13.5,19.6-13.5c8.7,0,16.5,5.4,19.6,13.5
				l8.2,21.3l-12.4,4.7l-3.9,10.3C3530.2,1148.9,3522.4,1154.2,3513.7,1154.2z"/>
		</g>
		<g>
			<polyline class="st3" points="3530,1133.2 3538.2,1154.6 3546.3,1133.2 3553.7,1133.2 			"/>
			<path class="st3" d="M3538.2,1175.6L3538.2,1175.6c-8.7,0-16.5-5.4-19.6-13.5l-8.2-21.3l12.4-4.7l3.9-10.3
				c3.1-8.1,10.9-13.5,19.6-13.5h7.3v23.8l12.3,4.7l-8.2,21.3C3554.7,1170.2,3546.9,1175.6,3538.2,1175.6z"/>
		</g>
	</g>
	<g>
		<g>
			<rect x="3489.8" y="1073.7" class="st3" width="75.9" height="137"/>
			<path class="st4" d="M3565.6,1073.7v137h-75.9v-137H3565.6 M3565.6,1058.7h-75.9c-8.3,0-15,6.7-15,15v137c0,8.3,6.7,15,15,15
				h75.9c8.3,0,15-6.7,15-15v-137C3580.6,1065.4,3573.9,1058.7,3565.6,1058.7L3565.6,1058.7z"/>
		</g>
		<g>
			<rect x="3502.2" y="1088.1" class="st3" width="51" height="90.3"/>
			<path class="st4" d="M3553.2,1088.1v90.3h-51v-90.3H3553.2 M3553.2,1087.1h-51c-0.6,0-1,0.4-1,1v90.3c0,0.6,0.4,1,1,1h51
				c0.6,0,1-0.4,1-1v-90.3C3554.2,1087.5,3553.7,1087.1,3553.2,1087.1L3553.2,1087.1z"/>
		</g>
		<g>
			<circle class="st3" cx="3527.7" cy="1195.1" r="8.1"/>
			<path class="st4" d="M3527.7,1187.1c4.5,0,8.1,3.6,8.1,8.1s-3.6,8.1-8.1,8.1c-4.5,0-8.1-3.6-8.1-8.1S3523.2,1187.1,3527.7,1187.1
				 M3527.7,1186.1c-5,0-9.1,4.1-9.1,9.1s4.1,9.1,9.1,9.1s9.1-4.1,9.1-9.1S3532.7,1186.1,3527.7,1186.1L3527.7,1186.1z"/>
		</g>
		<g>
			<polyline class="st3" points="3530,1133.2 3521.9,1111.9 3513.7,1133.2 3502.2,1133.2 			"/>
			<path class="st4" d="M3513.7,1133.7h-11.5v-1h11.2l8-21c0.1-0.4,0.8-0.4,0.9,0l8.2,21.3l-0.9,0.4l-7.7-20.1l-7.7,20.1
				C3514.1,1133.6,3513.9,1133.7,3513.7,1133.7z"/>
		</g>
		<g>
			<polyline class="st3" points="3530,1133.2 3538.2,1154.6 3546.3,1133.2 3553.7,1133.2 			"/>
			<path class="st4" d="M3538.2,1155.1L3538.2,1155.1c-0.2,0-0.4-0.1-0.5-0.3l-8.2-21.3l0.9-0.4l7.7,20.1l7.7-20.1
				c0.1-0.2,0.3-0.3,0.5-0.3h7.3v1h-7l-8,21C3538.6,1154.9,3538.4,1155.1,3538.2,1155.1z"/>
		</g>
	</g>
	<g>
		<circle class="st3" cx="3938.1" cy="649.9" r="29.2"/>
		<path class="st4" d="M3938.1,620.7c0,16.2,13.1,29.2,29.2,29.2c-16.2,0-29.2,13.1-29.2,29.2c0-16.2-13.1-29.2-29.2-29.2
			C3925.1,649.9,3938.1,636.8,3938.1,620.7 M3938.1,605.7c-8.3,0-15,6.7-15,15c0,7.9-6.4,14.2-14.2,14.2c-8.3,0-15,6.7-15,15
			c0,8.3,6.7,15,15,15c7.9,0,14.2,6.4,14.2,14.2c0,8.3,6.7,15,15,15s15-6.7,15-15c0-7.9,6.4-14.2,14.2-14.2c8.3,0,15-6.7,15-15
			c0-8.3-6.7-15-15-15c-7.9,0-14.2-6.4-14.2-14.2C3953.1,612.4,3946.4,605.7,3938.1,605.7L3938.1,605.7z"/>
	</g>
	<g>
		<circle class="st3" cx="3987.1" cy="698.9" r="17.8"/>
		<path class="st4" d="M3987.1,681.2c0,9.8,7.9,17.8,17.8,17.8c-9.8,0-17.8,7.9-17.8,17.8c0-9.8-7.9-17.8-17.8-17.8
			C3979.2,698.9,3987.1,691,3987.1,681.2 M3987.1,666.2c-8.3,0-15,6.7-15,15c0,1.5-1.2,2.8-2.8,2.8c-8.3,0-15,6.7-15,15
			s6.7,15,15,15c1.5,0,2.8,1.2,2.8,2.8c0,8.3,6.7,15,15,15s15-6.7,15-15c0-1.5,1.2-2.8,2.8-2.8c8.3,0,15-6.7,15-15s-6.7-15-15-15
			c-1.5,0-2.8-1.2-2.8-2.8C4002.1,672.9,3995.4,666.2,3987.1,666.2L3987.1,666.2z"/>
	</g>
	<text transform="matrix(1 0 0 1 1954.353 1419.7206)" class="st4 st5 st6">Analisis</text>
	<text transform="matrix(1 0 0 1 3580.353 488.7206)" class="st4 st5 st6">User: loving it !</text>
	<g>
		<g>
			<circle class="st3" cx="365.2" cy="606.9" r="29.2"/>
			<path class="st3" d="M365.2,577.7c16.1,0,29.2,13.1,29.2,29.2c0,16.1-13.1,29.2-29.2,29.2S336,623.1,336,606.9
				C336,590.8,349.1,577.7,365.2,577.7 M365.2,545.7c-33.8,0-61.2,27.5-61.2,61.2s27.5,61.2,61.2,61.2s61.2-27.5,61.2-61.2
				S399,545.7,365.2,545.7L365.2,545.7z"/>
		</g>
		<g>
			<path class="st3" d="M430.8,729.7c0-36.2-29.4-65.6-65.6-65.6s-65.6,29.4-65.6,65.6"/>
			<path class="st3" d="M451.8,729.7h-42c0-24.6-20-44.6-44.6-44.6s-44.6,20-44.6,44.6h-42c0-47.8,38.9-86.6,86.6-86.6
				S451.8,681.9,451.8,729.7z"/>
		</g>
	</g>
	<text transform="matrix(1 0 0 1 2961.353 1416.7206)" class="st4 st5 st6">Your own design !</text>
	<text transform="matrix(1 0 0 1 2428.353 482.7206)" class="st4 st5 st6">Design test</text>
	<g>
		<g>
			<circle class="st3" cx="1168.2" cy="606.9" r="29.2"/>
			<path class="st3" d="M1168.2,577.7c16.1,0,29.2,13.1,29.2,29.2c0,16.1-13.1,29.2-29.2,29.2s-29.2-13.1-29.2-29.2
				C1139,590.8,1152.1,577.7,1168.2,577.7 M1168.2,545.7c-33.8,0-61.2,27.5-61.2,61.2s27.5,61.2,61.2,61.2s61.2-27.5,61.2-61.2
				S1202,545.7,1168.2,545.7L1168.2,545.7z"/>
		</g>
		<g>
			<path class="st3" d="M1233.8,729.7c0-36.2-29.4-65.6-65.6-65.6s-65.6,29.4-65.6,65.6"/>
			<path class="st3" d="M1254.8,729.7h-42c0-24.6-20-44.6-44.6-44.6s-44.6,20-44.6,44.6h-42c0-47.8,38.9-86.6,86.6-86.6
				S1254.8,681.9,1254.8,729.7z"/>
		</g>
	</g>
	<g>
		<g class="st0">
			<polygon class="st7" points="391.4,765.2 1156.4,765.2 877.4,1247.2 876.9,1247.2 669.9,1247.2 			"/>
			<path class="st7" d="M883.5,1257.7H663.8l-290.6-503h801.4L883.5,1257.7z M676,1236.7h195.4l266.8-461H409.6L676,1236.7z"/>
		</g>
		<g>
			<defs>
				<polygon id="SVGID_1_" points="371.4,755.2 293.4,755.2 65.4,1257.2 660.4,1257.2 				"/>
			</defs>
			<clipPath id="SVGID_2_">
				<use xlink:href="#SVGID_1_"  style="overflow:visible;"/>
			</clipPath>
			<g class="st8">
				<polygon class="st9" points="83.9,1247.2 641.9,1247.2 362.9,765.2 				"/>
				<path class="st9" d="M660.1,1257.7H65.7l297.2-513.5L660.1,1257.7z M102.1,1236.7h521.6L362.9,786.1L102.1,1236.7z"/>
			</g>
		</g>
	</g>
	<g>
		<g>
			<circle class="st3" cx="643.2" cy="1098.9" r="29.2"/>
			<path class="st3" d="M643.2,1069.7c16.1,0,29.2,13.1,29.2,29.2s-13.1,29.2-29.2,29.2s-29.2-13.1-29.2-29.2
				S627.1,1069.7,643.2,1069.7 M643.2,1037.7c-33.8,0-61.2,27.5-61.2,61.2c0,33.8,27.5,61.2,61.2,61.2s61.2-27.5,61.2-61.2
				C704.5,1065.2,677,1037.7,643.2,1037.7L643.2,1037.7z"/>
		</g>
		<g>
			<path class="st3" d="M708.8,1221.7c0-36.2-29.4-65.6-65.6-65.6s-65.6,29.4-65.6,65.6"/>
			<path class="st3" d="M729.8,1221.7h-42c0-24.6-20-44.6-44.6-44.6s-44.6,20-44.6,44.6h-42c0-47.8,38.9-86.6,86.6-86.6
				S729.8,1173.9,729.8,1221.7z"/>
		</g>
	</g>
	<g>
		<g>
			<circle class="st3" cx="365.2" cy="606.9" r="29.2"/>
			<path class="st4" d="M365.2,577.7c16.1,0,29.2,13.1,29.2,29.2s-13.1,29.2-29.2,29.2S336,623.1,336,606.9S349.1,577.7,365.2,577.7
				 M365.2,556.7c-27.7,0-50.2,22.5-50.2,50.2s22.5,50.2,50.2,50.2s50.2-22.5,50.2-50.2S392.9,556.7,365.2,556.7L365.2,556.7z"/>
		</g>
		<g>
			<path class="st3" d="M299.6,729.7c0-36.2,29.4-65.6,65.6-65.6s65.6,29.4,65.6,65.6"/>
			<path class="st4" d="M441.3,729.7h-21c0-30.4-24.7-55.1-55.1-55.1s-55.1,24.7-55.1,55.1h-21c0-42,34.1-76.1,76.1-76.1
				S441.3,687.7,441.3,729.7z"/>
		</g>
	</g>
	<g>
		<circle class="st3" cx="643.3" cy="1099.4" r="29.2"/>
		<path class="st4" d="M643.3,1070.1c16.1,0,29.2,13.1,29.2,29.2s-13.1,29.2-29.2,29.2c-16.1,0-29.2-13.1-29.2-29.2
			S627.1,1070.1,643.3,1070.1 M643.3,1049.1c-27.7,0-50.2,22.5-50.2,50.2c0,27.7,22.5,50.2,50.2,50.2s50.2-22.5,50.2-50.2
			C693.5,1071.7,671,1049.1,643.3,1049.1L643.3,1049.1z"/>
	</g>
	<g>
		<g>
			<circle class="st3" cx="86.2" cy="1098.9" r="29.2"/>
			<path class="st3" d="M86.2,1069.7c16.1,0,29.2,13.1,29.2,29.2s-13.1,29.2-29.2,29.2S57,1115.1,57,1098.9S70.1,1069.7,86.2,1069.7
				 M86.2,1037.7c-33.8,0-61.2,27.5-61.2,61.2c0,33.8,27.5,61.2,61.2,61.2s61.2-27.5,61.2-61.2C147.5,1065.2,120,1037.7,86.2,1037.7
				L86.2,1037.7z"/>
		</g>
		<g>
			<path class="st3" d="M151.8,1221.7c0-36.2-29.4-65.6-65.6-65.6s-65.6,29.4-65.6,65.6"/>
			<path class="st3" d="M172.8,1221.7h-42c0-24.6-20-44.6-44.6-44.6s-44.6,20-44.6,44.6h-42c0-47.8,38.9-86.6,86.6-86.6
				S172.8,1173.9,172.8,1221.7z"/>
		</g>
	</g>
	<g>
		<path class="st3" d="M577.7,1222.2c0-36.2,29.4-65.6,65.6-65.6c36.2,0,65.6,29.4,65.6,65.6"/>
		<path class="st4" d="M719.4,1222.2h-21c0-30.4-24.7-55.1-55.1-55.1s-55.1,24.7-55.1,55.1h-21c0-42,34.1-76.1,76.1-76.1
			S719.4,1180.2,719.4,1222.2z"/>
	</g>
	<g>
		<g>
			<circle class="st10" cx="1168.3" cy="607.4" r="29.2"/>
			<path class="st4" d="M1168.3,578.1c16.1,0,29.2,13.1,29.2,29.2s-13.1,29.2-29.2,29.2s-29.2-13.1-29.2-29.2
				S1152.1,578.1,1168.3,578.1 M1168.3,557.1c-27.7,0-50.2,22.5-50.2,50.2s22.5,50.2,50.2,50.2c27.7,0,50.2-22.5,50.2-50.2
				S1196,557.1,1168.3,557.1L1168.3,557.1z"/>
		</g>
		<g>
			<path class="st10" d="M1102.7,730.2c0-36.2,29.4-65.6,65.6-65.6c36.2,0,65.6,29.4,65.6,65.6"/>
			<path class="st4" d="M1244.4,730.2h-21c0-30.4-24.7-55.1-55.1-55.1s-55.1,24.7-55.1,55.1h-21c0-42,34.1-76.1,76.1-76.1
				S1244.4,688.2,1244.4,730.2z"/>
		</g>
	</g>
	<g>
		<g>
			<circle class="st3" cx="86.5" cy="1099.4" r="29.2"/>
			<path class="st4" d="M86.5,1070.1c16.1,0,29.2,13.1,29.2,29.2s-13.1,29.2-29.2,29.2s-29.2-13.1-29.2-29.2
				S70.4,1070.1,86.5,1070.1 M86.5,1049.1c-27.7,0-50.2,22.5-50.2,50.2c0,27.7,22.5,50.2,50.2,50.2c27.7,0,50.2-22.5,50.2-50.2
				C136.7,1071.7,114.2,1049.1,86.5,1049.1L86.5,1049.1z"/>
		</g>
		<g>
			<path class="st3" d="M20.9,1222.2c0-36.2,29.4-65.6,65.6-65.6s65.6,29.4,65.6,65.6"/>
			<path class="st4" d="M162.6,1222.2h-21c0-30.4-24.7-55.1-55.1-55.1s-55.1,24.7-55.1,55.1h-21c0-42,34.1-76.1,76.1-76.1
				S162.6,1180.2,162.6,1222.2z"/>
		</g>
	</g>
	<g>
		<line class="st3" x1="149.2" y1="1038.1" x2="302.2" y2="773.1"/>
		<rect x="72.7" y="895.1" transform="matrix(0.5 -0.866 0.866 0.5 -671.3909 648.2919)" class="st4" width="306" height="21"/>
	</g>
	<g>
		<line class="st3" x1="517.9" y1="1146.4" x2="212" y2="1146.4"/>
		<rect x="212" y="1135.9" class="st4" width="305.9" height="21"/>
	</g>
	<g>
		<line class="st3" x1="1048.9" y1="660.4" x2="490" y2="660.4"/>
		<rect x="490" y="649.9" class="st4" width="558.9" height="21"/>
	</g>
	<g>
		<line class="st3" x1="427.7" y1="773.1" x2="580.7" y2="1038.1"/>
		<rect x="493.7" y="752.6" transform="matrix(0.866 -0.5 0.5 0.866 -385.241 373.4406)" class="st4" width="21" height="306"/>
	</g>
	<g>
		<path class="st3" d="M1160.4,384.2h-1049c-34.1,0-62,27.9-62,62s27.9,62,62,62h189.5l3.5,33l60.5-33h141l-9.5,33l73.5-33h328
			l7.5,33l56.5-33h5h32.5l73.5,33l-9.5-33h97c34.1,0,62-27.9,62-62S1194.5,384.2,1160.4,384.2z"/>
		<path class="st4" d="M1160.4,384.2c34.1,0,62,27.9,62,62s-27.9,62-62,62h-97l9.5,33l-73.5-33h-32.5h-5l-56.5,33l-7.5-33h-328
			l-73.5,33l9.5-33h-141l-60.5,33l-3.5-33H111.4c-34.1,0-62-27.9-62-62s27.9-62,62-62H1160.4 M1160.4,363.2h-1049
			c-45.8,0-83,37.2-83,83s37.2,83,83,83H282l1.5,14.2c0.7,7,4.9,13.1,11.1,16.4c3.1,1.6,6.4,2.4,9.8,2.4c3.5,0,6.9-0.9,10.1-2.6
			l55.8-30.4H478l-1.8,6.2c-2.3,7.9,0.2,16.3,6.4,21.7c3.9,3.4,8.8,5.1,13.8,5.1c2.9,0,5.8-0.6,8.6-1.8l69.4-31.2h306.7l3.8,16.6
			c1.5,6.5,6,12,12.1,14.6c2.7,1.2,5.5,1.7,8.4,1.7c3.7,0,7.3-1,10.6-2.9l51.6-30.1h27.3l69.4,31.2c2.8,1.2,5.7,1.8,8.6,1.8
			c5,0,9.9-1.8,13.8-5.1c6.2-5.4,8.7-13.8,6.4-21.7l-1.8-6.2h69.1c45.8,0,83-37.2,83-83S1206.2,363.2,1160.4,363.2L1160.4,363.2z"/>
	</g>
	<text transform="matrix(1 0 0 1 396.353 467.7206)" class="st10 st5 st6" style="text-decoration: underline;">Try discussion!</text>
</g>
</svg>
