<svg xmlns="http://www.w3.org/2000/svg" viewBox="0 0 195.051 96.778">
  <defs>
    <style>
      .cls-1, .cls-4, .cls-6 {
        fill: #fff;
      }

      .cls-1 {
        font-size: 28px;
        font-family: HiraginoSans-W6, Hiragino Sans;
      }

      .cls-2, .cls-3 {
        fill: none;
      }

      .cls-2, .cls-4 {
        stroke: #fff;
      }

      .cls-2 {
        stroke-width: 13px;
      }

      .cls-4 {
        stroke-linejoin: round;
      }

      .cls-5, .cls-6 {
        stroke: none;
      }
    </style>
  </defs>
  <g id="グループ化_2188" data-name="グループ化 2188" transform="translate(-45.247 -2729.492)">
    <text id="デザインを見る" class="cls-1" transform="translate(45.298 2754.492)"><tspan x="0" y="0">デザインを見る</tspan></text>
    <path id="パス_529" data-name="パス 529" class="cls-2" d="M-1234.07,14680.412h195.039" transform="translate(1279.329 -11911.977)"/>
    <g id="パス_619" data-name="パス 619" class="cls-3" transform="translate(138.345 2826.269) rotate(180)">
      <path class="cls-5" d="M16.144,0H76.954A16.4,16.4,0,0,1,93.1,16.635,16.4,16.4,0,0,1,76.954,33.269H16.144A16.4,16.4,0,0,1,0,16.635,16.4,16.4,0,0,1,16.144,0Z"/>
      <path class="cls-6" d="M 16.14409637451172 8.999992370605469 C 12.20481872558594 8.999992370605469 8.999992370605469 12.42488861083984 8.999992370605469 16.6346378326416 C 8.999992370605469 20.84438705444336 12.20481872558594 24.26928329467773 16.14409637451172 24.26928329467773 L 76.95350646972656 24.26928329467773 C 80.89277648925781 24.26928329467773 84.09759521484375 20.84438705444336 84.09759521484375 16.6346378326416 C 84.09759521484375 12.42488861083984 80.89277648925781 8.999992370605469 76.95350646972656 8.999992370605469 L 16.14409637451172 8.999992370605469 M 16.14409637451172 -7.62939453125e-06 L 76.95350646972656 -7.62939453125e-06 C 85.86963653564453 -7.62939453125e-06 93.09759521484375 7.447574615478516 93.09759521484375 16.6346378326416 C 93.09759521484375 25.82170104980469 85.86963653564453 33.26928329467773 76.95350646972656 33.26928329467773 L 16.14409637451172 33.26928329467773 C 7.227951049804688 33.26928329467773 -7.62939453125e-06 25.82170104980469 -7.62939453125e-06 16.6346378326416 C -7.62939453125e-06 7.447574615478516 7.227951049804688 -7.62939453125e-06 16.14409637451172 -7.62939453125e-06 Z"/>
    </g>
    <path id="パス_620" data-name="パス 620" class="cls-4" d="M-20822.912,13372.494v5.793l5.027-2.824Z" transform="translate(20912.645 -10565.591)"/>
  </g>
</svg>
