<svg xmlns="http://www.w3.org/2000/svg" viewBox="0 0 417.853 171.054">
  <defs>
    <style>
      .cls-1 {
        fill: none;
      }

      .cls-2, .cls-3, .cls-4 {
        fill: #0071bc;
      }

      .cls-3 {
        font-size: 21px;
      }

      .cls-3, .cls-4 {
        font-family: Futura-Bold, Futura;
        font-weight: 700;
      }

      .cls-4 {
        font-size: 39px;
      }

      .cls-5 {
        font-family: HiraginoSans-W3, Hiragino Sans;
        font-weight: 400;
      }
    </style>
  </defs>
  <g id="_03" data-name="03" transform="translate(1.187 80.356)">
    <g id="グループ化_2838" data-name="グループ化 2838" transform="translate(-1.19 19.787)">
      <path id="パス_1227" data-name="パス 1227" class="cls-1" d="M415.868,1185.793H-.223a.877.877,0,0,1-.877-.877v-23.239a.877.877,0,0,1,.877-.877h416.1a.877.877,0,0,1,.877.877v23.239A.89.89,0,0,1,415.868,1185.793Z" transform="translate(1.104 -1157.267)"/>
    </g>
    <g id="グループ化_2839" data-name="グループ化 2839" transform="translate(-1.071 -80.356)">
      <path id="パス_1228" data-name="パス 1228" class="cls-2" d="M407.469,1186.983H10.792A10.493,10.493,0,0,1,.3,1176.492h0A10.488,10.488,0,0,1,10.792,1166H407.469a10.488,10.488,0,0,1,10.492,10.492h0A10.493,10.493,0,0,1,407.469,1186.983Z" transform="translate(-0.298 -1061.889)"/>
      <rect id="長方形_1361" data-name="長方形 1361" class="cls-1" width="417.661" height="24.976" transform="translate(0.002 146.077)"/>
      <text id="Coming_soon..." data-name="Coming soon..." class="cls-3" transform="translate(0 164.612)"><tspan x="0" y="0">Coming soon...</tspan></text>
      <rect id="長方形_1362" data-name="長方形 1362" class="cls-1" width="417.661" height="38.968" transform="translate(0.002 49.155)"/>
      <text id="Magazine_デザインは物語" data-name="Magazine
デザインは物語" class="cls-4" transform="translate(0 41)"><tspan x="0" y="0">Magazine</tspan><tspan class="cls-5"><tspan x="0" y="47">デザインは物語</tspan></tspan></text>
    </g>
  </g>
</svg>
