<?xml version="1.0" encoding="utf-8"?>
<!-- Generator: Adobe Illustrator 22.1.0, SVG Export Plug-In . SVG Version: 6.00 Build 0)  -->
<svg version="1.1" id="レイヤー_1" xmlns="http://www.w3.org/2000/svg" xmlns:xlink="http://www.w3.org/1999/xlink" x="0px"
	 y="0px" viewBox="0 0 5000 1993.4" style="enable-background:new 0 0 5000 1993.4;" xml:space="preserve">
<style type="text/css">
	.st0{fill:#0071BC;}
	.st1{fill:none;}
	.st2{font-family:'Futura-Bold';}
	.st3{font-size:263.1579px;}
	.st4{font-size:478.4689px;}
	.st5{font-family:'SourceHanSansJP-Heavy-83pv-RKSJ-H';}
</style>
<path class="st0" d="M4874.4,1421.2H125.6C56.2,1421.2,0,1364.9,0,1295.6l0,0c0-69.4,56.2-125.6,125.6-125.6h4748.8
	c69.4,0,125.6,56.2,125.6,125.6l0,0C5000,1364.9,4943.8,1421.2,4874.4,1421.2z"/>
<rect y="1672.4" class="st1" width="5000" height="299"/>
<text transform="matrix(1 0 0 1 9.765625e-04 1903.9463)" class="st0 st2 st3">Coming soon...</text>
<rect y="512.1" class="st1" width="5000" height="466.5"/>
<text transform="matrix(1 0 0 1 9.765625e-04 420.6787)" class="st0 st2 st4">Magazine</text>
<text transform="matrix(1 0 0 1 9.765625e-04 939.1667)" class="st0 st5 st4">プロジェクトの中身</text>
</svg>
