<?xml version="1.0" encoding="utf-8"?>
<!-- Generator: Adobe Illustrator 22.1.0, SVG Export Plug-In . SVG Version: 6.00 Build 0)  -->
<svg version="1.1" id="レイヤー_1" xmlns="http://www.w3.org/2000/svg" xmlns:xlink="http://www.w3.org/1999/xlink" x="0px"
	 y="0px" viewBox="0 0 2348 5000" style="enable-background:new 0 0 2348 5000;" xml:space="preserve">
<style type="text/css">
	.st0{fill:#FFFFFF;}
	.st1{fill:#4D4D4D;}
	.st2{fill:#333333;}
	.st3{fill:#808080;}
	.st4{fill:#00FFFF;}
	.st5{opacity:0.8;fill:#808080;}
	.st6{clip-path:url(#SVGID_2_);fill:#545454;}
	.st7{clip-path:url(#SVGID_2_);fill:#5E5E5E;}
	.st8{clip-path:url(#SVGID_2_);fill:#686868;}
	.st9{clip-path:url(#SVGID_2_);fill:#7A7A7A;}
</style>
<path class="st0" d="M3390,4466.7"/>
<g>
	<path class="st1" d="M196.8,74.1L196.8,74.1L85.5,174.6l0,0c61.2-53,148.7-75.6,245.9-54.7l1551.2,333.1
		c185,39.7,334.9,221.9,334.9,406.8v3868.9c0,76.3-89.9,170.5-132.9,217.6"/>
	<path class="st1" d="M2344,4613.8V744.9c0-185-149.9-367.1-334.9-406.8L457.9,5"/>
	<line class="st1" x1="2135.2" y1="4931.1" x2="2267.5" y2="4810.5"/>
	<path class="st2" d="M331.4,120l1551.2,333.1c185,39.7,334.9,221.9,334.9,406.8v3868.9c0,185-149.9,302.7-334.9,263L331.4,4658.7
		C146.4,4619-3.5,4436.8-3.5,4251.9"/>
	<path class="st0" d="M2273.4,4804"/>
	<path class="st3" d="M2344,744.9c0-185-149.9-367.1-334.9-406.8L482.3,9.5C266.4-47.1,66.5,150.6,23.2,268.3
		c0,0,211.1-169.2,308.2-148.3l1551.2,333.1c185,39.7,334.9,221.9,334.9,406.8"/>
	<path class="st1" d="M331.9,4658.5l1550.5,326.8c65.3,37.6,348.2,13.5,438.3-255.5c16-47.7,23.7-97.7,23.7-148L2343.3,757"/>
	<g>
		<path class="st1" d="M1161.4,508.4l-238.9-51.3c-9.3-2-16.8-11.1-16.8-20.4v0c0-9.3,7.5-15.2,16.8-13.2l238.9,51.3
			c9.3,2,16.8,11.1,16.8,20.4v0C1178.2,504.5,1170.7,510.4,1161.4,508.4z"/>
	</g>
	<path class="st2" d="M2217.5,859.9c0-185-149.9-367.1-334.9-406.8L331.4,120C146.4,80.3-3.5,175-3.5,429.6v3822.3
		c0,233.7,132.2,364.7,334.9,406.8l1551.2,333.1c147.5,29.1,334.9-78,334.9-263V859.9"/>
	<path class="st4" d="M1827,578.6l-192.5-42.1c-27.5-6.1-52,10.5-58.6,34.5c-2.6,9.5-0.8,9.1-12.7,45.1
		c-16.1,48.7-107.2,23.2-107.5,23.5L634.8,464.5c-7.9-1.7-88.5-14.1-103.1-67.4c-11.1-40.8-7.6-28.8-13.9-52.6
		c-5-19.2-12.7-43.9-54.2-56.5l-198-43.2C139.7,217.8,22,265,20.9,447.2v3858c0,104.8,37.8,170.2,75.6,213.5
		c52.7,60.2,123.7,101.4,202,117.9l1460.7,308.9c132.6,30.4,266.5-16.6,304.3-140.8c6.3-20.8,9.3-42.6,9.3-64.3V906.7
		C2072.3,740.3,1983.5,620.4,1827,578.6z"/>
	<g>
		
			<ellipse transform="matrix(0.7439 -0.6683 0.6683 0.7439 -162.1166 190.3768)" class="st1" cx="167.3" cy="306.7" rx="13.6" ry="16.9"/>
	</g>
	<g>
		
			<ellipse transform="matrix(0.7439 -0.6683 0.6683 0.7439 -157.5665 219.6068)" class="st1" cx="207.7" cy="315.4" rx="13.6" ry="16.9"/>
	</g>
	<g>
		
			<ellipse transform="matrix(0.7439 -0.6683 0.6683 0.7439 -153.0603 248.8537)" class="st1" cx="248.2" cy="324.1" rx="13.6" ry="16.9"/>
	</g>
	<g>
		
			<ellipse transform="matrix(0.7439 -0.6683 0.6683 0.7439 -148.4661 278.0668)" class="st1" cx="288.6" cy="332.7" rx="13.6" ry="16.9"/>
	</g>
	<g>
		
			<ellipse transform="matrix(0.7439 -0.6683 0.6683 0.7439 -143.96 307.3137)" class="st1" cx="329" cy="341.5" rx="13.6" ry="16.9"/>
	</g>
	<g>
		<path class="st1" d="M424.1,377l-12.4,9.8l-12.4-15.1l0,0c2.9-3.1,7.4-4.5,12.4-3.4C416.7,369.3,421.2,372.7,424.1,377L424.1,377z
			"/>
	</g>
	<g>
		<path class="st1" d="M429.9,372.4l5.9-4.7l0,0c-5.9-8-14.6-14.1-24.2-16.1c-9.6-2.1-18.3,0.3-24.2,5.7l0,0l5.9,7.2l0,0
			c4.4-4.2,10.9-6.1,18.3-4.6C419,361.6,425.5,366.3,429.9,372.4L429.9,372.4z"/>
	</g>
	<g>
		<path class="st1" d="M381.8,350.5l-6-7.3l0,0c8.9-7.8,21.7-11.1,35.8-8c14.2,3,26.9,11.8,35.8,23.4l0,0l-6,4.7
			c-7.4-9.7-18-17.1-29.8-19.7C399.8,341.2,389.2,344,381.8,350.5L381.8,350.5z"/>
	</g>
	<g>
		<path class="st1" d="M1916,708.9l-108.6-23.3c-4.4-1-8.1-5.3-8.1-9.8v-37.2c0-4.4,3.6-7.3,8.1-6.3l108.6,23.3
			c4.4,1,8.1,5.3,8.1,9.8v37.2C1924,707.1,1920.4,709.9,1916,708.9z"/>
	</g>
	<g>
		<path class="st1" d="M1932.7,696.3l4.6,1c1.4,0.3,2.5-0.6,2.5-1.9v-15c0-1.4-1.1-2.7-2.5-3l-4.6-1V696.3z"/>
	</g>
	<path class="st2" d="M2269.1,1494.9c-2.1,6.4-3.5,13.7-4,21.9v652.4c0,5.3,1.3,9.6,3.5,13l0,0l-16.2-18.8l0,0
		c-3.2-3.5-5.1-8.6-5.1-15v-652.4c0.5-28.1,14.6-46.1,32.5-54.7h0c12-5.7,22.4-4.2,28.1,2.7l0,0l18.6,21.2c2.7,3.4,4.2,8.2,4.2,14
		v659c0,18-14.6,39.5-32.5,48.1l0,0c-18,8.6-32.5,1-32.5-17v-659"/>
	<path class="st1" d="M2298.2,2186.1L2298.2,2186.1c-18,8.6-32.5,1-32.5-17v-659c0-18,14.6-39.5,32.5-48.1l0,0
		c18-8.6,32.5-1,32.5,17v659C2330.8,2156,2316.2,2177.5,2298.2,2186.1z"/>
	<path class="st5" d="M2344,752.3"/>
	<g>
		<defs>
			<path id="SVGID_1_" d="M196.8,74.1L196.8,74.1L85.5,174.6l-5.5,4.5c61.2-53,154.2-80,251.4-59.1l1551.2,333.1
				c185,39.7,334.9,221.9,334.9,406.8L2344,753.8c0.5-221.2-174.4-382.7-359.3-422.4L471.2,23.9"/>
		</defs>
		<clipPath id="SVGID_2_">
			<use xlink:href="#SVGID_1_"  style="overflow:visible;"/>
		</clipPath>
		<polygon class="st6" points="1602,1389.4 3050.9,72.4 2954.4,191.1 1688.5,1341.7 		"/>
		<polygon class="st7" points="1573.5,1384.3 3120.6,-22 3017.6,104.7 1665.8,1333.5 		"/>
		<polygon class="st8" points="1573.5,1353.4 3120.6,-53 3017.6,73.8 1665.8,1302.5 		"/>
		<polygon class="st9" points="1573.5,1322.4 3120.6,-84 3017.6,42.8 1665.8,1271.5 		"/>
	</g>
	<g>
		<g>
			<path class="st0" d="M782.5,2499.8c0,9.4-8.2,14.9-17.4,11.9c-1.2-0.4-2.4-0.7-3.6-1c-3.8-0.8-7.4-0.9-10.7-0.3
				c-3.3,0.6-6.2,1.9-8.7,3.8s-4.5,4.4-5.9,7.4c-1.4,3-2.1,6.6-2.1,10.8c0,4,0.7,7.8,2.1,11.4c1.4,3.6,3.3,6.9,5.7,9.9
				c2.4,2.9,5.3,5.5,8.7,7.5c3.4,2.1,7,3.5,10.8,4.3c1.2,0.3,2.3,0.4,3.5,0.5c9.3,0.9,17.5,9.9,17.5,19.3l0,0
				c0,7-4.7,12.2-11.4,12.7c-5.8,0.4-11.3,0-16.7-1.2c-8.3-1.8-16.1-4.9-23.5-9.2c-7.4-4.4-14-9.8-19.6-16.3
				c-5.7-6.5-10.2-13.7-13.6-21.8c-3.4-8-5-16.6-5-25.6c0-9,1.6-16.9,4.9-23.7c3.2-6.8,7.7-12.3,13.3-16.5c5.6-4.2,12.3-7,20-8.4
				c7.8-1.4,16-1.1,24.9,0.7c5.3,1.1,10.4,2.8,15.2,5.1c6.9,3.2,11.7,10.5,11.7,17.7L782.5,2499.8L782.5,2499.8z"/>
			<path class="st0" d="M890.8,2508.6l33.3,7.1c1.9,0.4,3.5,2.3,3.5,4.2l-0.2,106.9c0,1.9-1.5,3.1-3.5,2.7l-33.3-7.1
				c-1.9-0.4-3.5-2.3-3.5-4.2l0-0.6c0-3-3.5-5.3-5.7-3.8c-7.8,5.1-17.4,6.4-29,4c-8.3-1.8-15.8-4.9-22.8-9.4
				c-6.9-4.5-13-10-18.1-16.6c-5.1-6.6-9.1-13.9-12-21.9c-2.9-8-4.3-16.4-4.3-25.1c0-8.1,1.4-15.6,4.2-22.3
				c2.8-6.7,6.7-12.3,11.7-16.7c5-4.4,11-7.5,17.9-9.2c6.9-1.7,14.6-1.6,23,0.1c11.5,2.4,21.3,7.8,29.6,16.1
				c2.2,2.3,5.6,1.3,5.6-1.6l0,0C887.3,2509.4,888.9,2508.2,890.8,2508.6z M836.8,2553.7c0,3.7,0.6,7.3,2,10.7
				c1.3,3.5,3.1,6.6,5.4,9.5c2.3,2.8,5,5.3,8.2,7.3c3.2,2,6.6,3.4,10.3,4.2c3.5,0.8,6.9,0.8,10,0.1c3.2-0.7,5.9-1.9,8.2-3.8
				c2.3-1.9,4.1-4.2,5.5-7c1.4-2.8,2.1-6,2.1-9.5c0-3.5-0.7-7.1-2.1-10.5c-1.4-3.5-3.2-6.6-5.5-9.5s-5-5.3-8.2-7.3
				c-3.2-2-6.5-3.4-10-4.1c-3.7-0.8-7.1-0.9-10.3-0.2c-3.2,0.7-5.9,1.9-8.2,3.8c-2.3,1.9-4.1,4.2-5.4,7
				C837.5,2547,836.8,2550.1,836.8,2553.7z"/>
			<path class="st0" d="M954.5,2522.2l31.3,6.7c2.4,0.5,4.3,2.9,4.3,5.3l0,2c0,3.9,4.6,6.8,7.3,4.7c2.6-2,5.3-3.5,8.4-4.6
				c6.2-2.3,13.4-2.6,21.7-0.8c1,0.2,2.2,0.5,3.4,0.7l0,0c2.4,0.5,4.3,2.9,4.3,5.2l-0.1,28.1c0,2.9-2.8,4.4-5.6,3
				c-3.7-2-7.6-3.3-11.7-4.2c-9.3-2-16.3-0.7-20.9,3.9c-4.7,4.6-7,12.2-7,22.8l-0.1,44.5c0,2.4-2,3.9-4.3,3.4l-31.3-6.7
				c-2.4-0.5-4.3-2.9-4.3-5.3l0.2-105.2C950.2,2523.2,952.1,2521.7,954.5,2522.2z"/>
			<path class="st0" d="M1089.1,2552.4l23.9,57c0.9,2.2,3.7,2.8,4.6,1l24.5-46.8c0.4-0.8,1.3-1.2,2.3-1l38.8,8.3
				c1.9,0.4,3.1,2.7,2.2,4.2l-56.6,96.7c-0.4,0.7-1.3,1.1-2.2,0.9l-23.6-5c-1-0.2-1.8-0.9-2.3-1.9l-55.5-120.6
				c-0.9-1.9,0.4-3.6,2.3-3.2l39.3,8.4C1087.7,2550.6,1088.7,2551.4,1089.1,2552.4z"/>
			<path class="st0" d="M1284.3,2592.6l33.3,7.1c1.9,0.4,3.5,2.3,3.5,4.2l-0.2,106.9c0,1.9-1.5,3.1-3.5,2.7l-33.3-7.1
				c-1.9-0.4-3.5-2.3-3.5-4.2l0-0.6c0-3-3.5-5.3-5.7-3.8c-7.8,5.1-17.4,6.4-29,4c-8.3-1.8-15.8-4.9-22.8-9.4
				c-6.9-4.5-13-10-18.1-16.6c-5.1-6.6-9.1-13.9-12-21.9s-4.3-16.4-4.3-25.1c0-8.1,1.4-15.6,4.2-22.3c2.8-6.7,6.7-12.3,11.7-16.7
				c5-4.4,11-7.5,17.9-9.2s14.6-1.7,23,0.1c11.5,2.4,21.3,7.8,29.6,16.1c2.2,2.3,5.6,1.3,5.6-1.6l0,0
				C1280.8,2593.4,1282.4,2592.2,1284.3,2592.6z M1230.3,2637.7c0,3.7,0.6,7.3,2,10.7c1.3,3.5,3.1,6.6,5.4,9.5
				c2.3,2.8,5,5.3,8.2,7.3c3.2,2,6.6,3.4,10.3,4.2c3.5,0.8,6.9,0.8,10,0.1c3.2-0.7,5.9-1.9,8.2-3.8c2.3-1.9,4.1-4.2,5.5-7
				c1.4-2.8,2.1-6,2.1-9.5c0-3.5-0.7-7.1-2.1-10.5c-1.4-3.5-3.2-6.6-5.5-9.5s-5-5.3-8.2-7.3c-3.2-2-6.5-3.4-10-4.1
				c-3.7-0.8-7.1-0.9-10.3-0.2c-3.2,0.7-5.9,1.9-8.2,3.8c-2.3,1.9-4.1,4.2-5.4,7C1231,2631,1230.3,2634.1,1230.3,2637.7z"/>
			<path class="st0" d="M1354.5,2607.6l31.7,6.8c2.3,0.5,4.1,2.7,4.1,5l0,0c0,3.6,4.2,6.3,6.8,4.6c3.2-2.1,6.5-3.5,9.8-4.2
				c5.6-1.1,12.2-0.8,19.7,0.8c7.9,1.7,14.8,4.4,20.4,8.2s10.5,8.5,14.5,14.1c3.2,4.5,5.4,9.3,6.6,14.3c1.2,5,1.7,10.5,1.7,16.6
				l-0.1,68.2c0,2.3-1.8,3.7-4.1,3.3l-31.7-6.8c-2.3-0.5-4.1-2.7-4.1-5l0.1-53.3c0-5.6-0.4-10.2-1.2-13.9c-0.8-3.6-2.2-6.7-4.3-9.2
				c-1.8-2.2-3.8-3.8-5.9-5c-2.2-1.2-4.6-2.1-7.1-2.6c-6.8-1.4-12-0.5-15.6,2.8c-3.6,3.3-5.4,8.7-5.5,16.2l-0.1,56.7
				c0,2.3-1.8,3.7-4.1,3.3l-31.7-6.8c-2.3-0.5-4.1-2.7-4.1-5l0.2-105.5C1350.4,2608.5,1352.3,2607.1,1354.5,2607.6z"/>
			<path class="st0" d="M1578.2,2669.7c0,9.4-8.2,14.9-17.4,11.9c-1.2-0.4-2.4-0.7-3.6-1c-3.8-0.8-7.4-0.9-10.7-0.3
				c-3.3,0.6-6.2,1.9-8.7,3.8s-4.5,4.4-5.9,7.4c-1.4,3-2.1,6.6-2.1,10.8c0,4,0.7,7.8,2.1,11.4c1.4,3.6,3.3,6.9,5.7,9.9
				c2.4,3,5.3,5.5,8.7,7.5c3.4,2.1,7,3.5,10.8,4.3c1.2,0.3,2.3,0.4,3.5,0.5c9.3,0.9,17.5,9.9,17.5,19.3l0,0c0,7-4.7,12.2-11.4,12.7
				c-5.8,0.4-11.3,0-16.7-1.2c-8.3-1.8-16.1-4.9-23.5-9.2c-7.4-4.4-14-9.8-19.6-16.3c-5.7-6.5-10.2-13.7-13.6-21.8
				c-3.4-8-5-16.6-5-25.6c0-9,1.6-16.9,4.9-23.7c3.2-6.8,7.7-12.3,13.3-16.5c5.6-4.2,12.3-7,20-8.4c7.8-1.4,16-1.1,24.9,0.7
				c5.3,1.1,10.4,2.8,15.2,5.1c6.9,3.2,11.7,10.5,11.7,17.7L1578.2,2669.7L1578.2,2669.7z"/>
			<path class="st0" d="M1621.8,2594.3c9.4,2,17,11.3,17,20.7l-0.2,111.5c0,13.9,0.2,15.3,6.2,16.8c0.7,0.2,1.5,0.3,2.4,0.5l0,23.1
				c0,9.4-7.7,15.5-17,13.4l0,0c-31.8-6.4-32-26.2-31.6-46.9l0.2-127c0-9.4,7.6-15.4,17-13.4L1621.8,2594.3z"/>
			<path class="st0" d="M566.7,2327.2l-23.2,27.4c-2.8-4-5.7-8.1-7.5-10.6c-64.4-81.7-150.2-52.1-150.3,10.3
				c-0.1,43.8,12.7,57.6,157.5,252.4l194-243.5L566.7,2327.2z"/>
		</g>
	</g>
</g>
</svg>
