<?xml version="1.0" encoding="utf-8"?>
<!-- Generator: Adobe Illustrator 22.1.0, SVG Export Plug-In . SVG Version: 6.00 Build 0)  -->
<svg version="1.1" id="レイヤー_1" xmlns="http://www.w3.org/2000/svg" xmlns:xlink="http://www.w3.org/1999/xlink" x="0px"
	 y="0px" viewBox="0 0 5000 4023.1" style="enable-background:new 0 0 5000 4023.1;" xml:space="preserve">
<style type="text/css">
	.st0{fill:#FFFFFF;}
	.st1{fill:#707070;}
	.st2{fill:none;}
	.st3{font-family:'HiraKakuPro-W6-83pv-RKSJ-H';}
	.st4{font-size:197.1783px;}
	.st5{letter-spacing:5;}
	.st6{letter-spacing:-88;}
	.st7{enable-background:new    ;}
	.st8{font-family:'Futura-Bold';}
	.st9{font-size:358.506px;}
	.st10{font-family:'SourceHanSansJP-Heavy-83pv-RKSJ-H';}
	.st11{letter-spacing:-7;}
	.st12{font-family:'KozGoPr6N-Medium-83pv-RKSJ-H';}
	.st13{font-size:152.3298px;}
</style>
<path class="st0" d="M4730.2,89.5L581.6,84.3v0.4l-311.8-0.4C167.3,84.2,84.2,167.2,84.2,269.7v3478c0,102.5,83.1,185.8,185.7,185.9
	l4148.6,5.2v-0.4l311.8,0.4c102.5,0.1,185.7-82.9,185.7-185.4v-3478C4915.8,172.9,4832.7,89.6,4730.2,89.5z M4583.2,3655.8
	c-61.5,0-111.4-49.9-111.4-111.4s49.9-111.4,111.4-111.4s111.4,49.9,111.4,111.4C4694.6,3605.9,4644.7,3655.8,4583.2,3655.8z
	 M4583.2,3278.3c-61.5,0-111.4-49.9-111.4-111.4s49.9-111.4,111.4-111.4s111.4,49.9,111.4,111.4
	C4694.6,3228.4,4644.7,3278.3,4583.2,3278.3z M4583.2,2913.1c-61.5,0-111.4-49.9-111.4-111.4s49.9-111.4,111.4-111.4
	s111.4,49.9,111.4,111.4S4644.7,2913.1,4583.2,2913.1z M4583.2,2535.6c-61.5,0-111.4-49.9-111.4-111.4s49.9-111.4,111.4-111.4
	s111.4,49.9,111.4,111.4S4644.7,2535.6,4583.2,2535.6z M4583.2,2170.5c-61.5,0-111.4-49.9-111.4-111.4s49.9-111.4,111.4-111.4
	s111.4,49.9,111.4,111.4S4644.7,2170.5,4583.2,2170.5z M4583.2,1793c-61.5,0-111.4-49.9-111.4-111.4s49.9-111.4,111.4-111.4
	s111.4,49.9,111.4,111.4S4644.7,1793,4583.2,1793z M4583.2,1427.9c-61.5,0-111.4-49.9-111.4-111.4s49.9-111.4,111.4-111.4
	s111.4,49.9,111.4,111.4S4644.7,1427.9,4583.2,1427.9z M4583.2,1050.4c-61.5,0-111.4-49.9-111.4-111.4s49.9-111.4,111.4-111.4
	s111.4,49.9,111.4,111.4S4644.7,1050.4,4583.2,1050.4z M4583.2,679.1c-61.5,0-111.4-49.9-111.4-111.4s49.9-111.4,111.4-111.4
	s111.4,49.9,111.4,111.4S4644.7,679.1,4583.2,679.1z"/>
<g>
	<path class="st1" d="M4730.4,3980.4c-0.1,0-0.2,0-0.3,0L4424,3980c-1.9,0.3-3.7,0.4-5.6,0.4c0,0,0,0-0.1,0l-4148.6-5.2
		C144.4,3975,42.5,3873,42.5,3747.7v-3478c0-60.7,23.6-117.8,66.6-160.7C152,66.2,209,42.7,269.6,42.7c0.1,0,0.2,0,0.3,0L576,43.1
		c1.9-0.3,3.8-0.5,5.7-0.4l4148.6,5.2c125.3,0.2,227.2,102.2,227.2,227.5v3478c0,60.7-23.6,117.8-66.6,160.7
		C4848,3956.8,4791,3980.4,4730.4,3980.4z M4418.4,3896.8L4418.4,3896.8l311.8,0.4c0.1,0,0.1,0,0.2,0c38.4,0,74.5-14.9,101.6-42
		c27.2-27.2,42.2-63.3,42.2-101.8v-3478c0-79.4-64.6-144.2-144.1-144.3l-4142.9-5.2c-1.9,0.3-3.8,0.3-5.7,0.4l-311.8-0.4
		c-0.1,0-0.1,0-0.2,0c-38.4,0-74.5,14.9-101.6,42c-27.2,27.2-42.2,63.3-42.2,101.8v3478c0,79.4,64.6,144.2,144.1,144.3l4142.9,5.2
		C4414.6,3896.9,4416.5,3896.8,4418.4,3896.8z"/>
	<path class="st1" d="M4730.4,4023.5h-0.3l-303.7-0.4c-2.7,0.3-5.4,0.4-8,0.4l-4148.7-5.2c-149-0.2-270.3-121.6-270.3-270.6v-3478
		c0-72.2,28.1-140.1,79.2-191.2c51-50.9,118.8-79,190.9-79h0.3l303.5,0.4c2.6-0.3,5.6-0.5,8.9-0.4l4148,5.2
		c149,0.2,270.3,121.6,270.3,270.6v3478c0,72.2-28.1,140.1-79.2,191.2C4870.3,3995.5,4802.5,4023.5,4730.4,4023.5z M4418.4,3853.6
		L4418.4,3853.6l312,0.4c26.9,0,52.2-10.5,71.2-29.4c19-19,29.5-44.3,29.5-71.2v-3478c0-55.7-45.3-101.1-101-101.1l-4140.6-5.2
		c-2.4,0.2-4.6,0.3-6.7,0.4h-0.7h-0.7l-311.9-0.4c-26.9,0-52.1,10.5-71.2,29.4c-19,19-29.5,44.3-29.5,71.2v3478
		c0,55.7,45.3,101.1,101,101.1l4140.4,5.2C4413,3853.8,4415.7,3853.6,4418.4,3853.6z"/>
</g>
<g>
	<rect x="447.6" y="1744.5" class="st2" width="3746.4" height="914.2"/>
	<text transform="matrix(1 0 0 1 447.5532 1896.1057)" class="st1 st3 st4">将来に悩み、成長のための環境を探してい</text>
	<text transform="matrix(1 0 0 1 447.5532 2241.2058)" class="st1 st3 st4">る</text>
	<text transform="matrix(1 0 0 1 644.7532 2241.2058)" class="st1 st3 st4 st5">方に伝えたいことがあります。</text>
	<text transform="matrix(1 0 0 1 3310.5532 2241.2058)" class="st1 st3 st4 st6">。</text>
	<rect x="3267.5" y="2096.5" class="st0" width="380.5" height="380.5"/>
</g>
<g>
	<rect x="447.6" y="696.8" class="st2" width="3746.4" height="349.5"/>
	<text transform="matrix(1 0 0 1 447.5532 771.8748)" class="st7"><tspan x="0" y="0" class="st1 st8 st9">For learner</tspan><tspan x="0" y="430.2" class="st1 st10 st9 st11">デザインがしたい若者へ</tspan></text>
</g>
<path class="st1" d="M1684.7,3637.8H986.8c-37.1,0-67.2-30.1-67.2-67.2s30.1-67.2,67.2-67.2h697.8c76.6,0,138.9-62.3,138.9-138.9
	c0-76.6-62.3-138.9-138.9-138.9H725.8c-76.6,0-138.9,62.3-138.9,138.9c0,76.6,62.3,138.9,138.9,138.9H820
	c37.1,0,67.2,30.1,67.2,67.2s-30.1,67.2-67.2,67.2h-94.1c-150.7,0-273.3-122.6-273.3-273.3s122.6-273.3,273.3-273.3h958.8
	c150.7,0,273.3,122.6,273.3,273.3S1835.4,3637.8,1684.7,3637.8z"/>
<polygon class="st1" points="1276.2,3367.1 1170.4,3298.2 1170.4,3436.1 "/>
<rect x="448" y="2773.1" class="st2" width="3745.5" height="161.3"/>
<text transform="matrix(1 0 0 1 448.0786 2907.0637)" class="st1 st12 st13">所要時間：５分</text>
<path class="st1" d="M4099.4,1553.2H542.2c-52,0-94.1-42.1-94.1-94.1l0,0c0-52,42.1-94.1,94.1-94.1h3557.3c52,0,94.1,42.1,94.1,94.1
	l0,0C4193.5,1511.1,4151.4,1553.2,4099.4,1553.2z"/>
</svg>
