<svg xmlns="http://www.w3.org/2000/svg" viewBox="0 0 558 448.983">
  <defs>
    <style>
      .cls-1 {
        fill: #fff;
      }

      .cls-2, .cls-4, .cls-5, .cls-7 {
        fill: #707070;
      }

      .cls-3 {
        fill: none;
      }

      .cls-4 {
        font-size: 21px;
      }

      .cls-4, .cls-6, .cls-7 {
        font-family: HiraginoSans-W3, Hiragino Sans;
      }

      .cls-5 {
        font-size: 38px;
        font-family: Futura-Bold, Futura;
        font-weight: 700;
      }

      .cls-6 {
        font-weight: 400;
      }

      .cls-7 {
        font-size: 16px;
      }
    </style>
  </defs>
  <g id="_02" data-name="02" transform="translate(0.601 0.526)">
    <path id="パス_1220" data-name="パス 1220" class="cls-1" d="M602.58,84.88,139.7,84.3v.045L104.908,84.3A20.683,20.683,0,0,0,84.2,104.986V493.045a20.747,20.747,0,0,0,20.72,20.742l462.882.58v-.045l34.789.045a20.692,20.692,0,0,0,20.72-20.686V105.622A20.778,20.778,0,0,0,602.58,84.88Zm-16.4,397.912a12.43,12.43,0,1,1,12.43-12.43A12.433,12.433,0,0,1,586.178,482.792Zm0-42.12a12.429,12.429,0,1,1,12.43-12.43A12.433,12.433,0,0,1,586.178,440.672Zm0-40.747a12.429,12.429,0,1,1,12.43-12.43A12.433,12.433,0,0,1,586.178,399.925Zm0-42.12a12.43,12.43,0,1,1,12.43-12.43A12.433,12.433,0,0,1,586.178,357.8Zm0-40.736a12.43,12.43,0,1,1,12.43-12.429A12.433,12.433,0,0,1,586.178,317.069Zm0-42.12a12.43,12.43,0,1,1,12.43-12.43A12.433,12.433,0,0,1,586.178,274.949Zm0-40.736a12.43,12.43,0,1,1,12.43-12.429A12.433,12.433,0,0,1,586.178,234.213Zm0-42.12a12.43,12.43,0,1,1,12.43-12.43A12.433,12.433,0,0,1,586.178,192.093Zm0-41.428a12.43,12.43,0,1,1,12.43-12.43A12.433,12.433,0,0,1,586.178,150.665Z" transform="translate(-75.339 -75.361)"/>
    <g id="グループ化_2835" data-name="グループ化 2835" transform="translate(-0.6 -0.526)">
      <path id="パス_1221" data-name="パス 1221" class="cls-2" d="M565.555,482.028h-.033l-34.153-.045a3.924,3.924,0,0,1-.625.045h-.011l-462.882-.58A25.419,25.419,0,0,1,42.5,456.064V68A25.314,25.314,0,0,1,67.839,42.677h.033l34.153.045a3.052,3.052,0,0,1,.636-.045l462.882.58a25.419,25.419,0,0,1,25.35,25.383V456.7a25.314,25.314,0,0,1-25.339,25.328ZM530.743,472.7h0l34.789.045h.022A16.038,16.038,0,0,0,581.6,456.7V68.64a16.124,16.124,0,0,0-16.078-16.1l-462.246-.58a6.091,6.091,0,0,1-.636.045L67.85,51.96h-.022A16.038,16.038,0,0,0,51.783,68V456.064a16.124,16.124,0,0,0,16.078,16.1l462.246.58A4.063,4.063,0,0,1,530.743,472.7Z" transform="translate(-37.691 -37.854)"/>
      <path id="パス_1222" data-name="パス 1222" class="cls-2" d="M527.263,448.457h-.033l-33.885-.045a8.1,8.1,0,0,1-.893.045l-462.893-.58A30.242,30.242,0,0,1-.6,417.684V29.625A30.133,30.133,0,0,1,29.536-.523h.033l33.863.045a6.835,6.835,0,0,1,.993-.045l462.815.58A30.242,30.242,0,0,1,557.4,30.249V418.309a30.133,30.133,0,0,1-30.136,30.148ZM492.452,429.5h0l34.812.045A11.219,11.219,0,0,0,538.5,418.32V30.261A11.29,11.29,0,0,0,527.23,18.98L65.24,18.4c-.268.022-.513.033-.748.045h-.156l-34.8-.045A11.219,11.219,0,0,0,18.3,29.625V417.684a11.29,11.29,0,0,0,11.269,11.28l461.967.58C491.849,429.522,492.151,429.5,492.452,429.5Z" transform="translate(0.6 0.526)"/>
    </g>
    <g id="グループ化_2836" data-name="グループ化 2836" transform="translate(49.403 191.677)">
      <rect id="長方形_1357" data-name="長方形 1357" class="cls-3" width="418.006" height="102.002" transform="translate(0.005 2.499)"/>
      <text id="将来に悩み_成長のための環境を探してい" data-name="将来に悩み、成長のための環境を探してい" class="cls-4" transform="translate(0 18)"><tspan x="0" y="0">将来に悩み、成長のための環境を探してい</tspan></text>
      <text id="る" class="cls-4" transform="translate(0 56.505)"><tspan x="0" y="0">る</tspan></text>
      <text id="方に伝えたいことがあります_" data-name="方に伝えたいことがあります。" class="cls-4" transform="translate(22.003 56.505)"><tspan x="0" y="0">方に伝えたいことがあります。</tspan></text>
      <text id="_" data-name="。" class="cls-4" transform="translate(319.441 56.505)"><tspan x="0" y="0">。</tspan></text>
      <rect id="長方形_1358" data-name="長方形 1358" class="cls-1" width="42.454" height="42.454" transform="translate(314.637 41.773)"/>
    </g>
    <g id="グループ化_2837" data-name="グループ化 2837" transform="translate(49.403 44.149)">
      <rect id="長方形_1359" data-name="長方形 1359" class="cls-3" width="418.006" height="38.996" transform="translate(0.005 33.13)"/>
      <text id="For_learner_デザインがしたい若者へ" data-name="For learner
デザインがしたい若者へ" class="cls-5" transform="translate(0 39)"><tspan x="0" y="0">For learner</tspan><tspan class="cls-6"><tspan x="0" y="45">デザインがしたい若者へ</tspan></tspan></text>
    </g>
    <path id="パス_1223" data-name="パス 1223" class="cls-2" d="M590.072,3152.187H512.2a7.5,7.5,0,1,1,0-15h77.857a15.5,15.5,0,0,0,0-31H483.082a15.5,15.5,0,1,0,0,31h10.51a7.5,7.5,0,1,1,0,15h-10.5a30.494,30.494,0,0,1,0-60.987H590.072a30.494,30.494,0,0,1,0,60.987Z" transform="translate(-402.634 -2746.765)"/>
    <path id="パス_1224" data-name="パス 1224" class="cls-2" d="M1182.2,3305.888l-11.8-7.687v15.386Z" transform="translate(-1040.345 -2930.669)"/>
    <rect id="長方形_1360" data-name="長方形 1360" class="cls-3" width="417.906" height="17.997" transform="translate(49.453 308.943)"/>
    <text id="所要時間_分" data-name="所要時間：５分" class="cls-7" transform="translate(49.461 322.939)"><tspan x="0" y="0">所要時間：５分</tspan></text>
    <path id="パス_1225" data-name="パス 1225" class="cls-2" d="M855.5,1386H458.6a10.5,10.5,0,0,1-10.5-10.5h0a10.5,10.5,0,0,1,10.5-10.5H855.507a10.5,10.5,0,0,1,10.5,10.5h0A10.512,10.512,0,0,1,855.5,1386Z" transform="translate(-398.636 -1213.167)"/>
  </g>
</svg>
