<svg xmlns="http://www.w3.org/2000/svg" viewBox="0 0 558.44 449.335">
  <defs>
    <style>
      .cls-1 {
        fill: #fff;
      }

      .cls-2, .cls-4, .cls-5, .cls-6, .cls-7 {
        fill: #707070;
      }

      .cls-3 {
        fill: none;
      }

      .cls-4 {
        font-size: 21px;
      }

      .cls-4, .cls-5, .cls-7 {
        font-family: HiraginoSans-W3, Hiragino Sans;
      }

      .cls-5 {
        font-size: 16px;
      }

      .cls-6, .cls-7 {
        font-size: 39px;
      }

      .cls-6 {
        font-family: Futura-Bold, Futura;
        font-weight: 700;
      }
    </style>
  </defs>
  <g id="_01" data-name="01" transform="translate(0 0.026)">
    <path id="パス_1214" data-name="パス 1214" class="cls-1" d="M603.491,85.292,140.242,84.7v.045L105.429,84.7A20.7,20.7,0,0,0,84.7,105.407V493.769a20.756,20.756,0,0,0,20.729,20.752l463.237.581v-.045l34.813.045a20.7,20.7,0,0,0,20.729-20.707V106.044A20.739,20.739,0,0,0,603.491,85.292ZM587.073,483.5a12.442,12.442,0,1,1,12.442-12.442A12.446,12.446,0,0,1,587.073,483.5Zm0-42.151a12.442,12.442,0,1,1,12.442-12.442A12.445,12.445,0,0,1,587.073,441.353Zm0-40.777a12.442,12.442,0,1,1,12.442-12.442A12.446,12.446,0,0,1,587.073,400.576Zm0-42.151a12.442,12.442,0,1,1,12.442-12.442A12.446,12.446,0,0,1,587.073,358.425Zm0-40.766a12.442,12.442,0,1,1,12.442-12.442A12.446,12.446,0,0,1,587.073,317.659Zm0-42.151a12.442,12.442,0,1,1,12.442-12.442A12.446,12.446,0,0,1,587.073,275.508Zm0-40.777a12.442,12.442,0,1,1,12.442-12.442A12.446,12.446,0,0,1,587.073,234.731Zm0-42.151a12.442,12.442,0,1,1,12.442-12.442A12.446,12.446,0,0,1,587.073,192.579Zm0-41.459a12.442,12.442,0,1,1,12.442-12.442A12.446,12.446,0,0,1,587.073,151.121Z" transform="translate(-75.24 -75.263)"/>
    <g id="グループ化_2833" data-name="グループ化 2833" transform="translate(0 -0.026)">
      <path id="パス_1215" data-name="パス 1215" class="cls-2" d="M566.559,482.782h-.033l-34.177-.045a3.928,3.928,0,0,1-.625.045h-.011L68.475,482.2A25.444,25.444,0,0,1,43.1,456.792V68.43A25.358,25.358,0,0,1,68.453,43.077h.034l34.177.045a3.055,3.055,0,0,1,.637-.045l463.237.581a25.444,25.444,0,0,1,25.376,25.409V457.428a25.358,25.358,0,0,1-25.353,25.353Zm-34.835-9.348h0l34.813.045h.022a16.054,16.054,0,0,0,16.061-16.05V69.067a16.128,16.128,0,0,0-16.083-16.105l-462.6-.581a6.1,6.1,0,0,1-.637.045l-34.813-.045h-.022A16.054,16.054,0,0,0,52.4,68.43V456.792A16.128,16.128,0,0,0,68.487,472.9l462.6.581A6.109,6.109,0,0,1,531.724,473.433Z" transform="translate(-38.286 -38.26)"/>
      <path id="パス_1216" data-name="パス 1216" class="cls-2" d="M528.273,449.309h-.033l-33.909-.045a8.112,8.112,0,0,1-.893.045l-463.249-.581A30.266,30.266,0,0,1,0,418.506V30.144A30.163,30.163,0,0,1,30.167-.023H30.2L64.1.022a6.842,6.842,0,0,1,.994-.045l463.17.581A30.263,30.263,0,0,1,558.44,30.78V419.142a30.163,30.163,0,0,1-30.167,30.167Zm-34.836-18.976h0l34.836.045a11.23,11.23,0,0,0,11.236-11.236V30.78a11.309,11.309,0,0,0-11.281-11.292L65.9,18.908c-.268.022-.514.034-.748.045h-.156l-34.824-.045A11.23,11.23,0,0,0,18.931,30.144V418.506A11.309,11.309,0,0,0,30.212,429.8l462.333.581A7.847,7.847,0,0,1,493.438,430.333Z" transform="translate(0 0.026)"/>
    </g>
    <path id="パス_1217" data-name="パス 1217" class="cls-2" d="M855.818,1342.32H458.51A10.505,10.505,0,0,1,448,1331.81h0a10.506,10.506,0,0,1,10.51-10.51H855.818a10.506,10.506,0,0,1,10.51,10.51h0A10.506,10.506,0,0,1,855.818,1342.32Z" transform="translate(-397.964 -1173.75)"/>
    <path id="パス_1218" data-name="パス 1218" class="cls-2" d="M590.111,3152.249H512.175a7.505,7.505,0,1,1,0-15.011h77.936a15.513,15.513,0,1,0,0-31.027H483.024a15.513,15.513,0,1,0,0,31.027h10.51a7.505,7.505,0,1,1,0,15.011h-10.51a30.524,30.524,0,1,1,0-61.049H590.111a30.524,30.524,0,1,1,0,61.049Z" transform="translate(-401.961 -2745.973)"/>
    <path id="パス_1219" data-name="パス 1219" class="cls-2" d="M1182.128,3306l-11.828-7.7v15.391Z" transform="translate(-1039.591 -2929.942)"/>
    <g id="グループ化_2834" data-name="グループ化 2834" transform="translate(50.036 187.554)">
      <rect id="長方形_1354" data-name="長方形 1354" class="cls-3" width="418.328" height="102.083" transform="translate(0 2.393)"/>
      <text id="デザイン責任者がおらず_ブランドづくり" data-name="デザイン責任者がおらず、ブランドづくり" class="cls-4" transform="translate(0.003 18)"><tspan x="0" y="0">デザイン責任者がおらず、ブランドづくり</tspan></text>
      <text id="やサービス開発にお困りの企業様の右腕" class="cls-4" transform="translate(0.003 56.532)"><tspan x="0" y="0">やサービス開発にお困りの企業様の右腕</tspan></text>
      <text id="になります" class="cls-4" transform="translate(0.003 95.065)"><tspan x="0" y="0">になります</tspan></text>
      <text id="_" data-name="。" class="cls-4" transform="translate(110.094 95.065)"><tspan x="0" y="0">。</tspan></text>
    </g>
    <rect id="長方形_1355" data-name="長方形 1355" class="cls-3" width="418.328" height="18.015" transform="translate(50.036 309.699)"/>
    <text id="所要時間_分" data-name="所要時間：５分" class="cls-5" transform="translate(50.039 323.701)"><tspan x="0" y="0">所要時間：５分</tspan></text>
    <rect id="長方形_1356" data-name="長方形 1356" class="cls-3" width="418.328" height="39.035" transform="translate(50.036 78.516)"/>
    <text id="Service" class="cls-6" transform="translate(50.039 82.436)"><tspan x="0" y="0">Service</tspan></text>
    <text id="企業様へ" class="cls-7" transform="translate(50.039 125.225)"><tspan x="0" y="0">企業様へ</tspan></text>
  </g>
</svg>
