<?xml version="1.0" encoding="utf-8"?>
<!-- Generator: Adobe Illustrator 22.1.0, SVG Export Plug-In . SVG Version: 6.00 Build 0)  -->
<svg version="1.1" id="レイヤー_1" xmlns="http://www.w3.org/2000/svg" xmlns:xlink="http://www.w3.org/1999/xlink" x="0px"
	 y="0px" viewBox="0 0 5000 4023.1" style="enable-background:new 0 0 5000 4023.1;" xml:space="preserve">
<style type="text/css">
	.st0{fill:#FFFFFF;}
	.st1{fill:#707070;}
	.st2{fill:none;}
	.st3{font-family:'HiraKakuPro-W6-83pv-RKSJ-H';}
	.st4{font-size:197.1326px;}
	.st5{letter-spacing:-95;}
	.st6{font-family:'KozGoPr6N-Medium-83pv-RKSJ-H';}
	.st7{font-size:152.3298px;}
	.st8{font-family:'Futura-Bold';}
	.st9{font-size:358.4229px;}
	.st10{font-family:'SourceHanSansJP-Heavy-83pv-RKSJ-H';}
</style>
<g>
	<path class="st0" d="M4729.7,90L582,84.7v0.4l-311.7-0.4C167.8,84.6,84.7,167.6,84.7,270.1v3477.2c0,102.5,83.1,185.7,185.6,185.8
		l4147.6,5.2v-0.4l311.7,0.4c102.5,0.1,185.6-82.9,185.6-185.4V275.8C4915.3,173.3,4832.2,90.1,4729.7,90z M4582.7,3655.4
		c-61.5,0-111.4-49.9-111.4-111.4s49.9-111.4,111.4-111.4s111.4,49.9,111.4,111.4S4644.2,3655.4,4582.7,3655.4z M4582.7,3278
		c-61.5,0-111.4-49.9-111.4-111.4s49.9-111.4,111.4-111.4s111.4,49.9,111.4,111.4S4644.2,3278,4582.7,3278z M4582.7,2912.9
		c-61.5,0-111.4-49.9-111.4-111.4s49.9-111.4,111.4-111.4s111.4,49.9,111.4,111.4C4694.1,2863.1,4644.2,2912.9,4582.7,2912.9z
		 M4582.7,2535.5c-61.5,0-111.4-49.9-111.4-111.4s49.9-111.4,111.4-111.4s111.4,49.9,111.4,111.4S4644.2,2535.5,4582.7,2535.5z
		 M4582.7,2170.5c-61.5,0-111.4-49.9-111.4-111.4s49.9-111.4,111.4-111.4s111.4,49.9,111.4,111.4S4644.2,2170.5,4582.7,2170.5z
		 M4582.7,1793.1c-61.5,0-111.4-49.9-111.4-111.4s49.9-111.4,111.4-111.4s111.4,49.9,111.4,111.4S4644.2,1793.1,4582.7,1793.1z
		 M4582.7,1428c-61.5,0-111.4-49.9-111.4-111.4s49.9-111.4,111.4-111.4s111.4,49.9,111.4,111.4S4644.2,1428,4582.7,1428z
		 M4582.7,1050.6c-61.5,0-111.4-49.9-111.4-111.4s49.9-111.4,111.4-111.4s111.4,49.9,111.4,111.4S4644.2,1050.6,4582.7,1050.6z
		 M4582.7,679.4c-61.5,0-111.4-49.9-111.4-111.4s49.9-111.4,111.4-111.4s111.4,49.9,111.4,111.4S4644.2,679.4,4582.7,679.4z"/>
	<g>
		<path class="st1" d="M4729.9,3980c-0.1,0-0.2,0-0.3,0l-306-0.4c-1.9,0.3-3.7,0.4-5.6,0.4c0,0,0,0-0.1,0l-4147.6-5.2
			c-125.3-0.2-227.2-102.2-227.2-227.5V270.1c0-60.7,23.6-117.8,66.6-160.6c42.9-42.8,99.8-66.4,160.4-66.4c0.1,0,0.2,0,0.3,0
			l306,0.4c1.9-0.3,3.8-0.5,5.7-0.4l4147.6,5.2c125.3,0.2,227.2,102.2,227.2,227.5V3753c0,60.7-23.6,117.8-66.6,160.6
			C4847.5,3956.4,4790.5,3980,4729.9,3980z M4418,3896.3L4418,3896.3l311.7,0.4c0.1,0,0.1,0,0.2,0c38.4,0,74.5-14.9,101.6-42
			c27.2-27.1,42.2-63.3,42.2-101.7V275.8c0-79.4-64.6-144.1-144-144.2l-4141.9-5.2c-1.9,0.3-3.8,0.3-5.7,0.4l-311.7-0.4
			c-0.1,0-0.1,0-0.2,0c-38.4,0-74.5,14.9-101.6,42c-27.2,27.1-42.2,63.3-42.2,101.7v3477.2c0,79.4,64.6,144.1,144,144.2l4141.9,5.2
			C4414.2,3896.5,4416.1,3896.3,4418,3896.3z"/>
		<path class="st1" d="M4729.9,4023.1h-0.3l-303.6-0.4c-2.7,0.3-5.4,0.4-8,0.4l-4147.7-5.2C121.2,4017.7,0,3896.3,0,3747.3V270.1
			C0,197.9,28.1,130,79.2,79C130.2,28.1,198,0,270.1,0h0.3l303.5,0.4c2.6-0.3,5.6-0.5,8.9-0.4l4147,5.2
			c149,0.2,270.2,121.6,270.2,270.6V3753c0,72.2-28.1,140.1-79.2,191.1C4869.8,3995,4802,4023.1,4729.9,4023.1z M4418,3853.2
			L4418,3853.2l311.9,0.4c26.9,0,52.1-10.4,71.1-29.4s29.5-44.3,29.5-71.2V275.8c0-55.7-45.3-101-101-101.1L590,169.5
			c-2.4,0.2-4.6,0.3-6.7,0.4h-0.7h-0.7l-311.8-0.4c-26.9,0-52.1,10.4-71.1,29.4s-29.5,44.3-29.5,71.2v3477.2
			c0,55.7,45.3,101,101,101.1l4139.5,5.2C4412.6,3853.3,4415.3,3853.2,4418,3853.2z"/>
	</g>
	<path class="st1" d="M4099.4,1509.5H542.1c-52,0-94.1-42.1-94.1-94.1l0,0c0-52,42.1-94.1,94.1-94.1h3557.3
		c52,0,94.1,42.1,94.1,94.1l0,0C4193.5,1467.4,4151.4,1509.5,4099.4,1509.5z"/>
	<path class="st1" d="M1684.6,3637.8H986.8c-37.1,0-67.2-30.1-67.2-67.2s30.1-67.2,67.2-67.2h697.8c76.6,0,138.9-62.3,138.9-138.9
		c0-76.6-62.3-138.9-138.9-138.9H725.8c-76.6,0-138.9,62.3-138.9,138.9c0,76.6,62.3,138.9,138.9,138.9h94.1
		c37.1,0,67.2,30.1,67.2,67.2s-30.1,67.2-67.2,67.2h-94.1c-150.7,0-273.3-122.6-273.3-273.3s122.6-273.3,273.3-273.3h958.8
		c150.7,0,273.3,122.6,273.3,273.3S1835.3,3637.8,1684.6,3637.8z"/>
	<polygon class="st1" points="1276.2,3367.2 1170.3,3298.3 1170.3,3436.1 	"/>
	<g>
		<rect x="448" y="1700.9" class="st2" width="3745.5" height="914"/>
		<text transform="matrix(1 0 0 1 448.0288 1852.4712)" class="st1 st3 st4">デザイン責任者がおらず、ブランドづくり</text>
		<text transform="matrix(1 0 0 1 448.0288 2197.4712)" class="st1 st3 st4">やサービス開発にお困りの企業様の右腕</text>
		<text transform="matrix(1 0 0 1 448.0288 2542.4712)" class="st1 st3 st4">になります</text>
		<text transform="matrix(1 0 0 1 1433.7288 2542.4712)" class="st1 st3 st4 st5">。</text>
	</g>
	<rect x="448" y="2773.1" class="st2" width="3745.5" height="161.3"/>
	<text transform="matrix(1 0 0 1 448.0288 2907.1138)" class="st1 st6 st7">所要時間：５分</text>
	<rect x="448" y="703.2" class="st2" width="3745.5" height="349.5"/>
	<text transform="matrix(1 0 0 1 448.0288 743.2002)" class="st1 st8 st9">Survice</text>
	<text transform="matrix(1 0 0 1 448.0288 1131.9937)" class="st1 st10 st9">企業様へ</text>
</g>
</svg>
