<?xml version="1.0" encoding="utf-8"?>
<!-- Generator: Adobe Illustrator 22.1.0, SVG Export Plug-In . SVG Version: 6.00 Build 0)  -->
<svg version="1.1" id="レイヤー_1" xmlns="http://www.w3.org/2000/svg" xmlns:xlink="http://www.w3.org/1999/xlink" x="0px"
	 y="0px" viewBox="0 0 1496 1091" style="enable-background:new 0 0 1496 1091;" xml:space="preserve">
<style type="text/css">
	.st0{opacity:0.5;}
	.st1{fill:#29ABE2;}
	.st2{opacity:0.5;clip-path:url(#SVGID_2_);}
	.st3{fill:#FF7BAC;}
	.st4{fill:#FFFFFF;}
	.st5{fill:#999999;}
	.st6{fill:#2E313D;}
	.st7{fill:none;}
	.st8{font-family:'Futura-MediumItalic';}
	.st9{font-size:72.7347px;}
</style>
<g>
	<g>
		<g class="st0">
			<polygon class="st1" points="392,388 1157,388 878,870 877.5,870 670.5,870 			"/>
			<path class="st1" d="M884.1,880.5H664.4l-290.6-503h801.4L884.1,880.5z M676.6,859.5H872l266.8-461H410.2L676.6,859.5z"/>
		</g>
		<g>
			<g>
				<defs>
					<polygon id="SVGID_1_" points="372,378 294,378 66,880 661,880 					"/>
				</defs>
				<clipPath id="SVGID_2_">
					<use xlink:href="#SVGID_1_"  style="overflow:visible;"/>
				</clipPath>
				<g class="st2">
					<polygon class="st3" points="84.5,870 642.5,870 363.5,388 					"/>
					<path class="st3" d="M660.7,880.5H66.3L363.5,367L660.7,880.5z M102.7,859.5h521.6L363.5,409L102.7,859.5z"/>
				</g>
			</g>
		</g>
	</g>
	<g>
		<g>
			<circle class="st4" cx="363.8" cy="244.7" r="29.2"/>
			<path class="st4" d="M363.8,215.5c16.1,0,29.2,13.1,29.2,29.2S380,274,363.8,274s-29.2-13.1-29.2-29.2S347.7,215.5,363.8,215.5
				 M363.8,183.5c-33.8,0-61.2,27.5-61.2,61.2s27.5,61.2,61.2,61.2s61.2-27.5,61.2-61.2S397.6,183.5,363.8,183.5L363.8,183.5z"/>
		</g>
		<g>
			<path class="st4" d="M429.4,367.5c0-36.2-29.4-65.6-65.6-65.6s-65.6,29.4-65.6,65.6"/>
			<path class="st4" d="M450.4,367.5h-42c0-24.6-20-44.6-44.6-44.6s-44.6,20-44.6,44.6h-42c0-47.8,38.9-86.6,86.6-86.6
				S450.4,319.8,450.4,367.5z"/>
		</g>
	</g>
	<g>
		<g>
			<circle class="st4" cx="643.8" cy="721.7" r="29.2"/>
			<path class="st4" d="M643.8,692.5c16.1,0,29.2,13.1,29.2,29.2S660,751,643.8,751s-29.2-13.1-29.2-29.2S627.7,692.5,643.8,692.5
				 M643.8,660.5c-33.8,0-61.2,27.5-61.2,61.2c0,33.8,27.5,61.2,61.2,61.2s61.2-27.5,61.2-61.2C705.1,688,677.6,660.5,643.8,660.5
				L643.8,660.5z"/>
		</g>
		<g>
			<path class="st4" d="M709.4,844.5c0-36.2-29.4-65.6-65.6-65.6s-65.6,29.4-65.6,65.6"/>
			<path class="st4" d="M730.4,844.5h-42c0-24.6-20-44.6-44.6-44.6s-44.6,20-44.6,44.6h-42c0-47.8,38.9-86.6,86.6-86.6
				S730.4,796.8,730.4,844.5z"/>
		</g>
	</g>
	<g>
		<g>
			<circle class="st4" cx="643.8" cy="721.7" r="29.2"/>
			<path class="st4" d="M643.8,692.5c16.1,0,29.2,13.1,29.2,29.2S660,751,643.8,751s-29.2-13.1-29.2-29.2S627.7,692.5,643.8,692.5
				 M643.8,660.5c-33.8,0-61.2,27.5-61.2,61.2c0,33.8,27.5,61.2,61.2,61.2s61.2-27.5,61.2-61.2C705.1,688,677.6,660.5,643.8,660.5
				L643.8,660.5z"/>
		</g>
		<g>
			<path class="st4" d="M709.4,844.5c0-36.2-29.4-65.6-65.6-65.6s-65.6,29.4-65.6,65.6"/>
			<path class="st4" d="M730.4,844.5h-42c0-24.6-20-44.6-44.6-44.6s-44.6,20-44.6,44.6h-42c0-47.8,38.9-86.6,86.6-86.6
				S730.4,796.8,730.4,844.5z"/>
		</g>
	</g>
	<g>
		<g>
			<circle class="st4" cx="1130.8" cy="229.7" r="29.2"/>
			<path class="st4" d="M1130.8,200.5c16.1,0,29.2,13.1,29.2,29.2s-13,29.3-29.2,29.3s-29.2-13.1-29.2-29.2
				S1114.7,200.5,1130.8,200.5 M1130.8,168.5c-33.8,0-61.2,27.5-61.2,61.2s27.5,61.2,61.2,61.2s61.2-27.5,61.2-61.2
				S1164.6,168.5,1130.8,168.5L1130.8,168.5z"/>
		</g>
		<g>
			<path class="st4" d="M1196.4,352.5c0-36.2-29.4-65.6-65.6-65.6s-65.6,29.4-65.6,65.6"/>
			<path class="st4" d="M1217.4,352.5h-42c0-24.6-20-44.6-44.6-44.6s-44.6,20-44.6,44.6h-42c0-47.8,38.9-86.6,86.6-86.6
				S1217.4,304.8,1217.4,352.5z"/>
		</g>
	</g>
	<g>
		<g>
			<circle class="st4" cx="363.8" cy="244.7" r="29.2"/>
			<path class="st5" d="M363.8,215.5c16.1,0,29.2,13.1,29.2,29.2S380,274,363.8,274s-29.2-13.1-29.2-29.2S347.7,215.5,363.8,215.5
				 M363.8,194.5c-27.7,0-50.2,22.5-50.2,50.2s22.5,50.2,50.2,50.2s50.2-22.5,50.2-50.2S391.5,194.5,363.8,194.5L363.8,194.5z"/>
		</g>
		<g>
			<path class="st4" d="M298.2,367.5c0-36.2,29.4-65.6,65.6-65.6s65.6,29.4,65.6,65.6"/>
			<path class="st5" d="M439.9,367.5h-21c0-30.4-24.7-55.1-55.1-55.1s-55.1,24.7-55.1,55.1h-21c0-42,34.1-76.1,76.1-76.1
				S439.9,325.6,439.9,367.5z"/>
		</g>
	</g>
	<g>
		<g>
			
				<ellipse transform="matrix(3.327794e-02 -0.9994 0.9994 3.327794e-02 -637.3888 784.4352)" class="st4" cx="86.8" cy="721.7" rx="29.2" ry="29.2"/>
			<path class="st4" d="M86.8,692.5c16.1,0,29.2,13.1,29.2,29.2S103,751,86.8,751s-29.2-13.1-29.2-29.2S70.7,692.5,86.8,692.5
				 M86.8,660.5c-33.8,0-61.2,27.5-61.2,61.2c0,33.8,27.5,61.2,61.2,61.2s61.2-27.5,61.2-61.2C148.1,688,120.6,660.5,86.8,660.5
				L86.8,660.5z"/>
		</g>
		<g>
			<path class="st4" d="M152.4,844.5c0-36.2-29.4-65.6-65.6-65.6s-65.6,29.4-65.6,65.6"/>
			<path class="st4" d="M173.4,844.5h-42c0-24.6-20-44.6-44.6-44.6s-44.6,20-44.6,44.6h-42c0-47.8,38.9-86.6,86.6-86.6
				S173.4,796.8,173.4,844.5z"/>
		</g>
	</g>
	<g>
		<circle class="st4" cx="643.9" cy="722.2" r="29.2"/>
		<path class="st5" d="M643.9,692.9c16.1,0,29.2,13.1,29.2,29.2c0,16.1-13.1,29.2-29.2,29.2s-29.2-13.1-29.2-29.2
			C614.6,706,627.7,692.9,643.9,692.9 M643.9,671.9c-27.7,0-50.2,22.5-50.2,50.2s22.5,50.2,50.2,50.2s50.2-22.5,50.2-50.2
			S671.6,671.9,643.9,671.9L643.9,671.9z"/>
	</g>
	<g>
		<path class="st4" d="M578.3,845c0-36.2,29.4-65.6,65.6-65.6c36.2,0,65.6,29.4,65.6,65.6"/>
		<path class="st5" d="M720,845h-21c0-30.4-24.7-55.1-55.1-55.1s-55.1,24.7-55.1,55.1h-21c0-42,34.1-76.1,76.1-76.1S720,803,720,845
			z"/>
	</g>
	<g>
		<g>
			<circle class="st6" cx="1130.9" cy="230.2" r="29.2"/>
			<path class="st5" d="M1130.9,200.9c16.1,0,29.2,13.1,29.2,29.2s-13.1,29.2-29.2,29.2s-29.2-13.1-29.2-29.2
				S1114.7,200.9,1130.9,200.9 M1130.9,179.9c-27.7,0-50.2,22.5-50.2,50.2s22.5,50.2,50.2,50.2s50.2-22.5,50.2-50.2
				S1158.6,179.9,1130.9,179.9L1130.9,179.9z"/>
		</g>
		<g>
			<path class="st6" d="M1065.3,353c0-36.2,29.4-65.6,65.6-65.6s65.6,29.4,65.6,65.6"/>
			<path class="st5" d="M1207,353h-21c0-30.4-24.7-55.1-55.1-55.1s-55.1,24.7-55.1,55.1h-21c0-42,34.1-76.1,76.1-76.1
				S1207,311,1207,353z"/>
		</g>
	</g>
	<g>
		<g>
			
				<ellipse transform="matrix(0.9985 -5.530039e-02 5.530039e-02 0.9985 -39.8047 5.9218)" class="st4" cx="87.1" cy="722.2" rx="29.2" ry="29.2"/>
			<path class="st5" d="M87.1,692.9c16.1,0,29.2,13.1,29.2,29.2c0,16.1-13.1,29.2-29.2,29.2s-29.2-13.1-29.2-29.2
				C57.9,706,71,692.9,87.1,692.9 M87.1,671.9c-27.7,0-50.2,22.5-50.2,50.2s22.5,50.2,50.2,50.2s50.2-22.5,50.2-50.2
				S114.8,671.9,87.1,671.9L87.1,671.9z"/>
		</g>
		<g>
			<path class="st4" d="M21.5,845c0-36.2,29.4-65.6,65.6-65.6s65.6,29.4,65.6,65.6"/>
			<path class="st5" d="M163.2,845h-21c0-30.4-24.7-55.1-55.1-55.1S32,814.6,32,845H11c0-42,34.1-76.1,76.1-76.1
				S163.2,803,163.2,845z"/>
		</g>
	</g>
	<g>
		<line class="st7" x1="149.8" y1="660.9" x2="302.8" y2="395.9"/>
		<rect x="73.4" y="517.9" transform="matrix(0.5 -0.866 0.866 0.5 -344.3967 460.2023)" class="st5" width="306" height="21"/>
	</g>
	<g>
		<line class="st7" x1="518.5" y1="769.3" x2="212.6" y2="769.3"/>
		<rect x="212.6" y="758.8" class="st5" width="305.9" height="21"/>
	</g>
	<g>
		<line class="st7" x1="1002.5" y1="287.3" x2="490.6" y2="287.3"/>
		<rect x="490.6" y="276.8" class="st5" width="511.9" height="21"/>
	</g>
	<g>
		<line class="st7" x1="428.3" y1="395.9" x2="581.3" y2="660.9"/>
		<rect x="494.3" y="375.4" transform="matrix(0.866 -0.5 0.5 0.866 -196.5755 323.1956)" class="st5" width="21" height="306"/>
	</g>
	<g>
		<path class="st4" d="M648,21H83c-34.1,0-62,27.9-62,62l0,0c0,34.1,27.9,62,62,62h371.5l-9.5,33l73.5-33H648c34.1,0,62-27.9,62-62
			l0,0C710,48.9,682.1,21,648,21z"/>
		<path class="st5" d="M648,21c34.1,0,62,27.9,62,62s-27.9,62-62,62H518.5L445,178l9.5-33H83c-34.1,0-62-27.9-62-62s27.9-62,62-62
			H648 M648,0H83C37.2,0,0,37.2,0,83s37.2,83,83,83h343.6l-1.8,6.2c-2.3,7.9,0.2,16.3,6.4,21.7c3.9,3.4,8.8,5.1,13.8,5.1
			c2.9,0,5.8-0.6,8.6-1.8L523,166h125c45.8,0,83-37.2,83-83S693.8,0,648,0L648,0z"/>
	</g>
	<g>
		<path class="st4" d="M648,946h-76.5l9.5-33l-73.5,33h-231h-52.9L150,913l9.5,33H83c-34.1,0-62,27.9-62,62s27.9,62,62,62h565
			c34.1,0,62-27.9,62-62S682.1,946,648,946z"/>
		<path class="st5" d="M581,913l-9.5,33H648c34.1,0,62,27.9,62,62s-27.9,62-62,62H83c-34.1,0-62-27.9-62-62s27.9-62,62-62h76.5
			l-9.5-33l73.5,33h52.9h231L581,913 M581,892c-2.9,0-5.8,0.6-8.6,1.8L503,925H276.5H228l-69.4-31.2c-2.8-1.2-5.7-1.8-8.6-1.8
			c-5,0-9.9,1.8-13.8,5.1c-6.2,5.4-8.7,13.8-6.4,21.7l1.8,6.2H83c-45.8,0-83,37.2-83,83c0,45.8,37.2,83,83,83h565
			c45.8,0,83-37.2,83-83c0-45.8-37.2-83-83-83h-48.6l1.8-6.2c2.3-7.9-0.2-16.3-6.4-21.7C590.9,893.8,586,892,581,892L581,892z"/>
	</g>
	<g>
		<path class="st4" d="M1413,21H848c-34.1,0-62,27.9-62,62l0,0c0,34.1,27.9,62,62,62h371.5l-9.5,33l73.5-33H1413
			c34.1,0,62-27.9,62-62l0,0C1475,48.9,1447.1,21,1413,21z"/>
		<path class="st5" d="M1413,21c34.1,0,62,27.9,62,62s-27.9,62-62,62h-129.5l-73.5,33l9.5-33H848c-34.1,0-62-27.9-62-62
			s27.9-62,62-62H1413 M1413,0H848c-45.8,0-83,37.2-83,83s37.2,83,83,83h343.6l-1.8,6.2c-2.3,7.9,0.2,16.3,6.4,21.7
			c3.9,3.4,8.8,5.1,13.8,5.1c2.9,0,5.8-0.6,8.6-1.8L1288,166h125c45.8,0,83-37.2,83-83S1458.8,0,1413,0L1413,0z"/>
	</g>
	<text transform="matrix(1 0 0 1 188.957 1033.5391)" class="st5 st8 st9">2 designer</text>
	<text transform="matrix(1 0 0 1 202.957 108.5391)" class="st5 st8 st9">1 director</text>
	<text transform="matrix(1 0 0 1 965.957 107.5391)" class="st6 st8 st9">Client:you</text>
</g>
</svg>
