<?xml version="1.0" encoding="utf-8"?>
<!-- Generator: Adobe Illustrator 22.1.0, SVG Export Plug-In . SVG Version: 6.00 Build 0)  -->
<svg version="1.1" id="レイヤー_1" xmlns="http://www.w3.org/2000/svg" xmlns:xlink="http://www.w3.org/1999/xlink" x="0px"
	 y="0px" viewBox="0 0 4067.5 1271.7" style="enable-background:new 0 0 4067.5 1271.7;" xml:space="preserve">
<style type="text/css">
	.st0{fill:#FFFFFF;}
	.st1{fill:#999999;}
</style>
<g>
	<g>
		<polygon class="st0" points="730.1,38 38,1233.7 3337.4,1233.7 4029.5,38 		"/>
		<path class="st1" d="M4029.5,38l-692.1,1195.7H38L730.1,38H4029.5 M4029.5,0H730.1c-13.6,0-26.1,7.2-32.9,19L5.1,1214.7
			c-6.8,11.8-6.8,26.3,0,38c6.8,11.8,19.3,19,32.9,19h3299.4c13.6,0,26.1-7.2,32.9-19L4062.4,57c6.8-11.8,6.8-26.3,0-38
			C4055.6,7.3,4043.1,0,4029.5,0L4029.5,0z"/>
	</g>
	<path class="st1" d="M3359.4,616.9H730.1H71c-6.8,0-13,3.6-16.4,9.5l0,0c-7.3,12.7,1.8,28.5,16.4,28.5h637h2629.4h659
		c6.8,0,13-3.6,16.4-9.5v0c7.3-12.7-1.8-28.5-16.4-28.5H3359.4z"/>
	<g>
		<line class="st0" x1="2379.8" y1="38.2" x2="1687.8" y2="1234.2"/>
		<g>
			<path class="st1" d="M2354.7,100.5c-3.2,0-6.5-0.8-9.5-2.6c-9.1-5.3-12.2-16.9-6.9-26l25-43.3c5.3-9.1,16.9-12.2,26-6.9
				c9.1,5.3,12.2,16.9,6.9,26l-25,43.3C2367.6,97.1,2361.3,100.5,2354.7,100.5z"/>
			<path class="st1" d="M2121.3,503.9c-3.2,0-6.5-0.8-9.5-2.6c-9.1-5.3-12.2-16.9-6.9-26l58.4-100.9c5.3-9.1,16.9-12.2,26-6.9
				c9.1,5.3,12.2,16.9,6.9,26l-58.4,100.9C2134.2,500.5,2127.8,503.9,2121.3,503.9z M2238,302.2c-3.2,0-6.5-0.8-9.5-2.6
				c-9.1-5.3-12.2-16.9-6.9-26l58.4-100.9c5.3-9.1,16.9-12.2,26-6.9c9.1,5.3,12.2,16.9,6.9,26l-58.4,100.9
				C2250.9,298.8,2244.5,302.2,2238,302.2z"/>
			<path class="st1" d="M1771.1,1109c-3.2,0-6.5-0.8-9.5-2.6c-9.1-5.3-12.2-16.9-6.9-26l58.4-100.9c5.3-9.1,16.9-12.2,26-6.9
				c9.1,5.3,12.2,16.9,6.9,26l-58.4,100.9C1784.1,1105.6,1777.7,1109,1771.1,1109z M1887.8,907.3c-3.2,0-6.5-0.8-9.5-2.6
				c-9.1-5.3-12.2-16.9-6.9-26l58.4-100.9c5.3-9.1,16.9-12.2,26-6.9c9.1,5.3,12.2,16.9,6.9,26l-58.4,100.9
				C1900.8,903.9,1894.4,907.3,1887.8,907.3z M2004.6,705.6c-3.2,0-6.5-0.8-9.5-2.6c-9.1-5.3-12.2-16.9-6.9-26l58.4-100.9
				c5.3-9.1,16.9-12.2,26-6.9c9.1,5.3,12.2,16.9,6.9,26L2021,696.1C2017.5,702.2,2011.1,705.6,2004.6,705.6z"/>
			<path class="st1" d="M1687.7,1253.2c-3.2,0-6.5-0.8-9.5-2.6c-9.1-5.3-12.2-16.9-6.9-26l25-43.3c5.3-9.1,16.9-12.2,26-6.9
				c9.1,5.3,12.2,16.9,6.9,26l-25,43.3C1700.7,1249.8,1694.3,1253.2,1687.7,1253.2z"/>
		</g>
	</g>
</g>
</svg>
