<?xml version="1.0" encoding="utf-8"?>
<!-- Generator: Adobe Illustrator 22.1.0, SVG Export Plug-In . SVG Version: 6.00 Build 0)  -->
<svg version="1.1" id="レイヤー_1" xmlns="http://www.w3.org/2000/svg" xmlns:xlink="http://www.w3.org/1999/xlink" x="0px"
	 y="0px" viewBox="0 0 4242.2 3486.2" style="enable-background:new 0 0 4242.2 3486.2;" xml:space="preserve">
<style type="text/css">
	.st0{fill:#B3B3B3;}
	.st1{fill:#999999;}
	.st2{fill:#FFFFFF;}
	.st3{opacity:0.88;}
	.st4{opacity:0.5;}
	.st5{fill:#FF7155;}
	.st6{fill:#FFFF00;}
	.st7{font-family:'Futura-MediumItalic';}
	.st8{font-size:48.634px;}
	.st9{fill:#29ABE2;}
	.st10{opacity:0.5;clip-path:url(#SVGID_2_);}
	.st11{fill:#FF7BAC;}
	.st12{fill:#2E313D;}
	.st13{clip-path:url(#SVGID_4_);}
	.st14{fill:#CCCCCC;}
	.st15{opacity:0.8;}
	.st16{opacity:0.6;}
	.st17{opacity:0.4;}
	.st18{opacity:0.2;}
</style>
<g>
	<g>
		<g>
			<path class="st0" d="M1323.6,918.9L1323.6,918.9c0-46.8-37.9-84.8-84.7-84.8l-423.6-0.5c-46.8-0.1-84.7,37.8-84.7,84.6v84.7
				v163.8v1508.1c0,46.8,37.9,84.8,84.7,84.8l3304.3,4.1c46.8,0.1,84.7-37.8,84.7-84.6V1091.9c0-46.8-37.9-84.8-84.7-84.8
				l-2711.2-3.4C1361.5,1003.6,1323.6,965.7,1323.6,918.9z"/>
			<path class="st1" d="M815.1,833.5c0,0,0.1,0,0.1,0l423.6,0.5c46.8,0.1,84.7,38,84.7,84.8s37.9,84.8,84.7,84.8l2711.2,3.4
				c46.8,0.1,84.7,38,84.7,84.8v1587.2c0,46.8-37.9,84.6-84.6,84.6c0,0-0.1,0-0.1,0l-3304.3-4.1c-46.8-0.1-84.7-38-84.7-84.8V1166.6
				v-163.8v-84.7C730.5,871.4,768.4,833.5,815.1,833.5 M815.3,795.5C815.3,795.5,815.2,795.5,815.3,795.5h-0.2
				c-32.8,0-63.6,12.8-86.7,35.9c-23.2,23.2-35.9,54-35.9,86.7v84.7v163.8v1508.1c0,32.8,12.8,63.6,35.9,86.8
				c23.2,23.2,54,36,86.7,36l3304.3,4.1h0.2c32.8,0,63.6-12.8,86.7-35.9c23.2-23.2,35.9-54,35.9-86.7V1091.9
				c0-32.8-12.8-63.6-35.9-86.8c-23.2-23.2-54-36-86.7-36l-2711.2-3.4c-25.8,0-46.8-21-46.8-46.8c0-32.8-12.8-63.6-35.9-86.8
				c-23.2-23.2-54-36-86.7-36L815.3,795.5L815.3,795.5z"/>
		</g>
		<g>
			<circle class="st1" cx="3992.4" cy="1225.3" r="50.8"/>
			<circle class="st1" cx="3992.4" cy="1394.8" r="50.8"/>
			<circle class="st1" cx="3992.4" cy="1567" r="50.8"/>
			<circle class="st1" cx="3992.4" cy="1564.2" r="50.8"/>
			<circle class="st1" cx="3992.4" cy="1733.7" r="50.8"/>
			<circle class="st1" cx="3992.4" cy="1905.9" r="50.8"/>
			<circle class="st1" cx="3992.4" cy="2072.5" r="50.8"/>
			<circle class="st1" cx="3992.4" cy="2244.8" r="50.8"/>
			<circle class="st1" cx="3992.4" cy="2242" r="50.8"/>
			<circle class="st1" cx="3992.4" cy="2411.4" r="50.8"/>
			<circle class="st1" cx="3992.4" cy="2583.7" r="50.8"/>
		</g>
	</g>
	<g>
		<circle class="st1" cx="3992.9" cy="1227.8" r="50.8"/>
		<circle class="st1" cx="3992.9" cy="1397.3" r="50.8"/>
		<circle class="st1" cx="3992.9" cy="1569.5" r="50.8"/>
		<circle class="st1" cx="3992.9" cy="1566.7" r="50.8"/>
		<circle class="st1" cx="3992.9" cy="1736.2" r="50.8"/>
		<circle class="st1" cx="3992.9" cy="1908.4" r="50.8"/>
		<circle class="st1" cx="3992.9" cy="2075" r="50.8"/>
		<circle class="st1" cx="3992.9" cy="2247.3" r="50.8"/>
		<circle class="st1" cx="3992.9" cy="2244.5" r="50.8"/>
		<circle class="st1" cx="3992.9" cy="2413.9" r="50.8"/>
		<circle class="st1" cx="3992.9" cy="2586.2" r="50.8"/>
	</g>
	<g>
		<g>
			<path class="st2" d="M1092.1,123.4L1092.1,123.4c0-46.8-37.9-84.8-84.7-84.8L583.7,38c-46.8-0.1-84.7,37.8-84.7,84.6v84.7v163.8
				v1508.1c0,46.8,37.9,84.8,84.7,84.8l3304.3,4.1c46.8,0.1,84.7-37.8,84.7-84.6V296.4c0-46.8-37.9-84.8-84.7-84.8l-2711.2-3.4
				C1130,208.1,1092.1,170.2,1092.1,123.4z"/>
			<path class="st1" d="M583.6,38c0,0,0.1,0,0.1,0l423.6,0.5c46.8,0.1,84.7,38,84.7,84.8v0c0,46.8,37.9,84.8,84.7,84.8l2711.2,3.4
				c46.8,0.1,84.7,38,84.7,84.8v1587.2c0,46.8-37.9,84.6-84.6,84.6c0,0-0.1,0-0.1,0l-3304.3-4.1c-46.8-0.1-84.7-38-84.7-84.8V371.1
				V207.3v-84.7C499,75.9,536.9,38,583.6,38 M583.8,0C583.8,0,583.7,0,583.8,0h-0.2c-32.8,0-63.6,12.8-86.7,35.9
				c-23.2,23.2-35.9,54-35.9,86.7v84.7v163.8v1508.1c0,32.8,12.8,63.6,35.9,86.8c23.2,23.2,54,36,86.7,36l3304.3,4.1h0.2
				c32.8,0,63.6-12.8,86.7-35.9c23.2-23.2,35.9-54,35.9-86.7V296.4c0-32.8-12.8-63.6-35.9-86.8c-23.2-23.2-54-36-86.7-36
				l-2711.2-3.4c-25.8,0-46.8-21-46.8-46.8c0-32.8-12.8-63.6-35.9-86.8c-23.2-23.2-54-36-86.7-36L583.8,0L583.8,0z"/>
		</g>
		<g>
			<circle class="st0" cx="3760.9" cy="429.8" r="50.8"/>
			<circle class="st0" cx="3760.9" cy="599.3" r="50.8"/>
			<circle class="st0" cx="3760.9" cy="771.5" r="50.8"/>
			<circle class="st0" cx="3760.9" cy="768.7" r="50.8"/>
			<circle class="st0" cx="3760.9" cy="938.2" r="50.8"/>
			<circle class="st0" cx="3760.9" cy="1110.4" r="50.8"/>
			<circle class="st0" cx="3760.9" cy="1277" r="50.8"/>
			<circle class="st0" cx="3760.9" cy="1449.3" r="50.8"/>
			<circle class="st0" cx="3760.9" cy="1446.5" r="50.8"/>
			<circle class="st0" cx="3760.9" cy="1615.9" r="50.8"/>
			<circle class="st0" cx="3760.9" cy="1788.2" r="50.8"/>
		</g>
	</g>
	<g class="st3">
		<g class="st4">
			<polygon class="st5" points="2005.2,1013.4 1869.1,1013.4 1493.7,1013.4 1307.1,1335.7 1682.6,1335.7 1818.7,1335.7 
				2196.4,1335.7 2383,1013.4 			"/>
			<path class="st5" d="M2200.5,1342.8H1295l194.7-336.3h905.5L2200.5,1342.8z M1319.3,1328.7h873.1l178.4-308.2h-873.1
				L1319.3,1328.7z"/>
		</g>
		<g class="st4">
			<polygon class="st6" points="2403.1,1013.4 3077.2,1013.4 3165.3,1013.4 2978.8,1335.7 2890.4,1335.6 2216.5,1335.6 			"/>
			<path class="st6" d="M2982.8,1342.8l-92.4-0.2h-686l194.7-336.2h778.5L2982.8,1342.8z M2228.7,1328.5h661.7l84.3,0.2l178.4-308.2
				h-746L2228.7,1328.5z"/>
		</g>
		<g>
			<path class="st2" d="M2002.9,1389.9h35.4h154.5l49.2-22.1l-6.4,22.1h51.2c22.8,0,41.5,18.7,41.5,41.5s-18.7,41.5-41.5,41.5
				h-377.8c-22.8,0-41.5-18.7-41.5-41.5s18.7-41.5,41.5-41.5h51.2H2002.9z"/>
			<path class="st1" d="M2286.7,1479.8h-377.8c-26.7,0-48.5-21.7-48.5-48.5c0-26.7,21.7-48.5,48.5-48.5h282.3l47.8-21.4
				c2.5-1.1,5.4-0.7,7.5,1.1c2.1,1.8,2.9,4.6,2.1,7.3l-3.8,13.1h41.8c26.7,0,48.5,21.7,48.5,48.5
				C2335.2,1458.1,2313.4,1479.8,2286.7,1479.8z M1908.9,1396.9c-19,0-34.4,15.4-34.4,34.4s15.4,34.4,34.4,34.4h377.8
				c19,0,34.4-15.4,34.4-34.4s-15.4-34.4-34.4-34.4h-51.2c-2.2,0-4.3-1-5.6-2.8c-1.3-1.8-1.7-4-1.1-6.2l2.2-7.5l-35.3,15.9
				c-0.9,0.4-1.9,0.6-2.9,0.6H1908.9z"/>
		</g>
		<g>
			<g>
				<circle class="st2" cx="3264.2" cy="907.6" r="19.5"/>
				<path class="st2" d="M3264.2,888.1c10.8,0,19.5,8.8,19.5,19.5s-8.8,19.5-19.5,19.5c-10.8,0-19.5-8.8-19.5-19.5
					S3253.4,888.1,3264.2,888.1 M3264.2,866.7c-22.6,0-40.9,18.4-40.9,40.9s18.4,40.9,40.9,40.9s40.9-18.4,40.9-40.9
					S3286.7,866.7,3264.2,866.7L3264.2,866.7z"/>
			</g>
			<g>
				<path class="st2" d="M3308,989.7c0-24.2-19.6-43.9-43.9-43.9s-43.9,19.6-43.9,43.9"/>
				<path class="st2" d="M3322.1,989.7H3294c0-16.4-13.4-29.8-29.8-29.8c-16.4,0-29.8,13.4-29.8,29.8h-28.1
					c0-31.9,26-57.9,57.9-57.9C3296.1,931.8,3322.1,957.8,3322.1,989.7z"/>
			</g>
		</g>
		<g>
			<path class="st2" d="M2002.9,1389.9h35.4h154.5l49.2-22.1l-6.4,22.1h51.2c22.8,0,41.5,18.7,41.5,41.5s-18.7,41.5-41.5,41.5
				h-377.8c-22.8,0-41.5-18.7-41.5-41.5s18.7-41.5,41.5-41.5h51.2H2002.9z"/>
			<path class="st1" d="M2241.9,1367.8l-6.4,22.1h51.2c22.8,0,41.5,18.7,41.5,41.5s-18.7,41.5-41.5,41.5h-377.8
				c-22.8,0-41.5-18.7-41.5-41.5s18.7-41.5,41.5-41.5h51.2h42.8h35.4h154.5L2241.9,1367.8 M2241.9,1353.8c-1.9,0-3.9,0.4-5.7,1.2
				l-46.4,20.8h-151.5h-35.4h-42.8h-51.2c-30.6,0-55.5,24.9-55.5,55.5s24.9,55.5,55.5,55.5h377.8c30.6,0,55.5-24.9,55.5-55.5
				s-24.9-55.5-55.5-55.5h-32.5l1.2-4.1c1.5-5.3-0.2-10.9-4.3-14.5C2248.5,1355,2245.2,1353.8,2241.9,1353.8L2241.9,1353.8z"/>
		</g>
		<g>
			<path class="st2" d="M2633.1,768h-377.8c-22.8,0-41.5,18.7-41.5,41.5l0,0c0,22.8,18.7,41.5,41.5,41.5h248.4l-6.4,22.1l49.2-22.1
				h86.6c22.8,0,41.5-18.7,41.5-41.5l0,0C2674.5,786.7,2655.9,768,2633.1,768z"/>
			<path class="st1" d="M2633.1,768c22.8,0,41.5,18.7,41.5,41.5c0,22.8-18.7,41.5-41.5,41.5h-86.6l-49.2,22.1l6.4-22.1h-248.4
				c-22.8,0-41.5-18.7-41.5-41.5c0-22.8,18.7-41.5,41.5-41.5H2633.1 M2633.1,754h-377.8c-30.6,0-55.5,24.9-55.5,55.5
				c0,30.6,24.9,55.5,55.5,55.5H2485l-1.2,4.1c-1.5,5.3,0.2,10.9,4.3,14.5c2.6,2.3,5.9,3.4,9.2,3.4c1.9,0,3.9-0.4,5.7-1.2l46.4-20.8
				h83.6c30.6,0,55.5-24.9,55.5-55.5C2688.6,778.9,2663.7,754,2633.1,754L2633.1,754z"/>
		</g>
		<g>
			<line class="st2" x1="2315.4" y1="1195.9" x2="2417.7" y2="1018.7"/>
			
				<rect x="2264.2" y="1100.3" transform="matrix(0.5 -0.866 0.866 0.5 224.2809 2603.1167)" class="st1" width="204.6" height="14"/>
		</g>
		<g>
			<line class="st2" x1="3200" y1="1018.7" x2="3097.7" y2="1195.9"/>
			
				<rect x="3046.5" y="1100.3" transform="matrix(0.5 -0.866 0.866 0.5 615.4404 3280.625)" class="st1" width="204.6" height="14"/>
		</g>
		<g>
			<path class="st2" d="M3452.8,768H3075c-22.8,0-41.5,18.7-41.5,41.5l0,0c0,22.8,18.7,41.5,41.5,41.5h248.4l-6.4,22.1l49.2-22.1
				h86.6c22.8,0,41.5-18.7,41.5-41.5l0,0C3494.3,786.7,3475.6,768,3452.8,768z"/>
			<path class="st1" d="M3452.8,768c22.8,0,41.5,18.7,41.5,41.5c0,22.8-18.7,41.5-41.5,41.5h-86.6l-49.2,22.1l6.4-22.1H3075
				c-22.8,0-41.5-18.7-41.5-41.5c0-22.8,18.7-41.5,41.5-41.5H3452.8 M3452.8,754H3075c-30.6,0-55.5,24.9-55.5,55.5
				c0,30.6,24.9,55.5,55.5,55.5h229.8l-1.2,4.1c-1.5,5.3,0.2,10.9,4.3,14.5c2.6,2.3,5.9,3.4,9.2,3.4c1.9,0,3.9-0.4,5.7-1.2
				l46.4-20.8h83.6c30.6,0,55.5-24.9,55.5-55.5C3508.3,778.9,3483.4,754,3452.8,754L3452.8,754z"/>
		</g>
		<g>
			<g>
				<circle class="st2" cx="3264.2" cy="907.9" r="19.5"/>
				<path class="st1" d="M3264.2,888.4c10.8,0,19.5,8.8,19.5,19.5s-8.8,19.5-19.5,19.5s-19.5-8.8-19.5-19.5
					S3253.4,888.4,3264.2,888.4 M3264.2,874.3c-18.5,0-33.6,15.1-33.6,33.6s15.1,33.6,33.6,33.6c18.5,0,33.6-15.1,33.6-33.6
					S3282.7,874.3,3264.2,874.3L3264.2,874.3z"/>
			</g>
			<g>
				<path class="st2" d="M3220.3,990c0-24.2,19.6-43.9,43.9-43.9s43.9,19.6,43.9,43.9"/>
				<path class="st1" d="M3315.1,990h-14c0-20.3-16.5-36.9-36.9-36.9s-36.9,16.5-36.9,36.9h-14c0-28.1,22.8-50.9,50.9-50.9
					S3315.1,962,3315.1,990z"/>
			</g>
		</g>
		<g>
			<path class="st2" d="M2324.9,1303.4h-6.2l0.1-75l-0.2-5.6c0-2.6-2.1-4.7-4.7-4.7h-9c-2.6,0-4.7,2.1-4.7,4.7v80.6h-12.7
				c0.1-0.3,0.1-0.7,0.1-1.1v-29.5v-5.6c0-2.6-2.1-4.7-4.7-4.7h-9c-2.6,0-4.7,2.1-4.7,4.7v35.1c0,0.4,0.1,0.7,0.1,1.1h-13v-8.4v-5.6
				c0-2.6-2.1-4.7-4.7-4.7h-9c-2.6,0-4.7,2.1-4.7,4.7v14h-6c-1.9,0-3.4,1.5-3.4,3.4c0,1.9,1.5,3.4,3.4,3.4h93c1.9,0,3.4-1.5,3.4-3.4
				C2328.3,1304.9,2326.8,1303.4,2324.9,1303.4z"/>
			<path class="st2" d="M2324.9,1324.2h-93c-9.6,0-17.4-7.8-17.4-17.4c0-6.7,3.8-12.6,9.4-15.5v-1.9c0-10.3,8.4-18.8,18.8-18.8h9
				c1.2,0,2.4,0.1,3.6,0.3v-3.7c0-10.3,8.4-18.8,18.8-18.8h9c1.1,0,2.2,0.1,3.2,0.3v-26c0-10.3,8.4-18.8,18.8-18.8h9
				c10.3,0,18.6,8.3,18.8,18.5l0.2,5.4c0,0.2,0,0.3,0,0.5l-0.1,62.9c5.6,2.9,9.5,8.8,9.5,15.5
				C2342.3,1316.4,2334.5,1324.2,2324.9,1324.2z"/>
		</g>
		<g>
			<polyline class="st2" points="3097.4,1107.2 2755.2,1107.2 2755.1,1107.2 2412.8,1107.2 			"/>
			<rect x="2412.8" y="1100.2" class="st1" width="684.6" height="14"/>
		</g>
		<g>
			<line class="st2" x1="1561.7" y1="942.1" x2="2375" y2="942.1"/>
			<rect x="1561.7" y="935" class="st1" width="813.3" height="14"/>
		</g>
		<g>
			<line class="st2" x1="1223.2" y1="1264.4" x2="2191.4" y2="1264.4"/>
			<rect x="1223.2" y="1257.3" class="st1" width="968.2" height="14"/>
		</g>
		<g>
			<path class="st2" d="M2324.9,1303.4h-6.2l0.1-75l-0.2-5.6c0-2.6-2.1-4.7-4.7-4.7h-9c-2.6,0-4.7,2.1-4.7,4.7v80.6h-12.7
				c0.1-0.3,0.1-0.7,0.1-1.1v-29.5v-5.6c0-2.6-2.1-4.7-4.7-4.7h-9c-2.6,0-4.7,2.1-4.7,4.7v35.1c0,0.4,0.1,0.7,0.1,1.1h-13v-8.4v-5.6
				c0-2.6-2.1-4.7-4.7-4.7h-9c-2.6,0-4.7,2.1-4.7,4.7v14h-6c-1.9,0-3.4,1.5-3.4,3.4c0,1.9,1.5,3.4,3.4,3.4h93c1.9,0,3.4-1.5,3.4-3.4
				C2328.3,1304.9,2326.8,1303.4,2324.9,1303.4z"/>
			<path class="st1" d="M2314,1218.1c2.6,0,4.7,2.1,4.7,4.7l0.2,5.6l-0.1,75h6.2c1.9,0,3.4,1.5,3.4,3.4c0,1.9-1.5,3.4-3.4,3.4h-93
				c-1.9,0-3.4-1.5-3.4-3.4c0-1.9,1.5-3.4,3.4-3.4h6v-14c0-2.6,2.1-4.7,4.7-4.7h9c2.6,0,4.7,2.1,4.7,4.7v5.6v8.4h13
				c-0.1-0.3-0.1-0.7-0.1-1.1v-35.1c0-2.6,2.1-4.7,4.7-4.7h9c2.6,0,4.7,2.1,4.7,4.7v5.6v29.5c0,0.4-0.1,0.7-0.1,1.1h12.7v-80.6
				c0-2.6,2.1-4.7,4.7-4.7H2314 M2314,1208h-9c-8.1,0-14.8,6.6-14.8,14.8v31.6c-2.1-1.2-4.6-1.9-7.3-1.9h-9
				c-8.1,0-14.8,6.6-14.8,14.8v9.5c-2.2-1.3-4.8-2.1-7.6-2.1h-9c-8.1,0-14.8,6.6-14.8,14.8v4.6c-5.4,1.7-9.4,6.8-9.4,12.8
				c0,7.4,6,13.4,13.4,13.4h93c7.4,0,13.4-6,13.4-13.4c0-6-4-11.2-9.5-12.8l0.1-65.5c0-0.1,0-0.2,0-0.3l-0.2-5.5
				C2328.6,1214.5,2322,1208,2314,1208L2314,1208z"/>
		</g>
		<g>
			<path class="st2" d="M2787.2,1389.9h35.4h154.5l49.2-22.1l-6.4,22.1h51.2c22.8,0,41.5,18.7,41.5,41.5s-18.7,41.5-41.5,41.5
				h-377.8c-22.8,0-41.5-18.7-41.5-41.5s18.7-41.5,41.5-41.5h51.2H2787.2z"/>
			<path class="st1" d="M3071,1479.8h-377.8c-26.7,0-48.5-21.7-48.5-48.5c0-26.7,21.7-48.5,48.5-48.5h282.3l47.8-21.4
				c2.5-1.1,5.4-0.7,7.5,1.1c2.1,1.8,2.9,4.6,2.1,7.3l-3.8,13.1h41.8c26.7,0,48.5,21.7,48.5,48.5
				C3119.5,1458.1,3097.8,1479.8,3071,1479.8z M2693.2,1396.9c-19,0-34.4,15.4-34.4,34.4s15.4,34.4,34.4,34.4H3071
				c19,0,34.4-15.4,34.4-34.4s-15.4-34.4-34.4-34.4h-51.2c-2.2,0-4.3-1-5.6-2.8c-1.3-1.8-1.7-4-1.1-6.2l2.2-7.5l-35.3,15.9
				c-0.9,0.4-1.9,0.6-2.9,0.6H2693.2z"/>
		</g>
		<g>
			<path class="st2" d="M2787.2,1389.9h35.4h154.5l49.2-22.1l-6.4,22.1h51.2c22.8,0,41.5,18.7,41.5,41.5s-18.7,41.5-41.5,41.5
				h-377.8c-22.8,0-41.5-18.7-41.5-41.5s18.7-41.5,41.5-41.5h51.2H2787.2z"/>
			<path class="st1" d="M3026.2,1367.8l-6.4,22.1h51.2c22.8,0,41.5,18.7,41.5,41.5s-18.7,41.5-41.5,41.5h-377.8
				c-22.8,0-41.5-18.7-41.5-41.5s18.7-41.5,41.5-41.5h51.2h42.8h35.4h154.5L3026.2,1367.8 M3026.2,1353.8c-1.9,0-3.9,0.4-5.7,1.2
				l-46.4,20.8h-151.5h-35.4h-42.8h-51.2c-30.6,0-55.5,24.9-55.5,55.5s24.9,55.5,55.5,55.5H3071c30.6,0,55.5-24.9,55.5-55.5
				s-24.9-55.5-55.5-55.5h-32.5l1.2-4.1c1.5-5.3-0.2-10.9-4.3-14.5C3032.8,1355,3029.6,1353.8,3026.2,1353.8L3026.2,1353.8z"/>
		</g>
		<g>
			<circle class="st2" cx="3335" cy="935" r="19.6"/>
			<path class="st2" d="M3335,968.6c-7.8,0-14-6.3-14-14c0-3-2.5-5.5-5.5-5.5c-7.8,0-14-6.3-14-14c0-7.8,6.3-14,14-14
				c3,0,5.5-2.5,5.5-5.5c0-7.8,6.3-14,14-14c7.8,0,14,6.3,14,14c0,3,2.5,5.5,5.5,5.5c7.8,0,14,6.3,14,14c0,7.8-6.3,14-14,14
				c-3,0-5.5,2.5-5.5,5.5C3349,962.4,3342.7,968.6,3335,968.6z"/>
		</g>
		<g>
			<circle class="st2" cx="3367.7" cy="967.8" r="11.9"/>
			<path class="st2" d="M3367.7,993.7c-7.1,0-12.9-5.2-13.9-12c-6.8-1-12-6.8-12-13.9c0-7.1,5.2-12.9,12-13.9c1-6.8,6.8-12,13.9-12
				c7.1,0,12.9,5.2,13.9,12c6.8,1,12,6.8,12,13.9c0,7.1-5.2,12.9-12,13.9C3380.7,988.5,3374.8,993.7,3367.7,993.7z"/>
		</g>
		<g>
			<path class="st2" d="M2030.9,921.5c89.9-89.9,89.9-235.7,0-325.6l0,0c-89.9-89.9-235.7-89.9-325.6,0l0,0
				c-89.9,89.9-89.9,235.7,0,325.6l0,0c39.5,39.5,89.8,61.6,141.4,66.4l19.8,74l19.7-73.8C1938.9,984.1,1990.5,961.9,2030.9,921.5
				L2030.9,921.5z"/>
			<path class="st2" d="M1868.1,528.4c58.9,0,117.9,22.5,162.8,67.4l0,0c89.9,89.9,89.9,235.7,0,325.6l0,0
				c-40.4,40.4-92,62.6-144.8,66.7l-19.7,73.8l-19.8-74c-51.6-4.8-101.9-26.9-141.4-66.4l0,0c-89.9-89.9-89.9-235.7,0-325.6l0,0
				C1750.2,550.9,1809.2,528.4,1868.1,528.4 M1868.1,500.3c-33.5,0-66.2,6.4-97.2,18.9c-32.1,13-60.8,32.1-85.5,56.7
				c-24.7,24.7-43.7,53.4-56.7,85.5c-12.6,31-18.9,63.7-18.9,97.2c0,33.5,6.4,66.2,18.9,97.2c13,32.1,32.1,60.8,56.7,85.5
				c21.7,21.7,46.6,39.1,74.2,51.9c20.6,9.5,42.3,16.3,64.7,20.1l14.9,55.9c3.3,12.3,14.4,20.8,27.1,20.8c12.7,0,23.8-8.5,27.1-20.8
				l14.8-55.3c22.9-3.6,45.2-10.2,66.4-19.8c28.3-12.8,53.9-30.5,76-52.7c24.7-24.7,43.7-53.4,56.7-85.5
				c12.6-31,18.9-63.7,18.9-97.2c0-33.5-6.4-66.2-18.9-97.2c-13-32.1-32.1-60.8-56.7-85.5c-24.7-24.7-53.4-43.7-85.5-56.7
				C1934.3,506.7,1901.6,500.3,1868.1,500.3L1868.1,500.3z"/>
		</g>
		<g>
			<path class="st2" d="M2500.6,973.5l-17-17c-0.6-0.6-1.5-0.6-2,0l0,0c-0.6,0.6-1.5,0.6-2,0l-2-2c4.3-5.8,6.9-13,6.9-20.9
				c0-19.3-15.7-35-35-35c-3.1,0-6.1,0.4-8.9,1.2c-15.1,3.9-26.2,17.5-26.2,33.8c0,12.1,6.2,22.8,15.5,29c5.6,3.8,12.4,6,19.7,6
				c7.8,0,15-2.6,20.9-6.9l2,2c0.6,0.6,0.6,1.5,0,2c-0.6,0.6-0.6,1.5,0,2l17,17c0.6,0.6,1.5,0.6,2,0l9.3-9.3
				C2501.1,975,2501.1,974.1,2500.6,973.5z"/>
			<path class="st2" d="M2490.3,999.3c-4.1,0-8-1.6-10.9-4.5l-14.5-14.5c-4.9,1.6-10.1,2.5-15.4,2.5c-9.9,0-19.4-2.9-27.5-8.4
				c-13.6-9.1-21.7-24.3-21.7-40.7c0-22.4,15.1-41.9,36.8-47.4c4.1-1.1,8.2-1.6,12.4-1.6c27,0,49.1,22,49.1,49
				c0,5.3-0.8,10.5-2.5,15.4l14.5,14.5c0,0,0,0,0,0c6,6,6,15.9,0,21.9l-9.3,9.3C2498.3,997.7,2494.4,999.3,2490.3,999.3z
				 M2462.3,955.9C2462.3,955.9,2462.3,955.9,2462.3,955.9C2462.3,955.9,2462.3,955.9,2462.3,955.9z M2462.4,955.9
				C2462.4,955.9,2462.3,955.9,2462.4,955.9C2462.3,955.9,2462.4,955.9,2462.4,955.9z M2449.5,912.7c-1.8,0-3.6,0.2-5.4,0.7
				c0,0-0.1,0-0.1,0c-9.2,2.4-15.7,10.7-15.7,20.2c0,7,3.5,13.5,9.3,17.3c0,0,0.1,0,0.1,0.1c3.5,2.4,7.5,3.6,11.8,3.6
				c4.5,0,8.9-1.4,12.5-4.1c0.9-0.6,1.8-1.2,2.8-1.6c0.4-1,1-1.9,1.6-2.8c2.7-3.6,4.1-7.9,4.1-12.5
				C2470.4,922.2,2461,912.7,2449.5,912.7z M2471.7,946.5C2471.7,946.6,2471.7,946.6,2471.7,946.5
				C2471.7,946.6,2471.7,946.6,2471.7,946.5z"/>
		</g>
		<g>
			<g>
				<path class="st2" d="M2500.6,973.5l-17-17c-0.6-0.6-1.5-0.6-2,0l0,0c-0.6,0.6-1.5,0.6-2,0l-2-2c4.3-5.8,6.9-13,6.9-20.9
					c0-19.3-15.7-35-35-35c-3.1,0-6.1,0.4-8.9,1.2c-15.1,3.9-26.2,17.5-26.2,33.8c0,12.1,6.2,22.8,15.5,29c5.6,3.8,12.4,6,19.7,6
					c7.8,0,15-2.6,20.9-6.9l2,2c0.6,0.6,0.6,1.5,0,2c-0.6,0.6-0.6,1.5,0,2l17,17c0.6,0.6,1.5,0.6,2,0l9.3-9.3
					C2501.1,975,2501.1,974.1,2500.6,973.5z"/>
				<path class="st2" d="M2449.5,926.8c3.8,0,6.9,3.1,6.9,6.9c0,1.5-0.5,2.9-1.3,4.1c-0.2,0.3-0.4,0.6-0.6,0.9
					c-0.3,0.2-0.6,0.4-0.9,0.6c-1.2,0.9-2.6,1.3-4.1,1.3c-1.4,0-2.7-0.4-3.9-1.2c-0.1,0-0.1-0.1-0.2-0.1c-0.9-0.6-3-2.4-3-5.7
					c0-3.6,2.6-6,5.1-6.6c0.1,0,0.1,0,0.2-0.1C2448.3,926.9,2448.9,926.8,2449.5,926.8 M2449.5,898.7c-3.1,0-6.1,0.4-8.9,1.2
					c-15.1,3.9-26.2,17.5-26.2,33.8c0,12.1,6.2,22.8,15.5,29c5.6,3.8,12.4,6,19.7,6c7.8,0,15-2.6,20.9-6.9l2,2c0.6,0.6,0.6,1.5,0,2
					c-0.6,0.6-0.6,1.5,0,2l17,17c0.3,0.3,0.6,0.4,1,0.4s0.7-0.1,1-0.4l9.3-9.3c0.6-0.6,0.6-1.5,0-2l-17-17c-0.3-0.3-0.7-0.4-1-0.4
					s-0.7,0.1-1,0.4l0,0c-0.3,0.3-0.6,0.4-1,0.4c-0.4,0-0.7-0.1-1-0.4l-2-2c4.3-5.8,6.9-13,6.9-20.9
					C2484.5,914.4,2468.8,898.7,2449.5,898.7L2449.5,898.7z"/>
			</g>
			<g>
				<circle class="st1" cx="2449.5" cy="934" r="20.8"/>
				<path class="st1" d="M2449.5,913.2c11.5,0,20.8,9.3,20.8,20.8c0,11.5-9.3,20.8-20.8,20.8c-11.5,0-20.8-9.3-20.8-20.8
					C2428.7,922.5,2438.1,913.2,2449.5,913.2 M2449.5,903.2c-17,0-30.8,13.8-30.8,30.8c0,17,13.8,30.8,30.8,30.8
					s30.8-13.8,30.8-30.8C2480.4,917,2466.5,903.2,2449.5,903.2L2449.5,903.2z"/>
			</g>
			<g>
				<g>
					<path class="st2" d="M2500.6,973.5l-17-17c-0.6-0.6-1.5-0.6-2,0l0,0c-0.6,0.6-1.5,0.6-2,0l-2-2c4.3-5.8,6.9-13,6.9-20.9
						c0-19.3-15.7-35-35-35c-19.3,0-35,15.7-35,35c0,19.3,15.7,35,35,35c7.8,0,15-2.6,20.9-6.9l2,2c0.6,0.6,0.6,1.5,0,2
						c-0.6,0.6-0.6,1.5,0,2l17,17c0.6,0.6,1.5,0.6,2,0l9.3-9.3C2501.1,975,2501.1,974.1,2500.6,973.5z M2449.5,958
						c-13.4,0-24.3-10.9-24.3-24.3s10.9-24.3,24.3-24.3s24.3,10.9,24.3,24.3S2462.9,958,2449.5,958z"/>
					<path class="st1" d="M2449.5,898.7c19.3,0,35,15.7,35,35c0,7.8-2.6,15-6.9,20.9l2,2c0.3,0.3,0.7,0.4,1,0.4c0.4,0,0.7-0.1,1-0.4
						l0,0c0.3-0.3,0.7-0.4,1-0.4s0.7,0.1,1,0.4l17,17c0.6,0.6,0.6,1.5,0,2l-9.3,9.3c-0.3,0.3-0.7,0.4-1,0.4s-0.7-0.1-1-0.4l-17-17
						c-0.6-0.6-0.6-1.5,0-2c0.6-0.6,0.6-1.5,0-2l-2-2c-5.8,4.3-13,6.9-20.9,6.9c-19.3,0-35-15.7-35-35
						C2414.5,914.4,2430.1,898.7,2449.5,898.7 M2449.5,958c13.4,0,24.3-10.9,24.3-24.3c0-13.4-10.9-24.3-24.3-24.3
						c-13.4,0-24.3,10.9-24.3,24.3C2425.2,947.1,2436,958,2449.5,958 M2449.5,888.7c-24.8,0-45,20.2-45,45c0,24.8,20.2,45,45,45
						c5.7,0,11.2-1,16.4-3.1l16.3,16.3c2.2,2.2,5,3.4,8.1,3.4c3.1,0,5.9-1.2,8.1-3.4l9.3-9.3c4.5-4.5,4.5-11.7,0-16.2l-16.3-16.3
						c2-5.2,3.1-10.7,3.1-16.4C2494.5,908.9,2474.3,888.7,2449.5,888.7L2449.5,888.7z M2449.5,948c-7.9,0-14.3-6.4-14.3-14.3
						s6.4-14.3,14.3-14.3c7.9,0,14.3,6.4,14.3,14.3S2457.3,948,2449.5,948L2449.5,948z"/>
				</g>
				<path class="st1" d="M2449.2,898.8c19.3,0,34.9,15.6,34.9,34.9c0,19.3-15.6,34.9-34.9,34.9c-19.3,0-34.9-15.6-34.9-34.9
					C2414.3,914.4,2429.9,898.8,2449.2,898.8 M2449.2,898.1c-19.6,0-35.6,16-35.6,35.6s16,35.6,35.6,35.6c19.6,0,35.6-16,35.6-35.6
					S2468.8,898.1,2449.2,898.1L2449.2,898.1z"/>
			</g>
			<g>
				<circle class="st2" cx="2449.2" cy="933.9" r="24.4"/>
				<path class="st1" d="M2449.2,910.1c13.1,0,23.7,10.6,23.7,23.7s-10.6,23.7-23.7,23.7c-13.1,0-23.7-10.6-23.7-23.7
					S2436.1,910.1,2449.2,910.1 M2449.2,909.5c-13.5,0-24.4,10.9-24.4,24.4c0,13.5,10.9,24.4,24.4,24.4c13.5,0,24.4-10.9,24.4-24.4
					C2473.6,920.4,2462.7,909.5,2449.2,909.5L2449.2,909.5z"/>
			</g>
		</g>
		<path class="st1" d="M1868.1,528.4c58.9,0,117.9,22.5,162.8,67.4l0,0c89.9,89.9,89.9,235.7,0,325.6l0,0
			c-40.4,40.4-92,62.6-144.8,66.7l-19.7,73.8l-19.8-74c-51.6-4.8-101.9-26.9-141.4-66.4l0,0c-89.9-89.9-89.9-235.7,0-325.6l0,0
			C1750.2,550.9,1809.2,528.4,1868.1,528.4 M1868.1,508.4c-32.5,0-64.2,6.2-94.2,18.3c-31.1,12.6-58.9,31.1-82.8,55
			c-23.9,23.9-42.4,51.8-55,82.8c-12.2,30-18.3,61.7-18.3,94.2c0,32.5,6.2,64.2,18.3,94.2c12.6,31.1,31.1,58.9,55,82.8
			c21,21,45.2,37.9,71.9,50.3c21.6,10,44.3,16.8,67.8,20.3l16.3,60.9c2.3,8.8,10.3,14.9,19.4,14.9c9.1,0,17-6.1,19.4-14.9l16.2-60.5
			c24.1-3.3,47.4-10,69.5-20c27.4-12.4,52.2-29.6,73.6-51c23.9-23.9,42.4-51.8,55-82.8c12.2-30,18.3-61.7,18.3-94.2
			c0-32.5-6.2-64.2-18.3-94.2c-12.6-31.1-31.1-58.9-55-82.8c-23.9-23.9-51.8-42.4-82.8-55C1932.3,514.5,1900.6,508.4,1868.1,508.4
			L1868.1,508.4z"/>
		<g>
			<g>
				<path class="st1" d="M1753.4,621.3h11.6c4.4,0,7.8,0.2,10.2,0.7c2.4,0.4,4.6,1.2,6.7,2.4c3.8,2.2,6.7,5.4,8.9,9.7
					c2.2,4.3,3.2,9.2,3.2,14.5c0,5.7-1.2,10.9-3.7,15.8c-1.2,2.4-2.6,4.5-4.3,6.3c-1.6,1.8-3.5,3.3-5.6,4.6c-2.4,1.4-5,2.4-7.7,2.9
					c-1.4,0.2-3.1,0.4-5.1,0.6c-2,0.1-4.3,0.2-6.9,0.2h-14.6L1753.4,621.3z M1760.9,629.2l-5.1,41.7h6.5c4.8,0,8.5-0.5,11.2-1.4
					c2.6-0.9,4.9-2.6,6.8-5.2c3.4-4.3,5.1-9.6,5.1-16.1c0-4-0.8-7.5-2.3-10.5c-1.5-3.1-3.6-5.3-6.3-6.6c-2.5-1.3-6.2-1.9-11.2-1.9
					H1760.9z"/>
				<path class="st1" d="M1808.3,664.3c0,2.6,0.9,4.7,2.7,6.4c1.8,1.7,4.1,2.5,6.9,2.5c3.9,0,6.8-1.4,8.9-4.3l6.2,3.4
					c-2.1,2.9-4.3,4.9-6.6,6c-2.3,1.2-5.2,1.8-8.6,1.8c-5.5,0-9.8-1.6-13-4.8c-3.2-3.2-4.9-7.5-4.9-12.9c0-5.6,1.8-10.3,5.3-14.1
					c3.5-3.8,8-5.6,13.4-5.6c5.2,0,9.3,1.7,12.4,5.1c3.1,3.4,4.6,8,4.6,13.7c0,0.6,0,1.6-0.1,2.9H1808.3z M1827.2,657.6
					c-0.9-5.4-3.9-8.1-9-8.1c-4.9,0-8,2.7-9.5,8.1H1827.2z"/>
				<path class="st1" d="M1868,647.6l-4.7,4.7c-2.2-2-4.2-2.9-6.1-2.9c-1.3,0-2.3,0.4-3.2,1.1c-0.8,0.7-1.3,1.6-1.3,2.6
					c0,1,0.3,1.9,1,2.6c0.7,0.7,2.2,1.7,4.4,2.9c3.2,1.8,5.3,3.4,6.3,4.9c1.1,1.4,1.7,3.3,1.7,5.6c0,3.3-1.2,6-3.5,8
					c-2.4,2-5.4,3-9.2,3c-5.2,0-9.4-2.3-12.8-7l5.4-3.8c2.2,2.7,4.6,4,7.1,4c1.4,0,2.6-0.4,3.4-1.1c0.9-0.7,1.3-1.7,1.3-2.9
					c0-1-0.4-1.9-1.1-2.5c-0.3-0.3-1-0.8-1.8-1.3c-0.9-0.6-2.1-1.3-3.5-2.1c-2.6-1.5-4.5-2.9-5.5-4.3c-1-1.5-1.5-3.3-1.5-5.4
					c0-3.2,1.2-5.8,3.5-7.9c2.3-2.1,5.3-3.1,8.9-3.1C1861,642.6,1864.7,644.3,1868,647.6z"/>
				<path class="st1" d="M1886.2,643.7l-4.3,35.2h-8.3l4.3-35.2H1886.2z M1888.8,627c0,1.2-0.4,2.2-1.3,3.1
					c-0.9,0.9-1.9,1.3-3.1,1.3s-2.3-0.4-3.2-1.3c-0.9-0.9-1.3-2-1.3-3.2c0-1.2,0.4-2.3,1.3-3.1c0.9-0.9,1.9-1.3,3.1-1.3
					c1.2,0,2.3,0.5,3.2,1.4C1888.3,624.7,1888.8,625.8,1888.8,627z"/>
				<path class="st1" d="M1933,643.7l-4.3,35.4c-0.3,2.1-0.6,4-0.9,5.5c-0.3,1.6-0.7,2.9-1.1,4c-0.9,2.2-2.2,4.1-3.9,5.6
					c-3.3,3-7.7,4.5-13,4.5c-5.5,0-10-1.4-13.4-4.3c-1.7-1.4-3-3.1-3.7-4.9c-0.7-1.7-1-4.1-1-7.1h8c0.2,3.3,1,5.7,2.5,7.2
					c1.5,1.5,3.8,2.3,6.9,2.3c3.4,0,6-0.9,7.7-2.7c1.8-1.8,2.9-4.7,3.4-8.6l0.6-4.8c-3.5,2.7-7.1,4-11,4c-4.8,0-8.7-1.6-11.8-4.9
					c-3.1-3.3-4.7-7.5-4.7-12.5c0-5.6,1.8-10.2,5.4-13.9c3.6-3.7,8.2-5.6,13.6-5.6c2.6,0,4.7,0.4,6.3,1.2c1.8,0.7,3.6,2.1,5.5,4.1
					l0.5-4.4H1933z M1923.6,660.4c0-3.2-1-5.7-2.9-7.7c-1.9-2-4.5-2.9-7.6-2.9c-3.3,0-6,1.2-8.1,3.6c-2.1,2.4-3.2,5.3-3.2,8.9
					c0,3.1,0.9,5.7,2.8,7.7c1.9,1.9,4.3,2.9,7.4,2.9c3.4,0,6.2-1.2,8.4-3.5C1922.4,667,1923.6,664,1923.6,660.4z"/>
				<path class="st1" d="M1952.8,643.7l-0.4,3.2c3.3-2.7,6.6-4.1,9.9-4.1c3.4,0,6.2,1,8.3,2.9c2,1.9,3,4.5,3,7.8
					c0,1.8-0.1,3.9-0.4,6.4l-2.4,18.9h-8.2l2.5-20.7c0.1-0.8,0.2-1.5,0.2-2.1c0-0.6,0.1-1.1,0.1-1.6c0-3.2-1.7-4.8-5.2-4.8
					c-2.1,0-3.9,0.6-5.5,1.9c-1.2,1-2.2,2.3-2.8,3.7c-0.3,0.7-0.6,1.7-0.8,2.7c-0.2,1.1-0.4,2.3-0.6,3.8l-2.1,16.9h-8.3l4.3-35.2
					H1952.8z"/>
				<path class="st1" d="M1804.9,718.3l4.7,63.1h-8.1l-2.6-36.7l-22.3,40.8l-12.4-40.8l-11.5,36.7h-8.7l19.9-61.7l14.6,47.1
					L1804.9,718.3z"/>
				<path class="st1" d="M1858.3,746.2l-4.3,35.2h-8.3l0.5-3.8c-3.5,3.1-7.2,4.6-11,4.6c-4.7,0-8.4-1.6-11.4-4.7
					c-2.9-3.2-4.4-7.3-4.4-12.3c0-5.8,1.7-10.6,5-14.3c3.4-3.7,7.8-5.6,13.1-5.6c2.5,0,4.7,0.4,6.4,1.2c1.8,0.8,3.6,2.2,5.5,4.3
					l0.6-4.6H1858.3z M1848.2,762.8c0-3.1-0.9-5.6-2.7-7.6c-1.8-2-4.1-2.9-6.9-2.9c-3.1,0-5.7,1.2-7.8,3.6c-2.1,2.4-3.1,5.4-3.1,9
					c0,3.1,0.9,5.6,2.6,7.6c1.7,2,4,2.9,6.7,2.9c3,0,5.7-1.2,7.9-3.7C1847.1,769.2,1848.2,766.2,1848.2,762.8z"/>
				<path class="st1" d="M1878.1,746.2l-0.4,3c2.8-2.6,5.6-4,8.4-4c2.5,0,4.8,0.9,6.8,2.7l-5.3,6.8c-1.5-1.3-3-1.9-4.6-1.9
					c-1,0-2,0.2-2.8,0.6c-0.8,0.4-1.5,1.1-2.1,1.9c-0.6,0.9-1.1,2-1.5,3.4c-0.4,1.4-0.7,3.1-0.9,5l-2.2,17.5h-8.3l4.3-35.2H1878.1z"
					/>
				<path class="st1" d="M1910.7,718.3l-5.1,41.5l14.8-13.7h11l-18.4,16.1l14.8,19.1h-10l-12.8-16.7l-2.1,16.7h-8.3l7.8-63.1H1910.7
					z"/>
				<path class="st1" d="M1942.6,766.8c0,2.6,0.9,4.7,2.7,6.4c1.8,1.7,4.1,2.5,6.9,2.5c3.9,0,6.8-1.4,8.9-4.3l6.2,3.4
					c-2.1,2.9-4.3,4.9-6.6,6c-2.3,1.2-5.2,1.8-8.6,1.8c-5.5,0-9.8-1.6-13-4.8c-3.2-3.2-4.9-7.5-4.9-12.9c0-5.6,1.8-10.3,5.3-14.1
					c3.5-3.8,8-5.6,13.4-5.6c5.2,0,9.3,1.7,12.4,5.1c3.1,3.4,4.6,8,4.6,13.7c0,0.6,0,1.6-0.1,2.9H1942.6z M1961.5,760.1
					c-0.9-5.4-3.9-8.1-9-8.1c-4.9,0-8,2.7-9.5,8.1H1961.5z"/>
				<path class="st1" d="M1989.2,753.9l-3.4,27.5h-8.3l3.4-27.5h-4.7l0.9-7.7h4.7l2-16.3h8.3l-2,16.3h7.6l-0.9,7.7H1989.2z"/>
				<path class="st1" d="M1781.8,826.2l-1,8h-19.9l-1.8,14.9h19.9l-0.9,7.4h-20l-3.4,27.4h-8.5l7.1-57.6H1781.8z"/>
				<path class="st1" d="M1795.4,848.7l-4.3,35.2h-8.3l4.3-35.2H1795.4z M1798,832c0,1.2-0.4,2.2-1.3,3.1c-0.9,0.9-1.9,1.3-3.1,1.3
					s-2.3-0.4-3.2-1.3c-0.9-0.9-1.3-2-1.3-3.2c0-1.2,0.4-2.3,1.3-3.1c0.9-0.9,1.9-1.3,3.1-1.3c1.2,0,2.3,0.5,3.2,1.4
					C1797.5,829.7,1798,830.8,1798,832z"/>
				<path class="st1" d="M1814.8,856.4l-3.4,27.5h-8.3l3.4-27.5h-4.7l0.9-7.7h4.7l2-16.3h8.3l-2,16.3h7.6l-0.9,7.7H1814.8z"/>
				<path class="st1" d="M1851.6,879.8c0,1.4-0.5,2.6-1.4,3.5c-0.9,0.9-2.1,1.4-3.5,1.4c-1.4,0-2.6-0.5-3.6-1.5
					c-1-1-1.5-2.2-1.5-3.7c0-1.4,0.5-2.5,1.4-3.5c1-0.9,2.2-1.4,3.6-1.4c0.7,0,1.4,0.1,2,0.4c0.6,0.3,1.1,0.6,1.6,1.1
					c0.4,0.5,0.8,1,1.1,1.6C1851.5,878.3,1851.6,879,1851.6,879.8z M1857.1,826.2l-5.2,42.5h-8.1l5.2-42.5H1857.1z"/>
			</g>
			<g>
				<line class="st2" x1="1741.7" y1="694.5" x2="1883.8" y2="694.5"/>
				<rect x="1741.7" y="687.4" class="st1" width="142.1" height="14"/>
			</g>
			<g>
				<line class="st2" x1="1741.7" y1="898.1" x2="1883.8" y2="898.1"/>
				<rect x="1741.7" y="891.1" class="st1" width="142.1" height="14"/>
			</g>
			<g>
				<line class="st2" x1="1741.7" y1="796.9" x2="2001.3" y2="796.9"/>
				<rect x="1741.7" y="789.9" class="st1" width="259.6" height="14"/>
			</g>
			<g>
				<line class="st2" x1="1932" y1="694.5" x2="1979" y2="694.5"/>
				<rect x="1932" y="687.4" class="st1" width="47" height="14"/>
			</g>
		</g>
		<g>
			<g>
				<rect x="3035.2" y="1218.4" class="st2" width="50.7" height="91.6"/>
				<path class="st2" d="M3085.9,1324h-50.7c-7.8,0-14-6.3-14-14v-91.6c0-7.8,6.3-14,14-14h50.7c7.8,0,14,6.3,14,14v91.6
					C3099.9,1317.7,3093.7,1324,3085.9,1324z M3049.2,1295.9h22.6v-63.5h-22.6V1295.9z"/>
			</g>
			<g>
				<rect x="3043.5" y="1228" class="st2" width="34.1" height="60.4"/>
				<path class="st2" d="M3077.6,1302.4h-34.1c-7.8,0-14-6.3-14-14V1228c0-7.8,6.3-14,14-14h34.1c7.8,0,14,6.3,14,14v60.4
					C3091.6,1296.2,3085.3,1302.4,3077.6,1302.4z M3057.5,1274.4h6v-32.3h-6V1274.4z"/>
			</g>
			<g>
				<circle class="st2" cx="3060.5" cy="1299.6" r="5.4"/>
				<path class="st2" d="M3060.5,1319c-10.7,0-19.4-8.7-19.4-19.4s8.7-19.4,19.4-19.4s19.4,8.7,19.4,19.4S3071.3,1319,3060.5,1319z
					 M3060.5,1291c-4.8,0-8.6,3.9-8.6,8.6s3.9,8.6,8.6,8.6s8.6-3.9,8.6-8.6S3065.3,1291,3060.5,1291z"/>
			</g>
			<g>
				<polyline class="st2" points="3062.1,1258.2 3056.6,1244 3051.2,1258.2 3043.5,1258.2 				"/>
				<path class="st2" d="M3051.2,1272.2h-7.7v-17l-5.4-2.1l5.5-14.3c2.1-5.4,7.3-9,13.1-9c5.8,0,11,3.6,13.1,9l5.5,14.3l-8.3,3.2
					l-2.6,6.9C3062.2,1268.7,3057,1272.2,3051.2,1272.2z"/>
			</g>
			<g>
				<polyline class="st2" points="3062.1,1258.2 3067.6,1272.5 3073,1258.2 3077.9,1258.2 				"/>
				<path class="st2" d="M3067.6,1286.5C3067.6,1286.5,3067.6,1286.5,3067.6,1286.5c-5.8,0-11-3.6-13.1-9l-5.5-14.3l8.3-3.2l2.6-6.9
					c2.1-5.4,7.3-9,13.1-9h4.9v15.9l8.2,3.1l-5.5,14.3C3078.6,1282.9,3073.4,1286.5,3067.6,1286.5z"/>
			</g>
		</g>
		<g>
			<g>
				<rect x="3035.2" y="1218.4" class="st2" width="50.7" height="91.6"/>
				<path class="st1" d="M3085.9,1218.4v91.6h-50.7v-91.6H3085.9 M3085.9,1208.4h-50.7c-5.5,0-10,4.5-10,10v91.6c0,5.5,4.5,10,10,10
					h50.7c5.5,0,10-4.5,10-10v-91.6C3095.9,1212.8,3091.4,1208.4,3085.9,1208.4L3085.9,1208.4z"/>
			</g>
			<g>
				<rect x="3043.5" y="1228" class="st2" width="34.1" height="60.4"/>
				<path class="st1" d="M3077.6,1228v60.4h-34.1V1228H3077.6 M3077.6,1227.3h-34.1c-0.4,0-0.7,0.3-0.7,0.7v60.4
					c0,0.4,0.3,0.7,0.7,0.7h34.1c0.4,0,0.7-0.3,0.7-0.7V1228C3078.2,1227.6,3077.9,1227.3,3077.6,1227.3L3077.6,1227.3z"/>
			</g>
			<g>
				<circle class="st2" cx="3060.5" cy="1299.6" r="5.4"/>
				<path class="st1" d="M3060.5,1294.2c3,0,5.4,2.4,5.4,5.4c0,3-2.4,5.4-5.4,5.4s-5.4-2.4-5.4-5.4
					C3055.1,1296.6,3057.6,1294.2,3060.5,1294.2 M3060.5,1293.5c-3.3,0-6.1,2.7-6.1,6.1s2.7,6.1,6.1,6.1s6.1-2.7,6.1-6.1
					S3063.9,1293.5,3060.5,1293.5L3060.5,1293.5z"/>
			</g>
			<g>
				<polyline class="st2" points="3062.1,1258.2 3056.6,1244 3051.2,1258.2 3043.5,1258.2 				"/>
				<path class="st1" d="M3051.2,1258.5h-7.7v-0.7h7.5l5.4-14c0.1-0.3,0.5-0.3,0.6,0l5.5,14.3l-0.6,0.2l-5.1-13.4l-5.1,13.4
					C3051.5,1258.5,3051.3,1258.5,3051.2,1258.5z"/>
			</g>
			<g>
				<polyline class="st2" points="3062.1,1258.2 3067.6,1272.5 3073,1258.2 3077.9,1258.2 				"/>
				<path class="st1" d="M3067.6,1272.8c-0.1,0-0.3-0.1-0.3-0.2l-5.5-14.3l0.6-0.2l5.1,13.4l5.1-13.4c0-0.1,0.2-0.2,0.3-0.2h4.9v0.7
					h-4.7l-5.4,14C3067.8,1272.7,3067.7,1272.8,3067.6,1272.8z"/>
			</g>
		</g>
		<g>
			<circle class="st2" cx="3335" cy="935" r="19.6"/>
			<path class="st1" d="M3335,915.5c0,10.8,8.8,19.6,19.6,19.6c-10.8,0-19.6,8.8-19.6,19.6c0-10.8-8.8-19.6-19.6-19.6
				C3326.2,935,3335,926.3,3335,915.5 M3335,905.5c-5.5,0-10,4.5-10,10c0,5.3-4.3,9.5-9.5,9.5c-5.5,0-10,4.5-10,10
				c0,5.5,4.5,10,10,10c5.3,0,9.5,4.3,9.5,9.5c0,5.5,4.5,10,10,10c5.5,0,10-4.5,10-10c0-5.3,4.3-9.5,9.5-9.5c5.5,0,10-4.5,10-10
				c0-5.5-4.5-10-10-10c-5.3,0-9.5-4.3-9.5-9.5C3345,909.9,3340.5,905.5,3335,905.5L3335,905.5z"/>
		</g>
		<g>
			<circle class="st2" cx="3367.7" cy="967.8" r="11.9"/>
			<path class="st1" d="M3367.7,955.9c0,6.6,5.3,11.9,11.9,11.9c-6.6,0-11.9,5.3-11.9,11.9c0-6.6-5.3-11.9-11.9-11.9
				C3362.4,967.8,3367.7,962.5,3367.7,955.9 M3367.7,945.9c-5.5,0-10,4.5-10,10c0,1-0.8,1.8-1.8,1.8c-5.5,0-10,4.5-10,10
				c0,5.5,4.5,10,10,10c1,0,1.8,0.8,1.8,1.8c0,5.5,4.5,10,10,10c5.5,0,10-4.5,10-10c0-1,0.8-1.8,1.8-1.8c5.5,0,10-4.5,10-10
				c0-5.5-4.5-10-10-10c-1,0-1.8-0.8-1.8-1.8C3377.8,950.4,3373.3,945.9,3367.7,945.9L3367.7,945.9z"/>
		</g>
		<text transform="matrix(1 0 0 1 2008.5189 1449.7626)" class="st1 st7 st8">Analisis</text>
		<text transform="matrix(1 0 0 1 3095.7419 827.2503)" class="st1 st7 st8">User: loving it !</text>
		<g>
			<g>
				<circle class="st2" cx="945.9" cy="906.3" r="19.5"/>
				<path class="st2" d="M945.9,886.7c10.8,0,19.5,8.8,19.5,19.5s-8.8,19.5-19.5,19.5s-19.5-8.8-19.5-19.5S935.2,886.7,945.9,886.7
					 M945.9,865.3c-22.6,0-40.9,18.4-40.9,40.9s18.4,40.9,40.9,40.9s40.9-18.4,40.9-40.9S968.5,865.3,945.9,865.3L945.9,865.3z"/>
			</g>
			<g>
				<path class="st2" d="M989.8,988.4c0-24.2-19.6-43.9-43.9-43.9s-43.9,19.6-43.9,43.9"/>
				<path class="st2" d="M1003.9,988.4h-28.1c0-16.4-13.4-29.8-29.8-29.8c-16.4,0-29.8,13.4-29.8,29.8H888c0-31.9,26-57.9,57.9-57.9
					C977.9,930.5,1003.9,956.4,1003.9,988.4z"/>
			</g>
		</g>
		<text transform="matrix(1 0 0 1 2681.8484 1447.7557)" class="st1 st7 st8">Your own design !</text>
		<text transform="matrix(1 0 0 1 2325.4578 823.2376)" class="st1 st7 st8">Design test</text>
		<g>
			<g>
				<circle class="st2" cx="1482.9" cy="906.3" r="19.5"/>
				<path class="st2" d="M1482.9,886.7c10.8,0,19.5,8.8,19.5,19.5s-8.8,19.5-19.5,19.5c-10.8,0-19.5-8.8-19.5-19.5
					S1472.1,886.7,1482.9,886.7 M1482.9,865.3c-22.6,0-40.9,18.4-40.9,40.9s18.4,40.9,40.9,40.9s40.9-18.4,40.9-40.9
					S1505.4,865.3,1482.9,865.3L1482.9,865.3z"/>
			</g>
			<g>
				<path class="st2" d="M1526.7,988.4c0-24.2-19.6-43.9-43.9-43.9c-24.2,0-43.9,19.6-43.9,43.9"/>
				<path class="st2" d="M1540.8,988.4h-28.1c0-16.4-13.4-29.8-29.8-29.8s-29.8,13.4-29.8,29.8H1425c0-31.9,26-57.9,57.9-57.9
					S1540.8,956.4,1540.8,988.4z"/>
			</g>
		</g>
		<g>
			<g class="st4">
				<polygon class="st9" points="963.4,1012.1 1475,1012.1 1288.4,1334.4 1288.1,1334.4 1149.7,1334.4 				"/>
				<path class="st9" d="M1292.5,1341.4h-146.8l-194.3-336.3h535.9L1292.5,1341.4z M1153.7,1327.4h130.6l178.4-308.2H975.6
					L1153.7,1327.4z"/>
			</g>
			<g>
				<defs>
					<polygon id="SVGID_1_" points="950.1,1005.4 897.9,1005.4 745.5,1341.1 1143.3,1341.1 					"/>
				</defs>
				<clipPath id="SVGID_2_">
					<use xlink:href="#SVGID_1_"  style="overflow:visible;"/>
				</clipPath>
				<g class="st10">
					<polygon class="st11" points="757.8,1334.4 1130.9,1334.4 944.4,1012.1 					"/>
					<path class="st11" d="M1143.1,1341.4H745.7l198.7-343.3L1143.1,1341.4z M770,1327.4h348.8l-174.4-301.3L770,1327.4z"/>
				</g>
			</g>
		</g>
		<g>
			<g>
				<circle class="st2" cx="1131.8" cy="1235.3" r="19.5"/>
				<path class="st2" d="M1131.8,1215.7c10.8,0,19.5,8.8,19.5,19.5c0,10.8-8.8,19.5-19.5,19.5c-10.8,0-19.5-8.8-19.5-19.5
					C1112.3,1224.5,1121,1215.7,1131.8,1215.7 M1131.8,1194.3c-22.6,0-40.9,18.4-40.9,40.9c0,22.6,18.4,40.9,40.9,40.9
					c22.6,0,40.9-18.4,40.9-40.9C1172.8,1212.7,1154.4,1194.3,1131.8,1194.3L1131.8,1194.3z"/>
			</g>
			<g>
				<path class="st2" d="M1175.7,1317.4c0-24.2-19.6-43.9-43.9-43.9s-43.9,19.6-43.9,43.9"/>
				<path class="st2" d="M1189.7,1317.4h-28.1c0-16.4-13.4-29.8-29.8-29.8s-29.8,13.4-29.8,29.8h-28.1c0-31.9,26-57.9,57.9-57.9
					S1189.7,1285.4,1189.7,1317.4z"/>
			</g>
		</g>
		<g>
			<g>
				<circle class="st2" cx="945.9" cy="906.3" r="19.5"/>
				<path class="st1" d="M945.9,886.7c10.8,0,19.5,8.8,19.5,19.5s-8.8,19.5-19.5,19.5s-19.5-8.8-19.5-19.5S935.2,886.7,945.9,886.7
					 M945.9,872.7c-18.5,0-33.6,15.1-33.6,33.6c0,18.5,15.1,33.6,33.6,33.6s33.6-15.1,33.6-33.6
					C979.5,887.8,964.5,872.7,945.9,872.7L945.9,872.7z"/>
			</g>
			<g>
				<path class="st2" d="M902.1,988.4c0-24.2,19.6-43.9,43.9-43.9s43.9,19.6,43.9,43.9"/>
				<path class="st1" d="M996.8,988.4h-14c0-20.3-16.5-36.9-36.9-36.9c-20.3,0-36.9,16.5-36.9,36.9h-14c0-28.1,22.8-50.9,50.9-50.9
					C974,937.5,996.8,960.3,996.8,988.4z"/>
			</g>
		</g>
		<g>
			<circle class="st2" cx="1131.9" cy="1235.6" r="19.5"/>
			<path class="st1" d="M1131.9,1216c10.8,0,19.5,8.8,19.5,19.5c0,10.8-8.8,19.5-19.5,19.5c-10.8,0-19.5-8.8-19.5-19.5
				C1112.3,1224.8,1121.1,1216,1131.9,1216 M1131.9,1202c-18.5,0-33.6,15.1-33.6,33.6c0,18.5,15.1,33.6,33.6,33.6
				c18.5,0,33.6-15.1,33.6-33.6C1165.5,1217,1150.4,1202,1131.9,1202L1131.9,1202z"/>
		</g>
		<g>
			<g>
				<circle class="st2" cx="759.4" cy="1235.3" r="19.5"/>
				<path class="st2" d="M759.4,1215.7c10.8,0,19.5,8.8,19.5,19.5c0,10.8-8.8,19.5-19.5,19.5s-19.5-8.8-19.5-19.5
					C739.8,1224.5,748.6,1215.7,759.4,1215.7 M759.4,1194.3c-22.6,0-40.9,18.4-40.9,40.9c0,22.6,18.4,40.9,40.9,40.9
					c22.6,0,40.9-18.4,40.9-40.9C800.3,1212.7,782,1194.3,759.4,1194.3L759.4,1194.3z"/>
			</g>
			<g>
				<path class="st2" d="M803.3,1317.4c0-24.2-19.6-43.9-43.9-43.9s-43.9,19.6-43.9,43.9"/>
				<path class="st2" d="M817.3,1317.4h-28.1c0-16.4-13.4-29.8-29.8-29.8s-29.8,13.4-29.8,29.8h-28.1c0-31.9,26-57.9,57.9-57.9
					S817.3,1285.4,817.3,1317.4z"/>
			</g>
		</g>
		<g>
			<path class="st2" d="M1088,1317.7c0-24.2,19.6-43.9,43.9-43.9c24.2,0,43.9,19.6,43.9,43.9"/>
			<path class="st1" d="M1182.8,1317.7h-14c0-20.3-16.5-36.9-36.9-36.9s-36.9,16.5-36.9,36.9h-14c0-28.1,22.8-50.9,50.9-50.9
				S1182.8,1289.6,1182.8,1317.7z"/>
		</g>
		<g>
			<g>
				<circle class="st12" cx="1482.9" cy="906.6" r="19.5"/>
				<path class="st1" d="M1482.9,887c10.8,0,19.5,8.8,19.5,19.5s-8.8,19.5-19.5,19.5c-10.8,0-19.5-8.8-19.5-19.5
					S1472.1,887,1482.9,887 M1482.9,873c-18.5,0-33.6,15.1-33.6,33.6c0,18.5,15.1,33.6,33.6,33.6c18.5,0,33.6-15.1,33.6-33.6
					C1516.5,888.1,1501.4,873,1482.9,873L1482.9,873z"/>
			</g>
			<g>
				<path class="st12" d="M1439,988.7c0-24.2,19.6-43.9,43.9-43.9s43.9,19.6,43.9,43.9"/>
				<path class="st1" d="M1533.8,988.7h-14c0-20.3-16.5-36.9-36.9-36.9s-36.9,16.5-36.9,36.9h-14c0-28.1,22.8-50.9,50.9-50.9
					C1511,937.8,1533.8,960.6,1533.8,988.7z"/>
			</g>
		</g>
		<g>
			<g>
				<circle class="st2" cx="759.6" cy="1235.6" r="19.5"/>
				<path class="st1" d="M759.6,1216c10.8,0,19.5,8.8,19.5,19.5c0,10.8-8.8,19.5-19.5,19.5s-19.5-8.8-19.5-19.5
					C740,1224.8,748.8,1216,759.6,1216 M759.6,1202c-18.5,0-33.6,15.1-33.6,33.6c0,18.5,15.1,33.6,33.6,33.6
					c18.5,0,33.6-15.1,33.6-33.6C793.2,1217,778.1,1202,759.6,1202L759.6,1202z"/>
			</g>
			<g>
				<path class="st2" d="M715.7,1317.7c0-24.2,19.6-43.9,43.9-43.9s43.9,19.6,43.9,43.9"/>
				<path class="st1" d="M810.5,1317.7h-14c0-20.3-16.5-36.9-36.9-36.9c-20.3,0-36.9,16.5-36.9,36.9h-14c0-28.1,22.8-50.9,50.9-50.9
					C787.7,1266.8,810.5,1289.6,810.5,1317.7z"/>
			</g>
		</g>
		<g>
			<line class="st2" x1="801.5" y1="1194.6" x2="903.8" y2="1017.4"/>
			<rect x="750.4" y="1099" transform="matrix(0.5 -0.866 0.866 0.5 -531.4713 1291.4406)" class="st1" width="204.6" height="14"/>
		</g>
		<g>
			<line class="st2" x1="1048.1" y1="1267" x2="843.5" y2="1267"/>
			<rect x="843.5" y="1260" class="st1" width="204.5" height="14"/>
		</g>
		<g>
			<line class="st2" x1="1403.1" y1="942.1" x2="1029.4" y2="942.1"/>
			<rect x="1029.4" y="935" class="st1" width="373.7" height="14"/>
		</g>
		<g>
			<line class="st2" x1="987.7" y1="1017.4" x2="1090" y2="1194.6"/>
			
				<rect x="1031.9" y="1003.7" transform="matrix(0.866 -0.5 0.5 0.866 -413.809 667.6222)" class="st1" width="14" height="204.6"/>
		</g>
		<g>
			<path class="st2" d="M1477.6,757.4H776.2c-22.8,0-41.5,18.7-41.5,41.5c0,22.8,18.7,41.5,41.5,41.5H903l2.3,22.1l40.5-22.1h94.3
				l-6.4,22.1l49.2-22.1h219.3l5,22.1l37.8-22.1h3.3h21.7l49.2,22.1l-6.4-22.1h64.9c22.8,0,41.5-18.7,41.5-41.5
				C1519.1,776,1500.4,757.4,1477.6,757.4z"/>
			<path class="st1" d="M1477.6,757.4c22.8,0,41.5,18.7,41.5,41.5s-18.7,41.5-41.5,41.5h-64.9l6.4,22.1l-49.2-22.1h-21.7h-3.3
				l-37.8,22.1l-5-22.1h-219.3l-49.2,22.1l6.4-22.1h-94.3l-40.5,22.1l-2.3-22.1H776.2c-22.8,0-41.5-18.7-41.5-41.5
				s18.7-41.5,41.5-41.5H1477.6 M1477.6,743.3H776.2c-30.6,0-55.5,24.9-55.5,55.5s24.9,55.5,55.5,55.5h114.1l1,9.5
				c0.5,4.7,3.3,8.8,7.4,11c2,1.1,4.3,1.6,6.5,1.6c2.3,0,4.6-0.6,6.7-1.7l37.3-20.4h72l-1.2,4.1c-1.5,5.3,0.2,10.9,4.3,14.5
				c2.6,2.3,5.9,3.4,9.2,3.4c1.9,0,3.9-0.4,5.7-1.2l46.4-20.8h205.1l2.5,11.1c1,4.4,4,8,8.1,9.8c1.8,0.8,3.7,1.2,5.6,1.2
				c2.5,0,4.9-0.6,7.1-1.9l34.5-20.2h18.2l46.4,20.8c1.8,0.8,3.8,1.2,5.7,1.2c3.3,0,6.6-1.2,9.2-3.4c4.1-3.6,5.8-9.2,4.3-14.5
				l-1.2-4.1h46.2c30.6,0,55.5-24.9,55.5-55.5S1508.2,743.3,1477.6,743.3L1477.6,743.3z"/>
		</g>
		<text transform="matrix(1 0 0 1 966.7635 813.2083)" class="st12 st7 st8" style="text-decoration: underline;">Try discussion!</text>
	</g>
	<g>
		<g>
			<path class="st2" d="M859.1,1375.4L859.1,1375.4c0-46.8-37.9-84.8-84.7-84.8l-423.6-0.5c-46.8-0.1-84.7,37.8-84.7,84.6v84.7
				v163.8v1508.1c0,46.8,37.9,84.8,84.7,84.8l3304.3,4.1c46.8,0.1,84.7-37.8,84.7-84.6V1548.4c0-46.8-37.9-84.8-84.7-84.8
				l-2711.2-3.4C897,1460.1,859.1,1422.2,859.1,1375.4z"/>
			<path class="st1" d="M350.6,1290c0,0,0.1,0,0.1,0l423.6,0.5c46.8,0.1,84.7,38,84.7,84.8v0c0,46.8,37.9,84.8,84.7,84.8l2711.2,3.4
				c46.8,0.1,84.7,38,84.7,84.8v1587.2c0,46.8-37.9,84.6-84.6,84.6c0,0-0.1,0-0.1,0l-3304.3-4.1c-46.8-0.1-84.7-38-84.7-84.8V1623.1
				v-163.8v-84.7C266,1327.9,303.9,1290,350.6,1290 M350.8,1252C350.8,1252,350.7,1252,350.8,1252h-0.2c-32.8,0-63.6,12.8-86.7,35.9
				c-23.2,23.2-35.9,54-35.9,86.7v84.7v163.8v1508.1c0,32.8,12.8,63.6,35.9,86.8c23.2,23.2,54,36,86.7,36l3304.3,4.1h0.2
				c32.8,0,63.6-12.8,86.7-35.9c23.2-23.2,35.9-54,35.9-86.7V1548.4c0-32.8-12.8-63.6-35.9-86.8c-23.2-23.2-54-36-86.7-36
				l-2711.2-3.4c-25.8,0-46.8-21-46.8-46.8c0-32.8-12.8-63.6-35.9-86.8c-23.2-23.2-54-36-86.7-36L350.8,1252L350.8,1252z"/>
		</g>
		<g>
			<circle class="st0" cx="3527.9" cy="1681.8" r="50.8"/>
			<circle class="st0" cx="3527.9" cy="1851.3" r="50.8"/>
			<circle class="st0" cx="3527.9" cy="2023.5" r="50.8"/>
			<circle class="st0" cx="3527.9" cy="2020.7" r="50.8"/>
			<circle class="st0" cx="3527.9" cy="2190.2" r="50.8"/>
			<circle class="st0" cx="3527.9" cy="2362.4" r="50.8"/>
			<circle class="st0" cx="3527.9" cy="2529" r="50.8"/>
			<circle class="st0" cx="3527.9" cy="2701.3" r="50.8"/>
			<circle class="st0" cx="3527.9" cy="2698.5" r="50.8"/>
			<circle class="st0" cx="3527.9" cy="2867.9" r="50.8"/>
			<circle class="st0" cx="3527.9" cy="3040.2" r="50.8"/>
		</g>
	</g>
	<g>
		<defs>
			<path id="SVGID_3_" d="M858.1,1371.4L858.1,1371.4c0-46.8-37.9-84.8-84.7-84.8l-423.6-0.5c-46.8-0.1-84.7,37.8-84.7,84.6v84.7
				v163.8v1508.1c0,46.8,37.9,84.8,84.7,84.8l3304.3,4.1c46.8,0.1,84.7-37.8,84.7-84.6V1544.4c0-46.8-37.9-84.8-84.7-84.8
				l-2711.2-3.4C896,1456.1,858.1,1418.2,858.1,1371.4z"/>
		</defs>
		<clipPath id="SVGID_4_">
			<use xlink:href="#SVGID_3_"  style="overflow:visible;"/>
		</clipPath>
		<g class="st13">
			<g>
				<g>
					<path class="st14" d="M1074.1,1597.4L1074.1,1597.4c0-46.8-37.9-84.8-84.7-84.8l-423.6-0.5c-46.8-0.1-84.7,37.8-84.7,84.6v84.7
						v163.8v1508.1c0,46.8,37.9,84.8,84.7,84.8l3304.3,4.1c46.8,0.1,84.7-37.8,84.7-84.6V1770.4c0-46.8-37.9-84.8-84.7-84.8
						l-2711.2-3.4C1112,1682.1,1074.1,1644.2,1074.1,1597.4z"/>
				</g>
				<g class="st15">
					<path class="st14" d="M1092.1,1597.4L1092.1,1597.4c0-46.8-37.9-84.8-84.7-84.8l-423.6-0.5c-46.8-0.1-84.7,37.8-84.7,84.6v84.7
						v163.8v1508.1c0,46.8,37.9,84.8,84.7,84.8l3304.3,4.1c46.8,0.1,84.7-37.8,84.7-84.6V1770.4c0-46.8-37.9-84.8-84.7-84.8
						l-2711.2-3.4C1130,1682.1,1092.1,1644.2,1092.1,1597.4z"/>
				</g>
				<g class="st16">
					<path class="st14" d="M1108.1,1597.4L1108.1,1597.4c0-46.8-37.9-84.8-84.7-84.8l-423.6-0.5c-46.8-0.1-84.7,37.8-84.7,84.6v84.7
						v163.8v1508.1c0,46.8,37.9,84.8,84.7,84.8l3304.3,4.1c46.8,0.1,84.7-37.8,84.7-84.6V1770.4c0-46.8-37.9-84.8-84.7-84.8
						l-2711.2-3.4C1146,1682.1,1108.1,1644.2,1108.1,1597.4z"/>
				</g>
				<g class="st17">
					<path class="st14" d="M1123.1,1597.4L1123.1,1597.4c0-46.8-37.9-84.8-84.7-84.8l-423.6-0.5c-46.8-0.1-84.7,37.8-84.7,84.6v84.7
						v163.8v1508.1c0,46.8,37.9,84.8,84.7,84.8l3304.3,4.1c46.8,0.1,84.7-37.8,84.7-84.6V1770.4c0-46.8-37.9-84.8-84.7-84.8
						l-2711.2-3.4C1161,1682.1,1123.1,1644.2,1123.1,1597.4z"/>
				</g>
				<g class="st18">
					<path class="st14" d="M1137.1,1597.4L1137.1,1597.4c0-46.8-37.9-84.8-84.7-84.8l-423.6-0.5c-46.8-0.1-84.7,37.8-84.7,84.6v84.7
						v163.8v1508.1c0,46.8,37.9,84.8,84.7,84.8l3304.3,4.1c46.8,0.1,84.7-37.8,84.7-84.6V1770.4c0-46.8-37.9-84.8-84.7-84.8
						l-2711.2-3.4C1175,1682.1,1137.1,1644.2,1137.1,1597.4z"/>
				</g>
			</g>
		</g>
	</g>
	<g>
		<circle class="st0" cx="3527.9" cy="1681.8" r="50.8"/>
		<circle class="st0" cx="3527.9" cy="1851.3" r="50.8"/>
		<circle class="st0" cx="3527.9" cy="2023.5" r="50.8"/>
		<circle class="st0" cx="3527.9" cy="2020.7" r="50.8"/>
		<circle class="st0" cx="3527.9" cy="2190.2" r="50.8"/>
		<circle class="st0" cx="3527.9" cy="2362.4" r="50.8"/>
		<circle class="st0" cx="3527.9" cy="2529" r="50.8"/>
		<circle class="st0" cx="3527.9" cy="2701.3" r="50.8"/>
		<circle class="st0" cx="3527.9" cy="2698.5" r="50.8"/>
		<circle class="st0" cx="3527.9" cy="2867.9" r="50.8"/>
		<circle class="st0" cx="3527.9" cy="3040.2" r="50.8"/>
	</g>
	<g>
		<g>
			<path class="st2" d="M631.1,1603.4L631.1,1603.4c0-46.8-37.9-84.8-84.7-84.8l-423.6-0.5c-46.8-0.1-84.7,37.8-84.7,84.6v84.7
				v163.8v1508.1c0,46.8,37.9,84.8,84.7,84.8l3304.3,4.1c46.8,0.1,84.7-37.8,84.7-84.6V1776.4c0-46.8-37.9-84.8-84.7-84.8
				l-2711.2-3.4C669,1688.1,631.1,1650.2,631.1,1603.4z"/>
			<path class="st1" d="M122.6,1518c0,0,0.1,0,0.1,0l423.6,0.5c46.8,0.1,84.7,38,84.7,84.8v0c0,46.8,37.9,84.8,84.7,84.8l2711.2,3.4
				c46.8,0.1,84.7,38,84.7,84.8v1587.2c0,46.8-37.9,84.6-84.6,84.6c0,0-0.1,0-0.1,0l-3304.3-4.1c-46.8-0.1-84.7-38-84.7-84.8V1851.1
				v-163.8v-84.7C38,1555.9,75.9,1518,122.6,1518 M122.8,1480C122.8,1480,122.7,1480,122.8,1480h-0.2c-32.8,0-63.6,12.8-86.7,35.9
				c-23.2,23.2-35.9,54-35.9,86.7v84.7v163.8v1508.1c0,32.8,12.8,63.6,35.9,86.8c23.2,23.2,54,36,86.7,36l3304.3,4.1h0.2
				c32.8,0,63.6-12.8,86.7-35.9c23.2-23.2,35.9-54,35.9-86.7V1776.4c0-32.8-12.8-63.6-35.9-86.8c-23.2-23.2-54-36-86.7-36
				l-2711.2-3.4c-25.8,0-46.8-21-46.8-46.8c0-32.8-12.8-63.6-35.9-86.8c-23.2-23.2-54-36-86.7-36L122.8,1480L122.8,1480z"/>
		</g>
		<g>
			<circle class="st0" cx="3299.9" cy="1909.8" r="50.8"/>
			<circle class="st0" cx="3299.9" cy="2079.3" r="50.8"/>
			<circle class="st0" cx="3299.9" cy="2251.5" r="50.8"/>
			<circle class="st0" cx="3299.9" cy="2248.7" r="50.8"/>
			<circle class="st0" cx="3299.9" cy="2418.2" r="50.8"/>
			<circle class="st0" cx="3299.9" cy="2590.4" r="50.8"/>
			<circle class="st0" cx="3299.9" cy="2757" r="50.8"/>
			<circle class="st0" cx="3299.9" cy="2929.3" r="50.8"/>
			<circle class="st0" cx="3299.9" cy="2926.5" r="50.8"/>
			<circle class="st0" cx="3299.9" cy="3095.9" r="50.8"/>
			<circle class="st0" cx="3299.9" cy="3268.2" r="50.8"/>
		</g>
	</g>
</g>
</svg>
