<svg xmlns="http://www.w3.org/2000/svg" viewBox="0 0 33.705 56.297">
  <defs>
    <style>
      .cls-1 {
        fill: #3e3e3e;
      }
    </style>
  </defs>
  <g id="_04_company" data-name="04_company" transform="translate(0.001)">
    <path id="パス_1193" data-name="パス 1193" class="cls-1" d="M33.63,16.467A1.729,1.729,0,0,0,31.9,14.741h0a1.729,1.729,0,0,0-1.726,1.732l.07,36.315L22.85,52.8l0-1.848c0-.019,0-.037,0-.056l-.006-2.851A5.966,5.966,0,0,0,16.881,42.1h-.017a5.967,5.967,0,0,0-5.939,5.969L10.93,51.2c0,.019,0,.037,0,.056l0,1.565-7.394.013L3.461,11.464l5.394-.01A1.728,1.728,0,0,0,10.58,9.665a6.228,6.228,0,0,1,6.214-6.207h.013a6.238,6.238,0,0,1,6.23,6.2v0a1.728,1.728,0,0,0,1.727,1.768h0l7.123-.013a1.73,1.73,0,0,0,0-3.459h0l-5.543.01A9.7,9.7,0,0,0,16.807,0h-.023A9.7,9.7,0,0,0,7.269,8l-5.543.01A1.73,1.73,0,0,0,0,9.742L.085,54.571A1.729,1.729,0,0,0,1.814,56.3h0l10.852-.019a1.728,1.728,0,0,0,1.726-1.73v-.014c0-.12,0-2.07-.007-3.883,0-.019,0-.037,0-.056l0-2.533a2.5,2.5,0,0,1,2.5-2.506h0a2.5,2.5,0,0,1,2.5,2.5l.006,3.453c0,.019,0,.036,0,.054l.006,2.976a1.73,1.73,0,0,0,1.729,1.726h0l10.852-.019A1.73,1.73,0,0,0,33.7,54.511Z" transform="translate(0)"/>
    <path id="パス_1194" data-name="パス 1194" class="cls-1" d="M1231.858,1760.629a1.729,1.729,0,1,0-3.458,0v1.8a1.729,1.729,0,0,0,3.458,0Z" transform="translate(-1210.791 -1733.686)"/>
    <path id="パス_1195" data-name="パス 1195" class="cls-1" d="M1559.158,1760.629a1.729,1.729,0,1,0-3.458,0v1.8a1.729,1.729,0,0,0,3.458,0Z" transform="translate(-1533.399 -1733.686)"/>
    <path id="パス_1196" data-name="パス 1196" class="cls-1" d="M557.781,1760.629a1.729,1.729,0,0,0-1.729-1.729h-.023a1.729,1.729,0,0,0-1.729,1.729v1.8a1.729,1.729,0,0,0,1.729,1.729h.023a1.729,1.729,0,0,0,1.729-1.729Z" transform="translate(-546.355 -1733.686)"/>
    <path id="パス_1197" data-name="パス 1197" class="cls-1" d="M885.081,1760.629a1.729,1.729,0,0,0-1.729-1.729h-.023a1.729,1.729,0,0,0-1.729,1.729v1.8a1.729,1.729,0,0,0,1.729,1.729h.023a1.729,1.729,0,0,0,1.729-1.729Z" transform="translate(-868.963 -1733.686)"/>
    <path id="パス_1198" data-name="パス 1198" class="cls-1" d="M1231.858,1279.129a1.729,1.729,0,0,0-3.458,0v1.619a1.729,1.729,0,0,0,3.458,0Z" transform="translate(-1210.791 -1259.088)"/>
    <path id="パス_1199" data-name="パス 1199" class="cls-1" d="M1571.858,1279.129a1.729,1.729,0,0,0-3.458,0v1.619a1.729,1.729,0,0,0,3.458,0Z" transform="translate(-1545.917 -1259.088)"/>
    <path id="パス_1200" data-name="パス 1200" class="cls-1" d="M543.229,1282.476h.023a1.729,1.729,0,0,0,1.729-1.729v-1.619a1.729,1.729,0,0,0-1.729-1.729h-.023a1.729,1.729,0,0,0-1.729,1.729v1.619A1.729,1.729,0,0,0,543.229,1282.476Z" transform="translate(-533.738 -1259.088)"/>
    <path id="パス_1201" data-name="パス 1201" class="cls-1" d="M885.081,1279.129a1.729,1.729,0,0,0-1.729-1.729h-.023a1.729,1.729,0,0,0-1.729,1.729v1.619a1.729,1.729,0,0,0,1.729,1.729h.023a1.729,1.729,0,0,0,1.729-1.729Z" transform="translate(-868.963 -1259.088)"/>
    <path id="パス_1202" data-name="パス 1202" class="cls-1" d="M1230.129,2253.1a1.729,1.729,0,0,0-1.729,1.729v1.8a1.729,1.729,0,1,0,3.458,0v-1.8A1.729,1.729,0,0,0,1230.129,2253.1Z" transform="translate(-1210.791 -2220.802)"/>
    <path id="パス_1203" data-name="パス 1203" class="cls-1" d="M1557.429,2253.1a1.729,1.729,0,0,0-1.729,1.729v1.8a1.729,1.729,0,1,0,3.458,0v-1.8A1.729,1.729,0,0,0,1557.429,2253.1Z" transform="translate(-1533.399 -2220.802)"/>
    <path id="パス_1204" data-name="パス 1204" class="cls-1" d="M555.929,2258.358h.023a1.729,1.729,0,0,0,1.729-1.729v-1.8a1.729,1.729,0,0,0-1.729-1.729h-.023a1.729,1.729,0,0,0-1.729,1.729v1.8A1.729,1.729,0,0,0,555.929,2258.358Z" transform="translate(-546.256 -2220.801)"/>
    <path id="パス_1205" data-name="パス 1205" class="cls-1" d="M883.352,2253.1h-.023a1.729,1.729,0,0,0-1.729,1.729v1.8a1.729,1.729,0,0,0,1.729,1.729h.023a1.729,1.729,0,0,0,1.729-1.729v-1.8A1.729,1.729,0,0,0,883.352,2253.1Z" transform="translate(-868.963 -2220.802)"/>
  </g>
</svg>
