<svg id="_07_contact" data-name="07_contact" xmlns="http://www.w3.org/2000/svg" viewBox="0 0 41.688 28.997">
  <defs>
    <style>
      .cls-1 {
        fill: #3e3e3e;
      }
    </style>
  </defs>
  <path id="パス_1210" data-name="パス 1210" class="cls-1" d="M39.965,416.742H1.722A1.722,1.722,0,0,1,0,415.02V395.689a1.721,1.721,0,0,1,2.5-1.535l18.345,9.273,18.345-9.273a1.721,1.721,0,0,1,2.5,1.535V415.02A1.719,1.719,0,0,1,39.965,416.742ZM3.442,413.3h34.8V398.488l-16.625,8.4a1.723,1.723,0,0,1-1.553,0l-16.625-8.4Z" transform="translate(0 -387.744)"/>
  <path id="パス_1211" data-name="パス 1211" class="cls-1" d="M39.965,3.442H1.722A1.721,1.721,0,1,1,1.722,0H39.967a1.721,1.721,0,1,1,0,3.442Z"/>
</svg>
