<svg id="_05_event" data-name="05_event" xmlns="http://www.w3.org/2000/svg" viewBox="0 0 43.096 48.076">
  <defs>
    <style>
      .cls-1 {
        fill: #3e3e3e;
      }
    </style>
  </defs>
  <path id="パス_1206" data-name="パス 1206" class="cls-1" d="M42.937,4.659l-4.5-4.5h0L38.412.134s0,0,0,0L38.392.117a1.552,1.552,0,0,0-.754-.385h0l-.031-.006-.008,0-.025,0-.015,0-.017,0-.023,0-.008,0A1.415,1.415,0,0,0,37.33-.3h0L5.35-.223A1.564,1.564,0,0,0,3.79,1.34V10.5a1.723,1.723,0,0,0,.02.253,160.517,160.517,0,0,1-.844,17.314c-.645,5.607-1.393,7.3-1.646,7.731a1.563,1.563,0,0,0,.542,3.03H33.847a2.288,2.288,0,0,0,1.63-.71c3.141-3.1,3.448-20.3,3.434-27.542V10.5a1.743,1.743,0,0,0-.02-.254V5.036l1.376,1.376V44.65H10.427L9.051,43.273H37.33a1.564,1.564,0,0,0,1.563-1.563V40.374a1.563,1.563,0,0,0-3.109-.228H5.277a1.564,1.564,0,0,0-1.1,2.669l4.5,4.5a1.565,1.565,0,0,0,1.1.458H41.832A1.564,1.564,0,0,0,43.4,46.213V5.765A1.569,1.569,0,0,0,42.937,4.659Zm-7.172-1.83V8.934H6.915V2.9Zm-.8,25.736c-.581,4.95-1.273,6.626-1.557,7.132H4.724A35.912,35.912,0,0,0,5.9,29.845,149.789,149.789,0,0,0,6.933,12.06H35.787A153.244,153.244,0,0,1,34.967,28.566Z" transform="translate(-0.3 0.3)"/>
  <path id="パス_1207" data-name="パス 1207" class="cls-1" d="M1055.131,1106.491l.769,0c-.188,3.656-.477,6.821-.906,9.927l-.061.444h3.994l.046-.337a129.37,129.37,0,0,0,.975-13.31l.012-.4-3.145,0v-.006l-1.024,0h0l-1.5,0h-.453l-.008.27,0,.118c-.029.975-.064,1.948-.106,2.893l-.018.409,1.43,0Z" transform="translate(-1037.557 -1085.897)"/>
</svg>
