<svg id="_02_for_learner" data-name="02_for learner" xmlns="http://www.w3.org/2000/svg" viewBox="0 0 42.861 41.121">
  <defs>
    <style>
      .cls-1 {
        fill: #3e3e3e;
      }
    </style>
  </defs>
  <path id="パス_1188" data-name="パス 1188" class="cls-1" d="M1987.2,1615.7l-1.855-6.585.39-.785a1.463,1.463,0,0,0-2.622-1.3l-.64,1.29a1.462,1.462,0,0,0-.1,1.047l1.484,5.267h-2.238a1.464,1.464,0,0,0-1.405,1.054c-1.368,4.709-5.276,7.522-10.454,7.522a1.463,1.463,0,1,0,0,2.927c6.064,0,10.916-3.256,12.914-8.576h3.115a1.464,1.464,0,0,0,1.408-1.861Z" transform="translate(-1944.393 -1586.728)"/>
  <path id="パス_1189" data-name="パス 1189" class="cls-1" d="M20.984,18.491c.178-.586.37-1.178.58-1.791l17.25-.008A1.463,1.463,0,0,0,40.2,14.763,21.665,21.665,0,0,0-2,21.662,1.463,1.463,0,0,0-.537,23.125,1.463,1.463,0,0,0,.927,21.662a18.739,18.739,0,0,1,35.732-7.9l-16.107.007a1.4,1.4,0,0,0-.175.007,1.458,1.458,0,0,0-.77.318h0l-.023.018-.008.007-.015.012-.016.015-.007.006-.022.021h0a1.465,1.465,0,0,0-.223.271h0c-.006.01-.012.018-.017.028l-.015.024,0,0a1.47,1.47,0,0,0-.12.267c-.36,1-.673,1.94-.955,2.865,0,0,0,0,0,0-1.984,6.514-2.41,12.4-1.438,20.554H15.435c-2.4-6.411-3.476-12.178-3.19-17.154a1.463,1.463,0,0,0-2.922-.167c-.294,5.112.713,10.931,3,17.324H10.064c-2.4-6.414-3.479-12.181-3.192-17.157a1.463,1.463,0,0,0-2.922-.167c-.294,5.112.715,10.931,3,17.324H4.729A44.518,44.518,0,0,1,1.412,25.959,1.465,1.465,0,0,0-.2,24.66a1.464,1.464,0,0,0-1.3,1.611,48.329,48.329,0,0,0,3.918,13.97,1.461,1.461,0,0,0,1.342.88H18.408a1.463,1.463,0,0,0,1.45-1.661C18.685,30.88,19,25,20.983,18.494,20.983,18.493,20.984,18.493,20.984,18.491Z" transform="translate(2)"/>
</svg>
