<svg id="_06__magazine" data-name="06_ magazine" xmlns="http://www.w3.org/2000/svg" viewBox="0 0 42.102 33.562">
  <defs>
    <style>
      .cls-1 {
        fill: #3e3e3e;
      }
    </style>
  </defs>
  <path id="パス_1208" data-name="パス 1208" class="cls-1" d="M40.671,294.4a1.433,1.433,0,0,0-1.433,1.433v22.5a61.571,61.571,0,0,0-9.779.855c-1.3.242-3.941.732-5.118,2.008H17.777a4.381,4.381,0,0,0-1.5-1,17.246,17.246,0,0,0-3.633-1.011,61.571,61.571,0,0,0-9.779-.855v-22.5a1.435,1.435,0,0,0-2.87,0v23.926a1.433,1.433,0,0,0,1.433,1.433c8.327,0,13.139,1.155,14.111,1.843a1.433,1.433,0,0,0,1.376,1.032h8.263a1.433,1.433,0,0,0,1.376-1.032c.971-.687,5.783-1.843,14.111-1.843a1.433,1.433,0,0,0,1.433-1.433V295.833A1.429,1.429,0,0,0,40.671,294.4Z" transform="translate(0 -290.505)"/>
  <path id="パス_1209" data-name="パス 1209" class="cls-1" d="M310.233,26.794c8.327,0,13.14,1.155,14.111,1.843a1.433,1.433,0,0,0,1.376,1.032h.093a1.433,1.433,0,0,0,1.376-1.032c.971-.687,5.783-1.843,14.111-1.843a1.433,1.433,0,0,0,1.433-1.433V1.433A1.433,1.433,0,0,0,341.3,0a64.579,64.579,0,0,0-11.213.867,13.509,13.509,0,0,0-4.316,1.367,5.938,5.938,0,0,0-.693-.356A17.24,17.24,0,0,0,321.443.867,64.523,64.523,0,0,0,310.233,0,1.433,1.433,0,0,0,308.8,1.433V25.359A1.432,1.432,0,0,0,310.233,26.794ZM327.246,4.672c1.025-.65,5.317-1.672,12.621-1.793V23.938a61.557,61.557,0,0,0-9.779.855,19.745,19.745,0,0,0-2.841.695V4.672ZM311.666,2.879c7.3.12,11.6,1.143,12.621,1.793V25.5a20.94,20.94,0,0,0-2.841-.707,61.571,61.571,0,0,0-9.779-.855V2.879Z" transform="translate(-304.714 0)"/>
</svg>
