<svg id="_01_survice" data-name="01_survice" xmlns="http://www.w3.org/2000/svg" viewBox="0 0 41.343 33.308">
  <defs>
    <style>
      .cls-1 {
        fill: #3e3e3e;
      }
    </style>
  </defs>
  <path id="パス_1187" data-name="パス 1187" class="cls-1" d="M39.734,33.308H1.807A1.707,1.707,0,0,1,.1,31.6V1.707A1.709,1.709,0,0,1,1.807,0H14.449a1.7,1.7,0,0,1,1.374.694l2.846,3.859H39.734a1.707,1.707,0,1,1,0,3.415H17.806a1.7,1.7,0,0,1-1.374-.694L13.589,3.413H3.516v26.48H38.028v-17.2a1.707,1.707,0,0,1,3.415,0V31.6A1.711,1.711,0,0,1,39.734,33.308Z" transform="translate(-0.1)"/>
</svg>
