<svg id="_03_works" data-name="03_works" xmlns="http://www.w3.org/2000/svg" viewBox="0 0 34.374 55.862">
  <defs>
    <style>
      .cls-1 {
        fill: #3e3e3e;
      }
    </style>
  </defs>
  <path id="パス_1190" data-name="パス 1190" class="cls-1" d="M37.707,55.862H6.468A1.567,1.567,0,0,1,4.9,54.294V1.568A1.567,1.567,0,0,1,6.468,0H37.705a1.568,1.568,0,1,1,0,3.136H8.037V52.725h28.1V6.6a1.568,1.568,0,0,1,3.136,0V54.293A1.568,1.568,0,0,1,37.707,55.862Z" transform="translate(-4.9)"/>
  <path id="パス_1191" data-name="パス 1191" class="cls-1" d="M394.985,447.708H374.368a1.567,1.567,0,0,1-1.568-1.568V412.268a1.567,1.567,0,0,1,1.568-1.568h20.617a1.567,1.567,0,0,1,1.568,1.568V446.14A1.567,1.567,0,0,1,394.985,447.708Zm-19.049-3.136h17.48V413.836h-17.48Z" transform="translate(-367.489 -404.771)"/>
  <path id="パス_1192" data-name="パス 1192" class="cls-1" d="M950.783,3076.567a3.583,3.583,0,1,1,3.583-3.583A3.587,3.587,0,0,1,950.783,3076.567Zm0-4.03a.446.446,0,1,0,.446.446A.446.446,0,0,0,950.783,3072.537Z" transform="translate(-933.596 -3025.09)"/>
</svg>
