<?xml version="1.0" encoding="utf-8"?>
<!-- Generator: Adobe Illustrator 22.1.0, SVG Export Plug-In . SVG Version: 6.00 Build 0)  -->
<svg version="1.1" id="レイヤー_1" xmlns="http://www.w3.org/2000/svg" xmlns:xlink="http://www.w3.org/1999/xlink" x="0px"
	 y="0px" viewBox="0 0 2906 5000" style="enable-background:new 0 0 2906 5000;" xml:space="preserve">
<style type="text/css">
	.st0{fill:#228BAF;}
	.st1{fill:#FFFFFF;}
	.st2{fill:#F2F2F2;}
	.st3{fill:#E6E6E6;}
	.st4{fill:#CCCCCC;}
	.st5{fill:#29ABE2;}
	.st6{fill:#B3B3B3;}
	.st7{fill:#33CAFF;}
	.st8{clip-path:url(#SVGID_2_);}
	.st9{clip-path:url(#SVGID_4_);}
	.st10{clip-path:url(#SVGID_6_);}
</style>
<g>
	<path class="st0" d="M537.7,0.6v361.2c0,55.2,44.8,108.9,100,119.8l2164.8,427.8c55.2,10.9,100-25,100-80.2V468L537.7,0.6z"/>
</g>
<g>
	<polygon class="st1" points="2866,3352.7 501.1,2885.3 501.1,51.9 2866,519.2 	"/>
</g>
<g>
	<polygon class="st1" points="2543.8,3608.9 179,3141.6 179,308.1 2543.8,775.5 	"/>
</g>
<g>
	<path class="st2" d="M2543.9,1252.9c-18.1,14.5-43.1,20.8-70.7,15.3L308.3,840.4c-55.2-10.9-100-64.5-100-119.8V322.1l2335.6,468.6
		"/>
</g>
<g>
	<path class="st3" d="M2543.9,1245.6c-18.1,14.5-43.1,20.8-70.7,15.3L308.3,833.1c-55.2-10.9-100-64.5-100-119.8V314.8l2335.6,468.6
		"/>
</g>
<g>
	<path class="st4" d="M2543.9,1238.2c-18.1,14.5-43.1,20.8-70.7,15.3L308.3,825.7c-55.2-10.9-100-64.5-100-119.8V307.5l2335.6,468.6
		"/>
</g>
<polygon class="st5" points="2177.8,2953.8 625.6,2647.1 625.6,2603.1 2177.8,2909.9 "/>
<polygon class="st6" points="2866,519.2 2543.8,776.1 2488.8,768.8 2844.8,515 "/>
<g>
	<g>
		<path class="st5" d="M1672.6,2594.4l-668.9-132.2l265.5-301.8c30.2-34.3,55.6-65.3,76.1-92.9c20.5-27.6,36.7-52.4,48.5-74.4
			c23.1-41.2,34.6-85.9,34.6-134.1c0-26.4-5.5-48.5-16.4-66.2s-25.8-28.4-44.7-32.1c-42-8.3-62.9,27-62.9,105.9
			c0,4.2,0.1,9.3,0.3,15.2c0.2,5.9,0.5,12.9,0.9,20.9l-254.8-50.4l-1.3-35.5c0-97.7,30.2-171.9,90.6-222.5
			c60.8-50.9,138.6-67,233.4-48.3c91.4,18.1,166.1,62.6,224,133.6c58.3,69.8,87.5,151.7,87.5,245.7c0,75.5-19.9,145-59.8,208.4
			c-20.1,31.7-46.2,64-78.3,96.8c-32.1,32.9-71,66.4-116.7,100.6c39.4,4.9,79.2,10.6,119.2,17.3c40.1,6.7,81.1,14.1,123,22.4v223.6
			H1672.6z"/>
	</g>
</g>
<polygon class="st7" points="2529.2,768.8 2902.6,468.6 537.7,0 164.3,300.2 "/>
<g>
	<path class="st5" d="M2529.2,768.1v361.2c0,55.2-44.8,91.2-100,80.2L264.4,781.8c-55.2-10.9-100-64.5-100-119.8V300.8L2529.2,768.1
		z"/>
</g>
<g>
	<g>
		<defs>
			<polygon id="SVGID_1_" points="2543.8,3608.9 179,3141.6 179,308.1 2543.8,775.5 			"/>
		</defs>
		<clipPath id="SVGID_2_">
			<use xlink:href="#SVGID_1_"  style="overflow:visible;"/>
		</clipPath>
		<g class="st8">
			<polyline class="st2" points="2543.8,5272.4 208.3,4810.9 208.3,1977.4 2543.8,2439 			"/>
		</g>
	</g>
	<g>
		<defs>
			<polygon id="SVGID_3_" points="2543.8,3608.9 179,3141.6 179,308.1 2543.8,775.5 			"/>
		</defs>
		<clipPath id="SVGID_4_">
			<use xlink:href="#SVGID_3_"  style="overflow:visible;"/>
		</clipPath>
		<g class="st9">
			<polygon class="st3" points="2499.9,5263.6 135.1,4796.2 135.1,1962.8 2499.9,2430.1 			"/>
		</g>
	</g>
	<g>
		<defs>
			<polygon id="SVGID_5_" points="2543.8,3608.9 179,3141.6 179,308.1 2543.8,775.5 			"/>
		</defs>
		<clipPath id="SVGID_6_">
			<use xlink:href="#SVGID_5_"  style="overflow:visible;"/>
		</clipPath>
		<g class="st10">
			<polyline class="st4" points="2463.3,3613.2 2463.3,5256.3 98.5,4788.9 98.5,1955.5 2463.3,2422.8 2463.3,3613.2 			"/>
		</g>
	</g>
</g>
<g>
	<polygon class="st1" points="2360.8,5000 -4,4532.7 -4,1699.2 2360.8,2166.6 	"/>
</g>
<g>
	<polyline class="st4" points="2543.8,3609.5 2866,3353.3 2866,519.2 2543.8,776.1 2543.8,3609.5 	"/>
</g>
<g>
	<g>
		<path class="st5" d="M1328.4,3925.5l-262.4-51.9v-743.1l-105.1-20.8v-228.4l367.5,72.6V3925.5z"/>
	</g>
</g>
<polygon class="st5" points="1972.8,4301 420.6,3994.2 420.6,3950.3 1972.8,4257.1 "/>
</svg>
