<svg xmlns="http://www.w3.org/2000/svg" viewBox="0 0 167.898 60.001">
  <defs>
    <style>
      .cls-1 {
        fill: none;
      }

      .cls-2 {
        fill: #fe9da0;
      }

      .cls-3, .cls-5 {
        fill: #fff;
      }

      .cls-3 {
        stroke: #fff;
        stroke-linejoin: round;
        stroke-width: 2px;
      }

      .cls-4, .cls-5 {
        stroke: none;
      }
    </style>
  </defs>
  <g id="グループ化_2844" data-name="グループ化 2844" transform="translate(-520.909 -3753)">
    <g id="パス_630" data-name="パス 630" class="cls-1" transform="translate(520.909 3753)">
      <path class="cls-4" d="M29.115,0H138.783C154.863,0,167.9,13.431,167.9,30s-13.035,30-29.115,30H29.115C13.035,60,0,46.569,0,30S13.035,0,29.115,0Z"/>
      <path class="cls-5" d="M 29.11529541015625 15 C 21.33209228515625 15 14.99998474121094 21.72896575927734 14.99998474121094 30 C 14.99998474121094 38.27103424072266 21.33209228515625 45 29.11529541015625 45 L 138.7830200195312 45 C 146.5661926269531 45 152.8983001708984 38.27103424072266 152.8983001708984 30 C 152.8983001708984 21.72896575927734 146.5661926269531 15 138.7830200195312 15 L 29.11529541015625 15 M 29.11529541015625 0 L 138.7830200195312 0 C 154.8629455566406 0 167.8983001708984 13.43146514892578 167.8983001708984 30 C 167.8983001708984 46.56853485107422 154.8629455566406 60 138.7830200195312 60 L 29.11529541015625 60 C 13.03536987304688 60 -1.52587890625e-05 46.56853485107422 -1.52587890625e-05 30 C -1.52587890625e-05 13.43146514892578 13.03536987304688 0 29.11529541015625 0 Z"/>
    </g>
    <path id="前面オブジェクトで型抜き_38" data-name="前面オブジェクトで型抜き 38" class="cls-2" d="M9069.824,2730h-19.818a7.5,7.5,0,0,0-.007-15h19.828a7.5,7.5,0,0,0,0,15Z" transform="translate(-8491.5 1083)"/>
    <path id="パス_631" data-name="パス 631" class="cls-3" d="M-20822.912,13372.494v12.35l10.717-6.021Z" transform="translate(21422.645 -9595.869)"/>
  </g>
</svg>
